<svg width="1280" height="720" xmlns="http://www.w3.org/2000/svg" xmlns:xlink="http://www.w3.org/1999/xlink" overflow="hidden"><defs><clipPath id="clip0"><rect x="0" y="0" width="1280" height="720"/></clipPath><clipPath id="clip1"><rect x="805" y="281" width="96" height="96"/></clipPath><clipPath id="clip2"><rect x="805" y="281" width="96" height="96"/></clipPath><clipPath id="clip3"><rect x="805" y="281" width="96" height="96"/></clipPath><clipPath id="clip4"><rect x="618" y="132" width="96" height="96"/></clipPath><clipPath id="clip5"><rect x="618" y="132" width="96" height="96"/></clipPath><clipPath id="clip6"><rect x="618" y="132" width="96" height="96"/></clipPath><clipPath id="clip7"><rect x="631" y="349" width="96" height="96"/></clipPath><clipPath id="clip8"><rect x="631" y="349" width="96" height="96"/></clipPath><clipPath id="clip9"><rect x="631" y="349" width="96" height="96"/></clipPath><clipPath id="clip10"><rect x="39" y="347" width="96" height="96"/></clipPath><clipPath id="clip11"><rect x="39" y="347" width="96" height="96"/></clipPath><clipPath id="clip12"><rect x="39" y="347" width="96" height="96"/></clipPath><clipPath id="clip13"><rect x="336" y="352" width="96" height="96"/></clipPath><clipPath id="clip14"><rect x="336" y="352" width="96" height="96"/></clipPath><clipPath id="clip15"><rect x="336" y="352" width="96" height="96"/></clipPath><clipPath id="clip16"><rect x="182" y="284" width="96" height="96"/></clipPath><clipPath id="clip17"><rect x="182" y="284" width="96" height="96"/></clipPath><clipPath id="clip18"><rect x="182" y="284" width="96" height="96"/></clipPath><clipPath id="clip19"><rect x="1130" y="347" width="96" height="96"/></clipPath><clipPath id="clip20"><rect x="1130" y="347" width="96" height="96"/></clipPath><clipPath id="clip21"><rect x="1130" y="347" width="96" height="96"/></clipPath></defs><g clip-path="url(#clip0)"><rect x="0" y="0" width="1280" height="720" fill="#FFFFFF"/><text font-family="Calibri,Calibri_MSFontService,sans-serif" font-weight="300" font-size="32" transform="translate(9.6 67)">Méthode SCRUM</text><g clip-path="url(#clip1)"><g clip-path="url(#clip2)"><g clip-path="url(#clip3)"><path d="M843.562 314.008C844.765 315.53 845.785 317.189 846.6 318.949 846.767 319.287 847.112 319.5 847.489 319.5L859.307 319.5C859.684 319.5 860.029 319.287 860.196 318.949 861.014 317.189 862.035 315.531 863.238 314.008 864.205 312.919 864.969 311.666 865.495 310.308 866.047 308.87 866.353 307.348 866.4 305.808L866.4 305.361C866.4 298.181 860.58 292.361 853.4 292.361 846.22 292.361 840.4 298.181 840.4 305.361L840.4 305.808C840.447 307.348 840.753 308.869 841.305 310.308 841.831 311.666 842.595 312.919 843.562 314.008ZM853.4 294.521C859.411 294.528 864.306 299.353 864.4 305.363L864.4 305.778C864.357 307.081 864.097 308.368 863.631 309.586 863.196 310.712 862.563 311.752 861.763 312.657 860.548 314.143 859.515 315.769 858.684 317.5L848.116 317.5C847.297 315.775 846.27 314.156 845.057 312.68 844.25 311.772 843.612 310.727 843.172 309.594 842.704 308.374 842.443 307.083 842.4 305.777L842.4 305.4C842.478 299.377 847.377 294.532 853.4 294.521Z"/><path d="M859.4 322.5C859.4 321.948 858.952 321.5 858.4 321.5L848.4 321.5C847.848 321.5 847.4 321.948 847.4 322.5 847.4 323.052 847.848 323.5 848.4 323.5L858.4 323.5C858.952 323.5 859.4 323.052 859.4 322.5Z"/><path d="M853.4 328.5C854.969 328.499 856.275 327.293 856.4 325.728L850.4 325.728C850.527 327.291 851.831 328.496 853.4 328.5Z"/><path d="M853.3 313.509 858.79 303.396 853.3 304.486 853.3 298.504 848.01 308.837 853.3 307.637 853.3 313.509Z"/><path d="M832.4 342.186C836.675 342.188 840.142 338.723 840.144 334.448 840.146 330.173 836.681 326.706 832.406 326.704 828.131 326.702 824.664 330.167 824.662 334.442 824.662 334.443 824.662 334.444 824.662 334.445 824.661 338.719 828.125 342.185 832.399 342.186 832.399 342.186 832.4 342.186 832.4 342.186ZM832.4 328.705C835.571 328.703 838.142 331.272 838.144 334.443 838.146 337.614 835.577 340.185 832.406 340.187 829.235 340.189 826.664 337.62 826.662 334.449 826.662 334.448 826.662 334.446 826.662 334.445 826.665 331.277 829.232 328.709 832.4 328.705Z"/><path d="M874.4 341.98C878.675 341.981 882.141 338.517 882.142 334.242 882.143 329.967 878.679 326.501 874.404 326.5 870.129 326.499 866.663 329.963 866.662 334.238 866.662 334.239 866.662 334.239 866.662 334.24 866.661 338.514 870.126 341.979 874.4 341.98ZM874.4 328.5C877.57 328.499 880.141 331.068 880.142 334.238 880.143 337.408 877.574 339.979 874.404 339.98 871.234 339.981 868.663 337.412 868.662 334.242 868.662 334.241 868.662 334.241 868.662 334.24 868.665 331.072 871.232 328.504 874.4 328.5Z"/><path d="M888.533 348.119C886.26 346.366 883.655 345.091 880.875 344.373 878.777 343.728 876.595 343.397 874.4 343.392 872.212 343.427 870.039 343.756 867.938 344.369 865.188 345.168 862.596 346.434 860.275 348.112 860.124 348.234 859.98 348.364 859.843 348.502 860.043 348.558 860.243 348.602 860.449 348.662 861.057 348.835 861.639 349.027 862.21 349.228 864.141 347.945 866.253 346.958 868.476 346.3 870.402 345.738 872.394 345.435 874.4 345.4 876.405 345.406 878.397 345.709 880.313 346.3 882.838 346.946 885.206 348.096 887.275 349.682 887.965 350.215 888.378 351.031 888.4 351.902L888.4 358.302 890.4 358.302 890.4 351.902C890.379 350.424 889.693 349.035 888.533 348.119Z"/><path d="M844.458 349.3C845.101 349.058 845.746 348.839 846.389 348.656 846.526 348.619 846.653 348.593 846.789 348.556 846.705 348.479 846.624 348.399 846.534 348.328 844.261 346.574 841.656 345.299 838.876 344.58 836.778 343.936 834.595 343.605 832.4 343.6 830.212 343.636 828.039 343.964 825.938 344.576 823.188 345.375 820.595 346.641 818.275 348.32 817.114 349.234 816.425 350.622 816.4 352.1L816.4 358.5 818.4 358.5 818.4 352.1C818.419 351.244 818.817 350.44 819.488 349.908 821.609 348.388 823.972 347.235 826.476 346.5 828.402 345.938 830.394 345.635 832.4 345.6 834.405 345.607 836.397 345.91 838.313 346.5 840.503 347.086 842.579 348.032 844.458 349.3Z"/><path d="M867.533 354.325C865.26 352.571 862.655 351.296 859.875 350.577 857.777 349.934 855.595 349.604 853.4 349.6 851.212 349.636 849.039 349.964 846.938 350.576 844.188 351.375 841.595 352.641 839.275 354.32 838.114 355.234 837.425 356.622 837.4 358.1L837.4 364.5 839.4 364.5 839.4 358.1C839.419 357.244 839.817 356.44 840.488 355.908 842.609 354.388 844.972 353.235 847.476 352.5 849.402 351.938 851.394 351.635 853.4 351.6 855.405 351.607 857.397 351.91 859.313 352.5 861.838 353.146 864.206 354.297 866.275 355.882 866.964 356.415 867.377 357.229 867.4 358.1L867.4 364.5 869.4 364.5 869.4 358.1C869.377 356.625 868.691 355.239 867.533 354.325Z"/><path d="M853.4 348.186C857.675 348.188 861.142 344.723 861.144 340.448 861.146 336.173 857.681 332.706 853.406 332.704 849.131 332.702 845.664 336.167 845.662 340.442 845.662 340.443 845.662 340.444 845.662 340.445 845.661 344.719 849.125 348.185 853.399 348.186 853.399 348.186 853.4 348.186 853.4 348.186ZM853.4 334.705C856.571 334.703 859.142 337.272 859.144 340.443 859.146 343.614 856.577 346.185 853.406 346.187 850.235 346.189 847.664 343.62 847.662 340.449 847.662 340.448 847.662 340.446 847.662 340.445 847.665 337.277 850.232 334.709 853.4 334.705Z"/></g></g></g><g clip-path="url(#clip4)"><g clip-path="url(#clip5)"><g clip-path="url(#clip6)"><path d="M645.293 183.444 645.308 183.444C645.608 183.444 652.762 183.314 656.284 181.453 656.314 181.436 656.345 181.418 656.374 181.399 657.834 180.328 659.208 179.145 660.483 177.86 660.713 177.641 660.935 177.43 661.152 177.226 662.476 177.66 663.852 177.914 665.243 177.982 665.5 177.994 665.757 178 666.012 178 667.396 177.997 668.774 177.815 670.112 177.458 670.295 177.629 670.48 177.803 670.679 177.991 671.894 179.186 673.181 180.306 674.532 181.344 677.804 183.713 685.987 181.929 686.91 181.718 687.298 181.625 687.594 181.311 687.663 180.918 687.73 180.52 687.555 180.12 687.216 179.899 687.195 179.886 685.168 178.518 683.865 173.368 683.438 171.697 684.178 168.345 684.965 164.796 685.824 161.482 686.348 158.09 686.529 154.671 686.529 149.596 685.029 146.488 681.814 144.892 680.158 144.249 678.342 144.139 676.621 144.579 675.721 143.37 673.327 140.824 668.311 139.261 662.893 137.771 657.104 138.517 652.241 141.333 648.055 144.033 646.047 147.053 645.954 156.878 645.916 161.02 646.16 164.878 646.376 168.285 646.667 171.103 646.716 173.941 646.521 176.767 646.288 178.607 645.589 180.357 644.489 181.851 644.161 182.296 644.256 182.922 644.701 183.249 644.872 183.375 645.077 183.443 645.289 183.444ZM665.335 175.984C658.185 175.595 652.461 169.908 652.027 162.76 652.003 162.276 652.003 161.792 652.027 161.308 652.074 160.291 652.893 159.481 653.91 159.445 654.63 159.433 655.348 159.366 656.058 159.245 659.309 158.816 662.482 157.92 665.478 156.586 668.772 154.929 671.83 152.839 674.571 150.373 674.82 151.931 675.373 153.425 676.201 154.768 676.22 154.8 676.242 154.831 676.265 154.86 676.661 155.332 677.119 155.747 677.626 156.096L677.789 156.219C677.977 156.365 678.151 156.529 678.308 156.709 679.24 157.78 679.807 159.12 679.927 160.535 679.977 161.022 680.001 161.511 680 162 680 169.732 673.732 176 666 176 665.778 176 665.556 175.995 665.335 175.984ZM648.373 168.158C648.159 164.787 647.916 160.965 647.954 156.896 648.039 147.933 649.68 145.369 653.281 143.041 657.661 140.513 662.87 139.842 667.747 141.177 673.476 142.962 675.276 146.155 675.291 146.177 675.515 146.6 676.007 146.806 676.465 146.667 677.233 146.436 679.532 145.986 680.921 146.676 682.599 147.508 684.521 149.169 684.521 154.658 684.336 157.933 683.828 161.183 683.004 164.358 682.131 168.31 681.377 171.724 681.922 173.858 682.411 176.105 683.343 178.233 684.663 180.116 681.813 180.585 677.422 180.972 675.7 179.726 674.491 178.796 673.338 177.794 672.249 176.726 678.161 174.221 682.001 168.421 682 162 682 161.441 681.971 160.882 681.914 160.326 681.75 158.491 681.008 156.755 679.793 155.37 679.551 155.096 679.283 154.845 678.993 154.621L678.822 154.493C678.475 154.255 678.156 153.979 677.872 153.668 677.171 152.514 676.71 151.229 676.519 149.892 676.366 148.854 675.4 148.137 674.362 148.29 673.975 148.347 673.615 148.523 673.331 148.792 670.71 151.168 667.78 153.18 664.621 154.773 661.799 156.024 658.812 156.863 655.752 157.264 655.127 157.372 654.494 157.432 653.859 157.443 651.796 157.508 650.129 159.146 650.027 161.207L650.027 161.207C650.001 161.759 650.002 162.315 650.027 162.862 650.382 168.687 653.858 173.865 659.115 176.4L659.104 176.411C657.92 177.603 656.65 178.706 655.304 179.711 653.204 180.798 649.418 181.211 647.148 181.36 647.852 180.012 648.309 178.55 648.5 177.042 648.725 174.083 648.683 171.109 648.373 168.158Z"/><path d="M694.533 191.525C689.943 187.991 684.685 185.424 679.075 183.979 677.783 183.592 676.482 183.258 675.209 182.986L674.702 182.877 674.321 183.23C670.246 187 667.484 187 666 187 664.516 187 661.731 187 657.676 183.28L657.297 182.932 656.797 183.038C655.572 183.296 654.278 183.611 652.94 183.976 647.398 185.6 642.17 188.15 637.479 191.518 635.328 193.203 634.05 195.768 634 198.5L634 214 636 214 636 198.5C636.044 196.391 637.03 194.413 638.688 193.108 643.178 189.894 648.177 187.46 653.476 185.908 654.586 185.608 655.676 185.336 656.711 185.108 660.6 188.527 663.584 189 666 189 668.416 189 671.384 188.521 675.29 185.051 676.351 185.291 677.43 185.574 678.513 185.899 683.868 187.272 688.889 189.715 693.275 193.08 694.952 194.385 695.953 196.376 696 198.5L696 214 698 214 698 198.5C697.952 195.772 696.678 193.211 694.533 191.525Z"/></g></g></g><g clip-path="url(#clip7)"><g clip-path="url(#clip8)"><g clip-path="url(#clip9)"><path d="M699 369 699 364C699 363.448 698.552 363 698 363 697.448 363 697 363.448 697 364L697 369 661 369 661 364C661 363.448 660.552 363 660 363 659.448 363 659 363.448 659 364L659 369 645 369 645 431 713 431 713 369ZM711 429 647 429 647 385 711 385ZM647 383 647 371 659 371 659 375C659 375.552 659.448 376 660 376 660.552 376 661 375.552 661 375L661 371 697 371 697 375C697 375.552 697.448 376 698 376 698.552 376 699 375.552 699 375L699 371 711 371 711 383Z"/><path d="M672 423 705 423 705 391 653 391 653 423 672 423ZM672 421 672 413 686 413 686 421ZM672 403 686 403 686 411 672 411ZM670 411 655 411 655 403 670 403ZM688 403 703 403 703 411 688 411ZM688 421 688 413 703 413 703 421ZM703 393 703 401 688 401 688 393ZM686 393 686 401 672 401 672 393ZM670 393 670 401 655 401 655 393ZM655 421 655 413 670 413 670 421Z"/></g></g></g><g clip-path="url(#clip10)"><g clip-path="url(#clip11)"><g clip-path="url(#clip12)"><path d="M64.806 408.017 64.806 433.324 96.406 433.324 96.406 421.324 101.306 421.324C107.823 421.324 113.106 416.041 113.106 409.524 113.106 409.457 113.106 409.39 113.106 409.324L113.106 403.324 117.506 403.324C120.106 403.024 122.406 400.024 120.006 396.324L113.106 384.324 113.106 383.824C113.721 367.225 100.763 353.27 84.1639 352.655 84.1606 352.655 84.1573 352.655 84.154 352.655 83.781 352.641 83.408 352.635 83.038 352.635 66.8621 352.647 53.5933 365.452 53.006 381.617 52.9787 382.35 52.9787 383.081 53.006 383.81 52.9665 393.274 57.3267 402.218 64.806 408.017ZM55 383.737C54.976 383.058 54.976 382.369 55 381.689 55.4947 366.574 67.9148 354.59 83.038 354.635 83.383 354.635 83.732 354.641 84.081 354.654 99.5679 355.239 111.659 368.249 111.11 383.737L111.11 384.844 111.376 385.307 118.276 397.307 118.303 397.353 118.332 397.398C118.981 398.182 119.173 399.248 118.838 400.209 118.554 400.789 118.01 401.198 117.374 401.309L111.109 401.309 111.109 409.509C111.102 414.918 106.718 419.302 101.309 419.309L94.409 419.309 94.409 431.309 66.809 431.309 66.809 407.037 66.035 406.437C59.0661 401.003 54.9961 392.655 55.006 383.818L55.006 383.778Z"/><path d="M81.767 402.557 81.767 402.557C83.4423 402.557 84.836 401.269 84.967 399.599L78.567 399.599C78.6976 401.269 80.0916 402.558 81.767 402.557Z"/><path d="M68.969 379.058C69.0168 380.574 69.3183 382.072 69.861 383.488 70.379 384.825 71.1322 386.059 72.085 387.131 73.2712 388.631 74.278 390.265 75.085 391.999 75.2512 392.333 75.5925 392.545 75.966 392.545L87.572 392.545C87.9453 392.545 88.2865 392.334 88.453 392 89.2597 390.266 90.2665 388.632 91.453 387.132 92.4051 386.06 93.1582 384.826 93.677 383.489 94.219 382.072 94.5201 380.575 94.568 379.059L94.568 378.616C94.568 371.547 88.8372 365.816 81.768 365.816 74.6988 365.816 68.968 371.547 68.968 378.616ZM81.769 367.963C87.6726 367.972 92.479 372.712 92.569 378.615L92.569 379.025C92.5258 380.305 92.2703 381.568 91.813 382.764 91.3809 383.879 90.7527 384.907 89.958 385.8L89.92 385.843 89.885 385.887C88.7423 387.332 87.753 388.892 86.933 390.542L76.6 390.542C75.78 388.892 74.7907 387.332 73.648 385.887L73.613 385.843 73.58 385.8C72.787 384.909 72.1598 383.882 71.728 382.77 71.2693 381.571 71.0128 380.304 70.969 379.021L70.969 378.648C71.0449 372.734 75.8537 367.976 81.768 367.963Z"/><path d="M86.652 395.09 77.085 395.09C76.5327 395.09 76.085 395.538 76.085 396.09 76.085 396.642 76.5327 397.09 77.085 397.09L86.652 397.09C87.2043 397.09 87.652 396.642 87.652 396.09 87.652 395.538 87.2043 395.09 86.652 395.09Z"/><path d="M97.447 379.523 101.292 379.523C101.844 379.523 102.292 379.075 102.292 378.523 102.292 377.971 101.844 377.523 101.292 377.523L97.447 377.523C96.8947 377.523 96.447 377.971 96.447 378.523 96.447 379.075 96.8947 379.523 97.447 379.523Z"/><path d="M62.246 379.523 66.091 379.523C66.6433 379.523 67.091 379.075 67.091 378.523 67.091 377.971 66.6433 377.523 66.091 377.523L62.246 377.523C61.6937 377.523 61.246 377.971 61.246 378.523 61.246 379.075 61.6937 379.523 62.246 379.523Z"/><path d="M93.562 388.9C93.1647 388.516 92.5317 388.527 92.148 388.925 91.7737 389.312 91.7737 389.927 92.148 390.314L94.867 393.034C95.2643 393.418 95.8973 393.407 96.281 393.009 96.6553 392.622 96.6553 392.008 96.281 391.62Z"/><path d="M69.976 368.145C70.3667 368.535 71 368.535 71.3905 368.145 71.781 367.754 71.7807 367.121 71.39 366.73L68.671 364.011C68.2873 363.614 67.6543 363.603 67.257 363.986 66.8597 364.37 66.8487 365.003 67.2324 365.4 67.2405 365.409 67.2487 365.417 67.257 365.425Z"/><path d="M69.976 388.9 67.257 391.62C66.8597 392.004 66.8487 392.637 67.2324 393.034 67.6161 393.431 68.2492 393.442 68.6464 393.059 68.6548 393.051 68.663 393.042 68.671 393.034L71.39 390.314C71.7737 389.917 71.7627 389.284 71.3654 388.9 70.9779 388.526 70.3635 388.526 69.976 388.9Z"/><path d="M92.855 368.438C93.1202 368.438 93.3745 368.333 93.562 368.145L96.281 365.425C96.6647 365.028 96.6537 364.395 96.2564 364.011 95.8689 363.637 95.2545 363.637 94.867 364.011L92.148 366.73C91.757 367.12 91.7562 367.753 92.1462 368.144 92.334 368.332 92.5891 368.438 92.855 368.438Z"/><path d="M81.769 363.846C82.3213 363.846 82.769 363.398 82.769 362.846L82.769 359C82.769 358.448 82.3213 358 81.769 358 81.2167 358 80.769 358.448 80.769 359L80.769 362.846C80.769 363.398 81.2167 363.846 81.769 363.846Z"/></g></g></g><g clip-path="url(#clip13)"><g clip-path="url(#clip14)"><g clip-path="url(#clip15)"><path d="M420 371C420.552 371 421 370.552 421 370 421 369.448 420.552 369 420 369L385 369 385 365C385 364.448 384.552 364 384 364 383.448 364 383 364.448 383 365L383 369 348 369C347.448 369 347 369.448 347 370 347 370.552 347.448 371 348 371L352 371 352 412 348 412C347.448 412 347 412.448 347 413 347 413.552 347.448 414 348 414L381.586 414 363.793 431.793C363.409 432.19 363.42 432.823 363.818 433.207 364.205 433.581 364.819 433.581 365.207 433.207L382.983 415.431C382.987 415.427 382.993 415.427 382.997 415.431 382.999 415.433 383 415.435 383 415.438L383 436C383 436.552 383.448 437 384 437 384.552 437 385 436.552 385 436L385 415.438C385 415.432 385.005 415.428 385.01 415.428 385.013 415.428 385.015 415.429 385.017 415.431L402.793 433.207C403.19 433.591 403.823 433.58 404.207 433.182 404.581 432.795 404.581 432.18 404.207 431.793L386.414 414 420 414C420.552 414 421 413.552 421 413 421 412.448 420.552 412 420 412L416 412 416 371ZM414 412 354 412 354 371 414 371Z"/><path d="M385 384 402 384 402 386 385 386Z"/><path d="M385 397 402 397 402 399 385 399Z"/><path d="M370 387.586 366.707 384.293 365.293 385.707 370 390.414 378.707 381.707 377.293 380.293 370 387.586Z"/><path d="M370 400.586 366.707 397.293 365.293 398.707 370 403.414 378.707 394.707 377.293 393.293 370 400.586Z"/></g></g></g><path d="M141 388.25 290.192 388.25 290.192 376 331 400.5 290.192 425 290.192 412.75 141 412.75Z" fill="#94DCCB" fill-rule="evenodd"/><text font-family="Poppins,Poppins_MSFontService,sans-serif" font-weight="400" font-size="21" transform="translate(151.376 408)">Idée du projet</text><path d="M438 388.25 587.192 388.25 587.192 376 628 400.5 587.192 425 587.192 412.75 438 412.75Z" fill="#94DCCB" fill-rule="evenodd"/><text font-family="Poppins,Poppins_MSFontService,sans-serif" font-weight="400" font-size="21" transform="translate(457.137 408)">Planification</text><g clip-path="url(#clip16)"><g clip-path="url(#clip17)"><g clip-path="url(#clip18)"><path d="M206 324.005C210.971 324.005 215 319.976 215 315.005 215 310.034 210.971 306.005 206 306.005 201.029 306.005 197 310.034 197 315.005 197 319.976 201.029 324.005 206 324.005ZM206 308C209.866 308 213 311.134 213 315 213 318.866 209.866 322 206 322 202.134 322 199 318.866 199 315 199.005 311.136 202.136 308.005 206 308Z"/><path d="M254 324.005C258.971 324.005 263 319.976 263 315.005 263 310.034 258.971 306.005 254 306.005 249.029 306.005 245 310.034 245 315.005 245 319.976 249.029 324.005 254 324.005ZM254 308C257.866 308 261 311.134 261 315 261 318.866 257.866 322 254 322 250.134 322 247 318.866 247 315 247.005 311.136 250.136 308.005 254 308Z"/><path d="M269.9 331.489C267.351 329.501 264.401 328.092 261.253 327.358 258.897 326.654 256.458 326.262 254 326.19 251.543 326.193 249.103 326.585 246.769 327.353 245.11 327.783 243.503 328.395 241.979 329.178 241.954 330 241.845 330.818 241.651 331.618 243.429 330.584 245.339 329.795 247.329 329.272 249.482 328.565 251.733 328.199 254 328.19 256.286 328.264 258.553 328.633 260.744 329.29 263.625 329.952 266.325 331.237 268.656 333.055L268.742 333.119C269.565 333.712 270.036 334.677 270 335.69L270 343.19 272 343.19 272 335.69C272.036 334.029 271.251 332.457 269.9 331.489Z"/><path d="M218.307 331.463C218.125 330.673 218.024 329.866 218.007 329.055 216.481 328.335 214.888 327.765 213.251 327.355 210.895 326.652 208.457 326.261 206 326.19 203.543 326.193 201.103 326.585 198.769 327.353 195.639 328.206 192.689 329.619 190.062 331.522 188.768 332.518 188.01 334.057 188.008 335.69L188.008 343.19 190.008 343.19 190.008 335.69C190.01 334.681 190.478 333.729 191.276 333.112 193.709 331.359 196.439 330.058 199.333 329.272 201.485 328.565 203.735 328.2 206 328.19 208.286 328.264 210.553 328.633 212.744 329.29 214.686 329.766 216.557 330.497 218.307 331.463Z"/><path d="M245.9 345.3C243.351 343.312 240.401 341.902 237.253 341.169 234.896 340.465 232.458 340.073 230 340 227.544 340.002 225.104 340.395 222.771 341.163 219.641 342.016 216.691 343.428 214.064 345.332 212.766 346.326 212.003 347.866 212 349.5L212 357 214 357 214 349.5C214.002 348.491 214.47 347.539 215.269 346.922 217.702 345.168 220.431 343.868 223.325 343.082 225.48 342.374 227.732 342.009 230 342 232.286 342.073 234.554 342.443 236.745 343.1 239.625 343.761 242.326 345.046 244.656 346.864L244.742 346.928C245.565 347.521 246.037 348.486 246 349.5L246 357 248 357 248 349.5C248.036 347.839 247.25 346.268 245.9 345.3Z"/><path d="M230 337.815C234.971 337.815 239 333.786 239 328.815 239 323.844 234.971 319.815 230 319.815 225.029 319.815 221 323.844 221 328.815 221 333.786 225.029 337.815 230 337.815ZM230 321.815C233.866 321.815 237 324.949 237 328.815 237 332.681 233.866 335.815 230 335.815 226.134 335.815 223 332.681 223 328.815 223.003 324.949 226.134 321.815 230 321.81Z"/></g></g></g><text font-family="Poppins,Poppins_MSFontService,sans-serif" font-weight="400" font-size="21" transform="translate(329.855 473)">Validation <tspan font-size="21" x="6.16666" y="25">du projet</tspan></text><path d="M0 284 0 130.262C0 58.3201 58.3202-3.6157e-14 130.262-7.2314e-14L130.262 0C202.203-1.80785e-14 260.524 58.3201 260.524 130.262L260.524 251.154 278 251.154 242.124 284 206.248 251.154 223.725 251.154 223.725 130.262C223.725 78.6436 181.88 36.7989 130.262 36.7989L130.262 36.7989C78.6437 36.7989 36.7989 78.6436 36.7989 130.262L36.7989 284Z" fill="#007274" fill-rule="evenodd" transform="matrix(-1.83697e-16 -1 -1 1.83697e-16 1013 425)"/><path d="M0.231117 31.9775C0.479862 32.8042-0.395903-2.4444 0.230856 0.134982L56.5306 0.134982C81.2226 0.134982 101.239 21.0363 101.239 46.8195L101.239 85.3564 123 85.3564 85.992 124 48.9839 85.3564 70.7446 85.3564 70.7446 46.8195C70.7446 38.6224 64.3808 31.9774 56.5306 31.9774L0.231117 31.9775Z" fill="#007274" fill-rule="evenodd" transform="matrix(1.83697e-16 1 1 -1.83697e-16 648 245)"/><text font-family="Poppins,Poppins_MSFontService,sans-serif" font-weight="400" font-size="21" transform="translate(821.958 250)">Sprint <tspan font-size="21" x="-21.8334" y="25">1 semaine</tspan></text><path d="M984 388.25 1089.19 388.25 1089.19 376 1130 400.5 1089.19 425 1089.19 412.75 984 412.75Z" fill="#94DCCB" fill-rule="evenodd"/><text font-family="Poppins,Poppins_MSFontService,sans-serif" font-weight="400" font-size="21" transform="translate(1000.7 408)">Livraison</text><g clip-path="url(#clip19)"><g clip-path="url(#clip20)"><g clip-path="url(#clip21)"><path d="M1214 366C1214.55 366 1215 365.552 1215 365 1215 364.448 1214.55 364 1214 364L1179 364 1179 360C1179 359.448 1178.55 359 1178 359 1177.45 359 1177 359.448 1177 360L1177 364 1142 364C1141.45 364 1141 364.448 1141 365 1141 365.552 1141.45 366 1142 366L1146 366 1146 407 1142 407C1141.45 407 1141 407.448 1141 408 1141 408.552 1141.45 409 1142 409L1175.59 409 1157.79 426.793C1157.41 427.19 1157.42 427.823 1157.82 428.207 1158.21 428.581 1158.82 428.581 1159.21 428.207L1176.98 410.431C1176.99 410.427 1176.99 410.427 1177 410.431 1177 410.433 1177 410.435 1177 410.438L1177 431C1177 431.552 1177.45 432 1178 432 1178.55 432 1179 431.552 1179 431L1179 410.438C1179 410.432 1179 410.428 1179.01 410.428 1179.01 410.428 1179.02 410.429 1179.02 410.431L1196.79 428.207C1197.19 428.591 1197.82 428.58 1198.21 428.182 1198.58 427.795 1198.58 427.18 1198.21 426.793L1180.41 409 1214 409C1214.55 409 1215 408.552 1215 408 1215 407.448 1214.55 407 1214 407L1210 407 1210 366ZM1208 407 1148 407 1148 366 1208 366Z"/><path d="M1179 379 1196 379 1196 381 1179 381Z"/><path d="M1179 392 1196 392 1196 394 1179 394Z"/><path d="M1164 382.586 1160.71 379.293 1159.29 380.707 1164 385.414 1172.71 376.707 1171.29 375.293 1164 382.586Z"/><path d="M1164 395.586 1160.71 392.293 1159.29 393.707 1164 398.414 1172.71 389.707 1171.29 388.293 1164 395.586Z"/></g></g></g><text font-family="Poppins,Poppins_MSFontService,sans-serif" font-weight="400" font-size="21" transform="translate(1111.15 468)">Présentation <tspan font-size="21" x="18.9199" y="25">du projet</tspan><tspan font-size="21" x="-539.736" y="-228">Mme BENYOUSSEF</tspan><tspan fill="#FFFFFF" font-size="21" x="-331.97" y="-51">2 mois</tspan></text></g></svg>