<svg width="1280" height="720" xmlns="http://www.w3.org/2000/svg" xmlns:xlink="http://www.w3.org/1999/xlink" overflow="hidden"><defs><clipPath id="clip0"><rect x="0" y="0" width="1280" height="720"/></clipPath><clipPath id="clip1"><rect x="538" y="0" width="204" height="204"/></clipPath><clipPath id="clip2"><rect x="538" y="0" width="204" height="204"/></clipPath><clipPath id="clip3"><rect x="538" y="0" width="204" height="204"/></clipPath></defs><g clip-path="url(#clip0)"><rect x="0" y="0" width="1280" height="720" fill="#FFFFFF"/><g clip-path="url(#clip1)"><g clip-path="url(#clip2)"><g clip-path="url(#clip3)"><path d="M699.5 38.25C699.5 47.6388 672.861 55.25 640 55.25 607.139 55.25 580.5 47.6388 580.5 38.25 580.5 28.8612 607.139 21.25 640 21.25 672.861 21.25 699.5 28.8612 699.5 38.25Z" fill="#A6A6A6"/><path d="M682.5 80.75C679.95 80.75 678.25 79.05 678.25 76.5 678.25 73.95 679.95 72.25 682.5 72.25 685.05 72.25 686.75 73.95 686.75 76.5 686.75 79.05 685.05 80.75 682.5 80.75ZM640 63.75C607.275 63.75 580.5 56.1 580.5 46.75L580.5 80.75C580.5 90.1 607.275 97.75 640 97.75 672.725 97.75 699.5 90.1 699.5 80.75L699.5 46.75C699.5 56.1 672.725 63.75 640 63.75Z" fill="#A6A6A6"/><path d="M682.5 123.25C679.95 123.25 678.25 121.55 678.25 119 678.25 116.45 679.95 114.75 682.5 114.75 685.05 114.75 686.75 116.45 686.75 119 686.75 121.55 685.05 123.25 682.5 123.25ZM640 106.25C607.275 106.25 580.5 98.6 580.5 89.25L580.5 123.25C580.5 132.6 607.275 140.25 640 140.25 672.725 140.25 699.5 132.6 699.5 123.25L699.5 89.25C699.5 98.6 672.725 106.25 640 106.25Z" fill="#A6A6A6"/><path d="M682.5 165.75C679.95 165.75 678.25 164.05 678.25 161.5 678.25 158.95 679.95 157.25 682.5 157.25 685.05 157.25 686.75 158.95 686.75 161.5 686.75 164.05 685.05 165.75 682.5 165.75ZM640 148.75C607.275 148.75 580.5 141.1 580.5 131.75L580.5 165.75C580.5 175.1 607.275 182.75 640 182.75 672.725 182.75 699.5 175.1 699.5 165.75L699.5 131.75C699.5 141.1 672.725 148.75 640 148.75Z" fill="#A6A6A6"/></g></g></g><rect x="564.5" y="209.5" width="152" height="125" stroke="#000000" stroke-miterlimit="8" fill="#FFFFFF"/><text font-family="Calibri,Calibri_MSFontService,sans-serif" font-weight="400" font-size="15" transform="translate(609.009 228)">Utilisateur<tspan font-family="Arial,Arial_MSFontService,sans-serif" font-size="15" x="-35" y="30">•</tspan><tspan font-size="15" x="-17" y="30">Nom utilisateur</tspan></text><path d="M592.009 258.792 622.676 258.792 653.343 258.792 684.009 258.792 684.009 260.792 653.343 260.792 622.676 260.792 592.009 260.792Z" fill-rule="evenodd"/><text font-family="Arial,Arial_MSFontService,sans-serif" font-weight="400" font-size="15" transform="translate(574.009 276)">•<tspan font-family="Calibri,Calibri_MSFontService,sans-serif" font-size="15" x="18" y="0">Mot de passe</tspan><tspan font-size="15" x="0" y="19">•</tspan><tspan font-family="Calibri,Calibri_MSFontService,sans-serif" font-size="15" x="18" y="19">Adresse mail</tspan></text><path d="M360 271.5C360 240.848 400.294 216 450 216 499.706 216 540 240.848 540 271.5 540 302.152 499.706 327 450 327 400.294 327 360 302.152 360 271.5Z" fill="#3AB395" fill-rule="evenodd"/><text fill="#FFFFFF" font-family="Calibri,Calibri_MSFontService,sans-serif" font-weight="400" font-size="11" transform="translate(426.818 240)">Appartenir<tspan font-size="11" x="13.2533" y="23">Date</tspan></text><path d="M440.238 262.927 460.238 262.927 460.238 264.927 440.238 264.927Z" fill="#FFFFFF" fill-rule="evenodd"/><text fill="#FFFFFF" font-family="Calibri,Calibri_MSFontService,sans-serif" font-weight="400" font-size="11" transform="translate(416.572 287)">Nom utilisateur</text><path d="M416.238 287.927 417.238 287.927 417.238 288.927 416.238 288.927ZM418.238 287.927 419.238 287.927 419.238 288.927 418.238 288.927ZM420.238 287.927 421.238 287.927 421.238 288.927 420.238 288.927ZM422.238 287.927 423.238 287.927 423.238 288.927 422.238 288.927ZM424.238 287.927 425.238 287.927 425.238 288.927 424.238 288.927ZM426.238 287.927 427.238 287.927 427.238 288.927 426.238 288.927ZM428.238 287.927 429.238 287.927 429.238 288.927 428.238 288.927ZM430.238 287.927 431.238 287.927 431.238 288.927 430.238 288.927ZM432.238 287.927 433.238 287.927 433.238 288.927 432.238 288.927ZM434.238 287.927 435.238 287.927 435.238 288.927 434.238 288.927ZM436.238 287.927 437.238 287.927 437.238 288.927 436.238 288.927ZM438.238 287.927 439.238 287.927 439.238 288.927 438.238 288.927ZM440.238 287.927 441.238 287.927 441.238 288.927 440.238 288.927ZM442.238 287.927 443.238 287.927 443.238 288.927 442.238 288.927ZM444.238 287.927 445.238 287.927 445.238 288.927 444.238 288.927ZM446.238 287.927 447.238 287.927 447.238 288.927 446.238 288.927ZM448.238 287.927 449.238 287.927 449.238 288.927 448.238 288.927ZM450.238 287.927 451.238 287.927 451.238 288.927 450.238 288.927ZM452.238 287.927 453.238 287.927 453.238 288.927 452.238 288.927ZM454.238 287.927 455.238 287.927 455.238 288.927 454.238 288.927ZM456.238 287.927 457.238 287.927 457.238 288.927 456.238 288.927ZM458.238 287.927 459.238 287.927 459.238 288.927 458.238 288.927ZM460.238 287.927 461.238 287.927 461.238 288.927 460.238 288.927ZM462.238 287.927 463.238 287.927 463.238 288.927 462.238 288.927ZM464.238 287.927 465.238 287.927 465.238 288.927 464.238 288.927ZM466.238 287.927 467.238 287.927 467.238 288.927 466.238 288.927ZM468.238 287.927 469.238 287.927 469.238 288.927 468.238 288.927ZM470.238 287.927 471.238 287.927 471.238 288.927 470.238 288.927ZM472.238 287.927 473.238 287.927 473.238 288.927 472.238 288.927ZM474.238 287.927 475.238 287.927 475.238 288.927 474.238 288.927ZM476.238 287.927 477.238 287.927 477.238 288.927 476.238 288.927ZM478.238 287.927 479.238 287.927 479.238 288.927 478.238 288.927ZM480.238 287.927 481.238 287.927 481.238 288.927 480.238 288.927ZM482.238 287.927 483.238 287.927 483.238 288.927 482.238 288.927Z" fill="#FFFFFF" fill-rule="evenodd"/><text fill="#FFFFFF" font-family="Calibri,Calibri_MSFontService,sans-serif" font-weight="400" font-size="11" transform="translate(417.072 310)">Niveau d’étude</text><path d="M417.238 310.927 418.238 310.927 418.238 311.927 417.238 311.927ZM419.238 310.927 420.238 310.927 420.238 311.927 419.238 311.927ZM421.238 310.927 422.238 310.927 422.238 311.927 421.238 311.927ZM423.238 310.927 424.238 310.927 424.238 311.927 423.238 311.927ZM425.238 310.927 426.238 310.927 426.238 311.927 425.238 311.927ZM427.238 310.927 428.238 310.927 428.238 311.927 427.238 311.927ZM429.238 310.927 430.238 310.927 430.238 311.927 429.238 311.927ZM431.238 310.927 432.238 310.927 432.238 311.927 431.238 311.927ZM433.238 310.927 434.238 310.927 434.238 311.927 433.238 311.927ZM435.238 310.927 436.238 310.927 436.238 311.927 435.238 311.927ZM437.238 310.927 438.238 310.927 438.238 311.927 437.238 311.927ZM439.238 310.927 440.238 310.927 440.238 311.927 439.238 311.927ZM441.238 310.927 442.238 310.927 442.238 311.927 441.238 311.927ZM443.238 310.927 444.238 310.927 444.238 311.927 443.238 311.927ZM445.238 310.927 446.238 310.927 446.238 311.927 445.238 311.927ZM447.238 310.927 448.238 310.927 448.238 311.927 447.238 311.927ZM449.238 310.927 450.238 310.927 450.238 311.927 449.238 311.927ZM451.238 310.927 452.238 310.927 452.238 311.927 451.238 311.927ZM453.238 310.927 454.238 310.927 454.238 311.927 453.238 311.927ZM455.238 310.927 456.238 310.927 456.238 311.927 455.238 311.927ZM457.238 310.927 458.238 310.927 458.238 311.927 457.238 311.927ZM459.238 310.927 460.238 310.927 460.238 311.927 459.238 311.927ZM461.238 310.927 462.238 310.927 462.238 311.927 461.238 311.927ZM463.238 310.927 464.238 310.927 464.238 311.927 463.238 311.927ZM465.238 310.927 466.238 310.927 466.238 311.927 465.238 311.927ZM467.238 310.927 468.238 310.927 468.238 311.927 467.238 311.927ZM469.238 310.927 470.238 310.927 470.238 311.927 469.238 311.927ZM471.238 310.927 472.238 310.927 472.238 311.927 471.238 311.927ZM473.238 310.927 474.238 310.927 474.238 311.927 473.238 311.927ZM475.238 310.927 476.238 310.927 476.238 311.927 475.238 311.927ZM477.238 310.927 478.238 310.927 478.238 311.927 477.238 311.927ZM479.238 310.927 480.238 310.927 480.238 311.927 479.238 311.927ZM481.238 310.927 482.238 310.927 482.238 311.927 481.238 311.927Z" fill="#FFFFFF" fill-rule="evenodd"/><rect x="167.5" y="206.5" width="151" height="132" stroke="#000000" stroke-miterlimit="8" fill="#FFFFFF"/><text font-family="Calibri,Calibri_MSFontService,sans-serif" font-weight="400" font-size="15" transform="translate(197.298 224)">Niveau d’étude<tspan font-family="Arial,Arial_MSFontService,sans-serif" font-size="15" x="-20.4133" y="30">•</tspan><tspan font-size="15" x="-2.41333" y="30">Niveau d’étude</tspan></text><path d="M194.884 255.492 225.218 255.492 255.551 255.492 285.884 255.492 285.884 257.492 255.551 257.492 225.218 257.492 194.884 257.492Z" fill-rule="evenodd"/><text font-family="Arial,Arial_MSFontService,sans-serif" font-weight="400" font-size="15" transform="translate(176.884 272)">•<tspan font-family="Calibri,Calibri_MSFontService,sans-serif" font-size="15" x="18" y="0">Spécialité</tspan><tspan font-size="15" x="0" y="19">•</tspan><tspan font-family="Calibri,Calibri_MSFontService,sans-serif" font-size="15" x="18" y="19">Nom utilisateur</tspan></text><path d="M194.884 293.492 195.884 293.492 195.884 294.492 194.884 294.492ZM196.884 293.492 197.884 293.492 197.884 294.492 196.884 294.492ZM198.884 293.492 199.884 293.492 199.884 294.492 198.884 294.492ZM200.884 293.492 201.884 293.492 201.884 294.492 200.884 294.492ZM202.884 293.492 203.884 293.492 203.884 294.492 202.884 294.492ZM204.884 293.492 205.884 293.492 205.884 294.492 204.884 294.492ZM206.884 293.492 207.884 293.492 207.884 294.492 206.884 294.492ZM208.884 293.492 209.884 293.492 209.884 294.492 208.884 294.492ZM210.884 293.492 211.884 293.492 211.884 294.492 210.884 294.492ZM212.884 293.492 213.884 293.492 213.884 294.492 212.884 294.492ZM214.884 293.492 215.884 293.492 215.884 294.492 214.884 294.492ZM216.884 293.492 217.884 293.492 217.884 294.492 216.884 294.492ZM218.884 293.492 219.884 293.492 219.884 294.492 218.884 294.492ZM220.884 293.492 221.884 293.492 221.884 294.492 220.884 294.492ZM222.884 293.492 223.884 293.492 223.884 294.492 222.884 294.492ZM224.884 293.492 225.884 293.492 225.884 294.492 224.884 294.492ZM226.884 293.492 227.884 293.492 227.884 294.492 226.884 294.492ZM228.884 293.492 229.884 293.492 229.884 294.492 228.884 294.492ZM230.884 293.492 231.884 293.492 231.884 294.492 230.884 294.492ZM232.884 293.492 233.884 293.492 233.884 294.492 232.884 294.492ZM234.884 293.492 235.884 293.492 235.884 294.492 234.884 294.492ZM236.884 293.492 237.884 293.492 237.884 294.492 236.884 294.492ZM238.884 293.492 239.884 293.492 239.884 294.492 238.884 294.492ZM240.884 293.492 241.884 293.492 241.884 294.492 240.884 294.492ZM242.884 293.492 243.884 293.492 243.884 294.492 242.884 294.492ZM244.884 293.492 245.884 293.492 245.884 294.492 244.884 294.492ZM246.884 293.492 247.884 293.492 247.884 294.492 246.884 294.492ZM248.884 293.492 249.884 293.492 249.884 294.492 248.884 294.492ZM250.884 293.492 251.884 293.492 251.884 294.492 250.884 294.492ZM252.884 293.492 253.884 293.492 253.884 294.492 252.884 294.492ZM254.884 293.492 255.884 293.492 255.884 294.492 254.884 294.492ZM256.884 293.492 257.884 293.492 257.884 294.492 256.884 294.492ZM258.884 293.492 259.884 293.492 259.884 294.492 258.884 294.492ZM260.884 293.492 261.884 293.492 261.884 294.492 260.884 294.492ZM262.884 293.492 263.884 293.492 263.884 294.492 262.884 294.492ZM264.884 293.492 265.884 293.492 265.884 294.492 264.884 294.492ZM266.884 293.492 267.884 293.492 267.884 294.492 266.884 294.492ZM268.884 293.492 269.884 293.492 269.884 294.492 268.884 294.492ZM270.884 293.492 271.884 293.492 271.884 294.492 270.884 294.492ZM272.884 293.492 273.884 293.492 273.884 294.492 272.884 294.492ZM274.884 293.492 275.884 293.492 275.884 294.492 274.884 294.492ZM276.884 293.492 277.884 293.492 277.884 294.492 276.884 294.492ZM278.884 293.492 279.884 293.492 279.884 294.492 278.884 294.492ZM280.884 293.492 281.884 293.492 281.884 294.492 280.884 294.492ZM282.884 293.492 283.884 293.492 283.884 294.492 282.884 294.492ZM284.884 293.492 285.884 293.492 285.884 294.492 284.884 294.492Z" fill-rule="evenodd"/><path d="M126 447.5C126 405.802 178.383 372 243 372 307.617 372 360 405.802 360 447.5 360 489.197 307.617 523 243 523 178.383 523 126 489.197 126 447.5Z" fill="#3AB395" fill-rule="evenodd"/><text fill="#FFFFFF" font-family="Calibri,Calibri_MSFontService,sans-serif" font-weight="400" font-size="11" transform="translate(212.955 402)">Correspondre<tspan font-size="11" x="-3.33333" y="25">Niveau d’</tspan><tspan font-size="11" x="37.6667" y="25">etude</tspan></text><path d="M209.875 428.203 210.875 428.203 210.875 429.203 209.875 429.203ZM211.875 428.203 212.875 428.203 212.875 429.203 211.875 429.203ZM213.875 428.203 214.875 428.203 214.875 429.203 213.875 429.203ZM215.875 428.203 216.875 428.203 216.875 429.203 215.875 429.203ZM217.875 428.203 218.875 428.203 218.875 429.203 217.875 429.203ZM219.875 428.203 220.875 428.203 220.875 429.203 219.875 429.203ZM221.875 428.203 222.875 428.203 222.875 429.203 221.875 429.203ZM223.875 428.203 224.875 428.203 224.875 429.203 223.875 429.203ZM225.875 428.203 226.875 428.203 226.875 429.203 225.875 429.203ZM227.875 428.203 228.875 428.203 228.875 429.203 227.875 429.203ZM229.875 428.203 230.875 428.203 230.875 429.203 229.875 429.203ZM231.875 428.203 232.875 428.203 232.875 429.203 231.875 429.203ZM233.875 428.203 234.875 428.203 234.875 429.203 233.875 429.203ZM235.875 428.203 236.875 428.203 236.875 429.203 235.875 429.203ZM237.875 428.203 238.875 428.203 238.875 429.203 237.875 429.203ZM239.875 428.203 240.875 428.203 240.875 429.203 239.875 429.203ZM241.875 428.203 242.875 428.203 242.875 429.203 241.875 429.203ZM243.875 428.203 244.875 428.203 244.875 429.203 243.875 429.203ZM245.875 428.203 246.875 428.203 246.875 429.203 245.875 429.203ZM247.875 428.203 248.875 428.203 248.875 429.203 247.875 429.203ZM249.875 428.203 250.875 428.203 250.875 429.203 249.875 429.203ZM251.875 428.203 252.875 428.203 252.875 429.203 251.875 429.203ZM253.875 428.203 254.875 428.203 254.875 429.203 253.875 429.203ZM255.875 428.203 256.875 428.203 256.875 429.203 255.875 429.203ZM257.875 428.203 258.875 428.203 258.875 429.203 257.875 429.203ZM259.875 428.203 260.875 428.203 260.875 429.203 259.875 429.203ZM261.875 428.203 262.875 428.203 262.875 429.203 261.875 429.203ZM263.875 428.203 264.875 428.203 264.875 429.203 263.875 429.203ZM265.875 428.203 266.875 428.203 266.875 429.203 265.875 429.203ZM267.875 428.203 268.875 428.203 268.875 429.203 267.875 429.203ZM269.875 428.203 270.875 428.203 270.875 429.203 269.875 429.203ZM271.875 428.203 272.875 428.203 272.875 429.203 271.875 429.203ZM273.875 428.203 274.875 428.203 274.875 429.203 273.875 429.203Z" fill="#FFFFFF" fill-rule="evenodd"/><text fill="#FFFFFF" font-family="Calibri,Calibri_MSFontService,sans-serif" font-weight="400" font-size="11" transform="translate(221.955 451)">Spécialité</text><path d="M221.875 452.203 222.875 452.203 222.875 453.203 221.875 453.203ZM223.875 452.203 224.875 452.203 224.875 453.203 223.875 453.203ZM225.875 452.203 226.875 452.203 226.875 453.203 225.875 453.203ZM227.875 452.203 228.875 452.203 228.875 453.203 227.875 453.203ZM229.875 452.203 230.875 452.203 230.875 453.203 229.875 453.203ZM231.875 452.203 232.875 452.203 232.875 453.203 231.875 453.203ZM233.875 452.203 234.875 452.203 234.875 453.203 233.875 453.203ZM235.875 452.203 236.875 452.203 236.875 453.203 235.875 453.203ZM237.875 452.203 238.875 452.203 238.875 453.203 237.875 453.203ZM239.875 452.203 240.875 452.203 240.875 453.203 239.875 453.203ZM241.875 452.203 242.875 452.203 242.875 453.203 241.875 453.203ZM243.875 452.203 244.875 452.203 244.875 453.203 243.875 453.203ZM245.875 452.203 246.875 452.203 246.875 453.203 245.875 453.203ZM247.875 452.203 248.875 452.203 248.875 453.203 247.875 453.203ZM249.875 452.203 250.875 452.203 250.875 453.203 249.875 453.203ZM251.875 452.203 252.875 452.203 252.875 453.203 251.875 453.203ZM253.875 452.203 254.875 452.203 254.875 453.203 253.875 453.203ZM255.875 452.203 256.875 452.203 256.875 453.203 255.875 453.203ZM257.875 452.203 258.875 452.203 258.875 453.203 257.875 453.203ZM259.875 452.203 260.875 452.203 260.875 453.203 259.875 453.203ZM261.875 452.203 262.875 452.203 262.875 453.203 261.875 453.203Z" fill="#FFFFFF" fill-rule="evenodd"/><text fill="#FFFFFF" font-family="Calibri,Calibri_MSFontService,sans-serif" font-weight="400" font-size="11" transform="translate(199.542 475)">Coefficient_matière</text><path d="M199.875 476.203 200.875 476.203 200.875 477.203 199.875 477.203ZM201.875 476.203 202.875 476.203 202.875 477.203 201.875 477.203ZM203.875 476.203 204.875 476.203 204.875 477.203 203.875 477.203ZM205.875 476.203 206.875 476.203 206.875 477.203 205.875 477.203ZM207.875 476.203 208.875 476.203 208.875 477.203 207.875 477.203ZM209.875 476.203 210.875 476.203 210.875 477.203 209.875 477.203ZM211.875 476.203 212.875 476.203 212.875 477.203 211.875 477.203ZM213.875 476.203 214.875 476.203 214.875 477.203 213.875 477.203ZM215.875 476.203 216.875 476.203 216.875 477.203 215.875 477.203ZM217.875 476.203 218.875 476.203 218.875 477.203 217.875 477.203ZM219.875 476.203 220.875 476.203 220.875 477.203 219.875 477.203ZM221.875 476.203 222.875 476.203 222.875 477.203 221.875 477.203ZM223.875 476.203 224.875 476.203 224.875 477.203 223.875 477.203ZM225.875 476.203 226.875 476.203 226.875 477.203 225.875 477.203ZM227.875 476.203 228.875 476.203 228.875 477.203 227.875 477.203ZM229.875 476.203 230.875 476.203 230.875 477.203 229.875 477.203ZM231.875 476.203 232.875 476.203 232.875 477.203 231.875 477.203ZM233.875 476.203 234.875 476.203 234.875 477.203 233.875 477.203ZM235.875 476.203 236.875 476.203 236.875 477.203 235.875 477.203ZM237.875 476.203 238.875 476.203 238.875 477.203 237.875 477.203ZM239.875 476.203 240.875 476.203 240.875 477.203 239.875 477.203ZM241.875 476.203 242.875 476.203 242.875 477.203 241.875 477.203ZM243.875 476.203 244.875 476.203 244.875 477.203 243.875 477.203ZM245.875 476.203 246.875 476.203 246.875 477.203 245.875 477.203ZM247.875 476.203 248.875 476.203 248.875 477.203 247.875 477.203ZM249.875 476.203 250.875 476.203 250.875 477.203 249.875 477.203ZM251.875 476.203 252.875 476.203 252.875 477.203 251.875 477.203ZM253.875 476.203 254.875 476.203 254.875 477.203 253.875 477.203ZM255.875 476.203 256.875 476.203 256.875 477.203 255.875 477.203ZM257.875 476.203 258.875 476.203 258.875 477.203 257.875 477.203ZM259.875 476.203 260.875 476.203 260.875 477.203 259.875 477.203ZM261.875 476.203 262.875 476.203 262.875 477.203 261.875 477.203ZM263.875 476.203 264.875 476.203 264.875 477.203 263.875 477.203ZM265.875 476.203 266.875 476.203 266.875 477.203 265.875 477.203ZM267.875 476.203 268.875 476.203 268.875 477.203 267.875 477.203ZM269.875 476.203 270.875 476.203 270.875 477.203 269.875 477.203ZM271.875 476.203 272.875 476.203 272.875 477.203 271.875 477.203ZM273.875 476.203 274.875 476.203 274.875 477.203 273.875 477.203ZM275.875 476.203 276.875 476.203 276.875 477.203 275.875 477.203ZM277.875 476.203 278.875 476.203 278.875 477.203 277.875 477.203ZM279.875 476.203 280.875 476.203 280.875 477.203 279.875 477.203ZM281.875 476.203 282.875 476.203 282.875 477.203 281.875 477.203ZM283.875 476.203 284.875 476.203 284.875 477.203 283.875 477.203Z" fill="#FFFFFF" fill-rule="evenodd"/><text fill="#FFFFFF" font-family="Calibri,Calibri_MSFontService,sans-serif" font-weight="400" font-size="11" transform="translate(206.875 500)">Coefficient_type</text><path d="M206.875 501.203 207.875 501.203 207.875 502.203 206.875 502.203ZM208.875 501.203 209.875 501.203 209.875 502.203 208.875 502.203ZM210.875 501.203 211.875 501.203 211.875 502.203 210.875 502.203ZM212.875 501.203 213.875 501.203 213.875 502.203 212.875 502.203ZM214.875 501.203 215.875 501.203 215.875 502.203 214.875 502.203ZM216.875 501.203 217.875 501.203 217.875 502.203 216.875 502.203ZM218.875 501.203 219.875 501.203 219.875 502.203 218.875 502.203ZM220.875 501.203 221.875 501.203 221.875 502.203 220.875 502.203ZM222.875 501.203 223.875 501.203 223.875 502.203 222.875 502.203ZM224.875 501.203 225.875 501.203 225.875 502.203 224.875 502.203ZM226.875 501.203 227.875 501.203 227.875 502.203 226.875 502.203ZM228.875 501.203 229.875 501.203 229.875 502.203 228.875 502.203ZM230.875 501.203 231.875 501.203 231.875 502.203 230.875 502.203ZM232.875 501.203 233.875 501.203 233.875 502.203 232.875 502.203ZM234.875 501.203 235.875 501.203 235.875 502.203 234.875 502.203ZM236.875 501.203 237.875 501.203 237.875 502.203 236.875 502.203ZM238.875 501.203 239.875 501.203 239.875 502.203 238.875 502.203ZM240.875 501.203 241.875 501.203 241.875 502.203 240.875 502.203ZM242.875 501.203 243.875 501.203 243.875 502.203 242.875 502.203ZM244.875 501.203 245.875 501.203 245.875 502.203 244.875 502.203ZM246.875 501.203 247.875 501.203 247.875 502.203 246.875 502.203ZM248.875 501.203 249.875 501.203 249.875 502.203 248.875 502.203ZM250.875 501.203 251.875 501.203 251.875 502.203 250.875 502.203ZM252.875 501.203 253.875 501.203 253.875 502.203 252.875 502.203ZM254.875 501.203 255.875 501.203 255.875 502.203 254.875 502.203ZM256.875 501.203 257.875 501.203 257.875 502.203 256.875 502.203ZM258.875 501.203 259.875 501.203 259.875 502.203 258.875 502.203ZM260.875 501.203 261.875 501.203 261.875 502.203 260.875 502.203ZM262.875 501.203 263.875 501.203 263.875 502.203 262.875 502.203ZM264.875 501.203 265.875 501.203 265.875 502.203 264.875 502.203ZM266.875 501.203 267.875 501.203 267.875 502.203 266.875 502.203ZM268.875 501.203 269.875 501.203 269.875 502.203 268.875 502.203ZM270.875 501.203 271.875 501.203 271.875 502.203 270.875 502.203ZM272.875 501.203 273.875 501.203 273.875 502.203 272.875 502.203ZM274.875 501.203 275.875 501.203 275.875 502.203 274.875 502.203ZM276.875 501.203 277.875 501.203 277.875 502.203 276.875 502.203Z" fill="#FFFFFF" fill-rule="evenodd"/><rect x="154.5" y="546.5" width="178" height="97" stroke="#000000" stroke-miterlimit="8" fill="#FFFFFF"/><text font-family="Arial,Arial_MSFontService,sans-serif" font-weight="400" font-size="15" transform="translate(163.239 565)">•<tspan font-family="Calibri,Calibri_MSFontService,sans-serif" font-size="15" x="18" y="0">Coefficients matière</tspan><tspan font-size="15" x="0" y="17">•</tspan><tspan font-family="Calibri,Calibri_MSFontService,sans-serif" font-size="15" x="18" y="17">Matière</tspan><tspan font-size="15" x="0" y="35">•</tspan><tspan font-family="Calibri,Calibri_MSFontService,sans-serif" font-size="15" x="18" y="35">Coefficient_matière</tspan></text><path d="M181.239 600.555 220.905 600.555 260.572 600.555 300.239 600.555 300.239 602.555 260.572 602.555 220.905 602.555 181.239 602.555Z" fill-rule="evenodd"/><text font-family="Arial,Arial_MSFontService,sans-serif" font-weight="400" font-size="15" transform="translate(163.239 618)">•<tspan font-family="Calibri,Calibri_MSFontService,sans-serif" font-size="15" x="18" y="0">Niveau d’</tspan><tspan font-family="Calibri,Calibri_MSFontService,sans-serif" font-size="15" x="74.1667" y="0">etude</tspan></text><path d="M181.239 619.555 182.239 619.555 182.239 620.555 181.239 620.555ZM183.239 619.555 184.239 619.555 184.239 620.555 183.239 620.555ZM185.239 619.555 186.239 619.555 186.239 620.555 185.239 620.555ZM187.239 619.555 188.239 619.555 188.239 620.555 187.239 620.555ZM189.239 619.555 190.239 619.555 190.239 620.555 189.239 620.555ZM191.239 619.555 192.239 619.555 192.239 620.555 191.239 620.555ZM193.239 619.555 194.239 619.555 194.239 620.555 193.239 620.555ZM195.239 619.555 196.239 619.555 196.239 620.555 195.239 620.555ZM197.239 619.555 198.239 619.555 198.239 620.555 197.239 620.555ZM199.239 619.555 200.239 619.555 200.239 620.555 199.239 620.555ZM201.239 619.555 202.239 619.555 202.239 620.555 201.239 620.555ZM203.239 619.555 204.239 619.555 204.239 620.555 203.239 620.555ZM205.239 619.555 206.239 619.555 206.239 620.555 205.239 620.555ZM207.239 619.555 208.239 619.555 208.239 620.555 207.239 620.555ZM209.239 619.555 210.239 619.555 210.239 620.555 209.239 620.555ZM211.239 619.555 212.239 619.555 212.239 620.555 211.239 620.555ZM213.239 619.555 214.239 619.555 214.239 620.555 213.239 620.555ZM215.239 619.555 216.239 619.555 216.239 620.555 215.239 620.555ZM217.239 619.555 218.239 619.555 218.239 620.555 217.239 620.555ZM219.239 619.555 220.239 619.555 220.239 620.555 219.239 620.555ZM221.239 619.555 222.239 619.555 222.239 620.555 221.239 620.555ZM223.239 619.555 224.239 619.555 224.239 620.555 223.239 620.555ZM225.239 619.555 226.239 619.555 226.239 620.555 225.239 620.555ZM227.239 619.555 228.239 619.555 228.239 620.555 227.239 620.555ZM229.239 619.555 230.239 619.555 230.239 620.555 229.239 620.555ZM231.239 619.555 232.239 619.555 232.239 620.555 231.239 620.555ZM233.239 619.555 234.239 619.555 234.239 620.555 233.239 620.555ZM235.239 619.555 236.239 619.555 236.239 620.555 235.239 620.555ZM237.239 619.555 238.239 619.555 238.239 620.555 237.239 620.555ZM239.239 619.555 240.239 619.555 240.239 620.555 239.239 620.555ZM241.239 619.555 242.239 619.555 242.239 620.555 241.239 620.555ZM243.239 619.555 244.239 619.555 244.239 620.555 243.239 620.555ZM245.239 619.555 246.239 619.555 246.239 620.555 245.239 620.555ZM247.239 619.555 248.239 619.555 248.239 620.555 247.239 620.555ZM249.239 619.555 250.239 619.555 250.239 620.555 249.239 620.555ZM251.239 619.555 252.239 619.555 252.239 620.555 251.239 620.555ZM253.239 619.555 254.239 619.555 254.239 620.555 253.239 620.555ZM255.239 619.555 256.239 619.555 256.239 620.555 255.239 620.555ZM257.239 619.555 258.239 619.555 258.239 620.555 257.239 620.555ZM259.239 619.555 260.239 619.555 260.239 620.555 259.239 620.555ZM261.239 619.555 262.239 619.555 262.239 620.555 261.239 620.555ZM263.239 619.555 264.239 619.555 264.239 620.555 263.239 620.555ZM265.239 619.555 266.239 619.555 266.239 620.555 265.239 620.555ZM267.239 619.555 268.239 619.555 268.239 620.555 267.239 620.555ZM269.239 619.555 270.239 619.555 270.239 620.555 269.239 620.555ZM271.239 619.555 272.239 619.555 272.239 620.555 271.239 620.555Z" fill-rule="evenodd"/><text font-family="Arial,Arial_MSFontService,sans-serif" font-weight="400" font-size="15" transform="translate(163.239 635)">•<tspan font-family="Calibri,Calibri_MSFontService,sans-serif" font-size="15" x="18" y="0">Spécialité</tspan></text><path d="M181.239 636.555 182.239 636.555 182.239 637.555 181.239 637.555ZM183.239 636.555 184.239 636.555 184.239 637.555 183.239 637.555ZM185.239 636.555 186.239 636.555 186.239 637.555 185.239 637.555ZM187.239 636.555 188.239 636.555 188.239 637.555 187.239 637.555ZM189.239 636.555 190.239 636.555 190.239 637.555 189.239 637.555ZM191.239 636.555 192.239 636.555 192.239 637.555 191.239 637.555ZM193.239 636.555 194.239 636.555 194.239 637.555 193.239 637.555ZM195.239 636.555 196.239 636.555 196.239 637.555 195.239 637.555ZM197.239 636.555 198.239 636.555 198.239 637.555 197.239 637.555ZM199.239 636.555 200.239 636.555 200.239 637.555 199.239 637.555ZM201.239 636.555 202.239 636.555 202.239 637.555 201.239 637.555ZM203.239 636.555 204.239 636.555 204.239 637.555 203.239 637.555ZM205.239 636.555 206.239 636.555 206.239 637.555 205.239 637.555ZM207.239 636.555 208.239 636.555 208.239 637.555 207.239 637.555ZM209.239 636.555 210.239 636.555 210.239 637.555 209.239 637.555ZM211.239 636.555 212.239 636.555 212.239 637.555 211.239 637.555ZM213.239 636.555 214.239 636.555 214.239 637.555 213.239 637.555ZM215.239 636.555 216.239 636.555 216.239 637.555 215.239 637.555ZM217.239 636.555 218.239 636.555 218.239 637.555 217.239 637.555ZM219.239 636.555 220.239 636.555 220.239 637.555 219.239 637.555ZM221.239 636.555 222.239 636.555 222.239 637.555 221.239 637.555ZM223.239 636.555 224.239 636.555 224.239 637.555 223.239 637.555ZM225.239 636.555 226.239 636.555 226.239 637.555 225.239 637.555ZM227.239 636.555 228.239 636.555 228.239 637.555 227.239 637.555ZM229.239 636.555 230.239 636.555 230.239 637.555 229.239 637.555ZM231.239 636.555 232.239 636.555 232.239 637.555 231.239 637.555ZM233.239 636.555 234.239 636.555 234.239 637.555 233.239 637.555ZM235.239 636.555 236.239 636.555 236.239 637.555 235.239 637.555ZM237.239 636.555 238.239 636.555 238.239 637.555 237.239 637.555Z" fill-rule="evenodd"/><rect x="737.5" y="546.5" width="171" height="97" stroke="#000000" stroke-miterlimit="8" fill="#FFFFFF"/><text font-family="Calibri,Calibri_MSFontService,sans-serif" font-weight="400" font-size="15" transform="translate(746.238 565)">Coefficients type<tspan font-family="Arial,Arial_MSFontService,sans-serif" font-size="15" x="0" y="19">•</tspan><tspan font-size="15" x="18" y="19">Type</tspan><tspan font-family="Arial,Arial_MSFontService,sans-serif" font-size="15" x="0" y="38">•</tspan><tspan font-size="15" x="18" y="38">Coefficient_type</tspan></text><path d="M764.238 603.555 796.904 603.555 829.571 603.555 862.238 603.555 862.238 605.555 829.571 605.555 796.904 605.555 764.238 605.555Z" fill-rule="evenodd"/><text font-family="Arial,Arial_MSFontService,sans-serif" font-weight="400" font-size="15" transform="translate(746.238 622)">•<tspan font-family="Calibri,Calibri_MSFontService,sans-serif" font-size="15" x="18" y="0">Coefficient_matière</tspan></text><path d="M764.238 623.555 765.238 623.555 765.238 624.555 764.238 624.555ZM766.238 623.555 767.238 623.555 767.238 624.555 766.238 624.555ZM768.238 623.555 769.238 623.555 769.238 624.555 768.238 624.555ZM770.238 623.555 771.238 623.555 771.238 624.555 770.238 624.555ZM772.238 623.555 773.238 623.555 773.238 624.555 772.238 624.555ZM774.238 623.555 775.238 623.555 775.238 624.555 774.238 624.555ZM776.238 623.555 777.238 623.555 777.238 624.555 776.238 624.555ZM778.238 623.555 779.238 623.555 779.238 624.555 778.238 624.555ZM780.238 623.555 781.238 623.555 781.238 624.555 780.238 624.555ZM782.238 623.555 783.238 623.555 783.238 624.555 782.238 624.555ZM784.238 623.555 785.238 623.555 785.238 624.555 784.238 624.555ZM786.238 623.555 787.238 623.555 787.238 624.555 786.238 624.555ZM788.238 623.555 789.238 623.555 789.238 624.555 788.238 624.555ZM790.238 623.555 791.238 623.555 791.238 624.555 790.238 624.555ZM792.238 623.555 793.238 623.555 793.238 624.555 792.238 624.555ZM794.238 623.555 795.238 623.555 795.238 624.555 794.238 624.555ZM796.238 623.555 797.238 623.555 797.238 624.555 796.238 624.555ZM798.238 623.555 799.238 623.555 799.238 624.555 798.238 624.555ZM800.238 623.555 801.238 623.555 801.238 624.555 800.238 624.555ZM802.238 623.555 803.238 623.555 803.238 624.555 802.238 624.555ZM804.238 623.555 805.238 623.555 805.238 624.555 804.238 624.555ZM806.238 623.555 807.238 623.555 807.238 624.555 806.238 624.555ZM808.238 623.555 809.238 623.555 809.238 624.555 808.238 624.555ZM810.238 623.555 811.238 623.555 811.238 624.555 810.238 624.555ZM812.238 623.555 813.238 623.555 813.238 624.555 812.238 624.555ZM814.238 623.555 815.238 623.555 815.238 624.555 814.238 624.555ZM816.238 623.555 817.238 623.555 817.238 624.555 816.238 624.555ZM818.238 623.555 819.238 623.555 819.238 624.555 818.238 624.555ZM820.238 623.555 821.238 623.555 821.238 624.555 820.238 624.555ZM822.238 623.555 823.238 623.555 823.238 624.555 822.238 624.555ZM824.238 623.555 825.238 623.555 825.238 624.555 824.238 624.555ZM826.238 623.555 827.238 623.555 827.238 624.555 826.238 624.555ZM828.238 623.555 829.238 623.555 829.238 624.555 828.238 624.555ZM830.238 623.555 831.238 623.555 831.238 624.555 830.238 624.555ZM832.238 623.555 833.238 623.555 833.238 624.555 832.238 624.555ZM834.238 623.555 835.238 623.555 835.238 624.555 834.238 624.555ZM836.238 623.555 837.238 623.555 837.238 624.555 836.238 624.555ZM838.238 623.555 839.238 623.555 839.238 624.555 838.238 624.555ZM840.238 623.555 841.238 623.555 841.238 624.555 840.238 624.555ZM842.238 623.555 843.238 623.555 843.238 624.555 842.238 624.555ZM844.238 623.555 845.238 623.555 845.238 624.555 844.238 624.555ZM846.238 623.555 847.238 623.555 847.238 624.555 846.238 624.555ZM848.238 623.555 849.238 623.555 849.238 624.555 848.238 624.555ZM850.238 623.555 851.238 623.555 851.238 624.555 850.238 624.555ZM852.238 623.555 853.238 623.555 853.238 624.555 852.238 624.555ZM854.238 623.555 855.238 623.555 855.238 624.555 854.238 624.555ZM856.238 623.555 857.238 623.555 857.238 624.555 856.238 624.555ZM858.238 623.555 859.238 623.555 859.238 624.555 858.238 624.555ZM860.238 623.555 861.238 623.555 861.238 624.555 860.238 624.555ZM862.238 623.555 863.238 623.555 863.238 624.555 862.238 624.555ZM864.238 623.555 865.238 623.555 865.238 624.555 864.238 624.555ZM866.238 623.555 867.238 623.555 867.238 624.555 866.238 624.555ZM868.238 623.555 869.238 623.555 869.238 624.555 868.238 624.555ZM870.238 623.555 871.238 623.555 871.238 624.555 870.238 624.555ZM872.238 623.555 873.238 623.555 873.238 624.555 872.238 624.555ZM874.238 623.555 875.238 623.555 875.238 624.555 874.238 624.555ZM876.238 623.555 877.238 623.555 877.238 624.555 876.238 624.555ZM878.238 623.555 879.238 623.555 879.238 624.555 878.238 624.555ZM880.238 623.555 881.238 623.555 881.238 624.555 880.238 624.555ZM882.238 623.555 883.238 623.555 883.238 624.555 882.238 624.555Z" fill-rule="evenodd"/><rect x="980.5" y="205.5" width="151" height="133" stroke="#000000" stroke-miterlimit="8" fill="#FFFFFF"/><text font-family="Calibri,Calibri_MSFontService,sans-serif" font-weight="400" font-size="15" transform="translate(1037.93 224)">Notes<tspan font-family="Arial,Arial_MSFontService,sans-serif" font-size="15" x="-48.4133" y="29">•</tspan><tspan font-size="15" x="-30.4133" y="29">Intitulé note</tspan></text><path d="M1007.51 254.186 1032.18 254.186 1056.85 254.186 1081.51 254.186 1081.51 256.186 1056.85 256.186 1032.18 256.186 1007.51 256.186Z" fill-rule="evenodd"/><text font-family="Arial,Arial_MSFontService,sans-serif" font-weight="400" font-size="15" transform="translate(989.512 271)">•<tspan font-family="Calibri,Calibri_MSFontService,sans-serif" font-size="15" x="18" y="0">Note</tspan><tspan font-size="15" x="0" y="17">•</tspan><tspan font-family="Calibri,Calibri_MSFontService,sans-serif" font-size="15" x="18" y="17">Matière </tspan></text><path d="M1007.51 290.186 1008.51 290.186 1008.51 291.186 1007.51 291.186ZM1009.51 290.186 1010.51 290.186 1010.51 291.186 1009.51 291.186ZM1011.51 290.186 1012.51 290.186 1012.51 291.186 1011.51 291.186ZM1013.51 290.186 1014.51 290.186 1014.51 291.186 1013.51 291.186ZM1015.51 290.186 1016.51 290.186 1016.51 291.186 1015.51 291.186ZM1017.51 290.186 1018.51 290.186 1018.51 291.186 1017.51 291.186ZM1019.51 290.186 1020.51 290.186 1020.51 291.186 1019.51 291.186ZM1021.51 290.186 1022.51 290.186 1022.51 291.186 1021.51 291.186ZM1023.51 290.186 1024.51 290.186 1024.51 291.186 1023.51 291.186ZM1025.51 290.186 1026.51 290.186 1026.51 291.186 1025.51 291.186ZM1027.51 290.186 1028.51 290.186 1028.51 291.186 1027.51 291.186ZM1029.51 290.186 1030.51 290.186 1030.51 291.186 1029.51 291.186ZM1031.51 290.186 1032.51 290.186 1032.51 291.186 1031.51 291.186ZM1033.51 290.186 1034.51 290.186 1034.51 291.186 1033.51 291.186ZM1035.51 290.186 1036.51 290.186 1036.51 291.186 1035.51 291.186ZM1037.51 290.186 1038.51 290.186 1038.51 291.186 1037.51 291.186ZM1039.51 290.186 1040.51 290.186 1040.51 291.186 1039.51 291.186ZM1041.51 290.186 1042.51 290.186 1042.51 291.186 1041.51 291.186ZM1043.51 290.186 1044.51 290.186 1044.51 291.186 1043.51 291.186ZM1045.51 290.186 1046.51 290.186 1046.51 291.186 1045.51 291.186ZM1047.51 290.186 1048.51 290.186 1048.51 291.186 1047.51 291.186ZM1049.51 290.186 1050.51 290.186 1050.51 291.186 1049.51 291.186ZM1051.51 290.186 1052.51 290.186 1052.51 291.186 1051.51 291.186ZM1053.51 290.186 1054.51 290.186 1054.51 291.186 1053.51 291.186Z" fill-rule="evenodd"/><text font-family="Arial,Arial_MSFontService,sans-serif" font-weight="400" font-size="15" transform="translate(989.512 306)">•<tspan font-family="Calibri,Calibri_MSFontService,sans-serif" font-size="15" x="18" y="0">Type</tspan></text><path d="M1007.51 308.186 1008.51 308.186 1008.51 309.186 1007.51 309.186ZM1009.51 308.186 1010.51 308.186 1010.51 309.186 1009.51 309.186ZM1011.51 308.186 1012.51 308.186 1012.51 309.186 1011.51 309.186ZM1013.51 308.186 1014.51 308.186 1014.51 309.186 1013.51 309.186ZM1015.51 308.186 1016.51 308.186 1016.51 309.186 1015.51 309.186ZM1017.51 308.186 1018.51 308.186 1018.51 309.186 1017.51 309.186ZM1019.51 308.186 1020.51 308.186 1020.51 309.186 1019.51 309.186ZM1021.51 308.186 1022.51 308.186 1022.51 309.186 1021.51 309.186ZM1023.51 308.186 1024.51 308.186 1024.51 309.186 1023.51 309.186ZM1025.51 308.186 1026.51 308.186 1026.51 309.186 1025.51 309.186ZM1027.51 308.186 1028.51 308.186 1028.51 309.186 1027.51 309.186ZM1029.51 308.186 1030.51 308.186 1030.51 309.186 1029.51 309.186ZM1031.51 308.186 1032.51 308.186 1032.51 309.186 1031.51 309.186ZM1033.51 308.186 1034.51 308.186 1034.51 309.186 1033.51 309.186ZM1035.51 308.186 1036.51 308.186 1036.51 309.186 1035.51 309.186Z" fill-rule="evenodd"/><text font-family="Arial,Arial_MSFontService,sans-serif" font-weight="400" font-size="15" transform="translate(989.512 324)">•<tspan font-family="Calibri,Calibri_MSFontService,sans-serif" font-size="15" x="18" y="0">Nom utilisateur</tspan></text><path d="M1007.51 326.186 1008.51 326.186 1008.51 327.186 1007.51 327.186ZM1009.51 326.186 1010.51 326.186 1010.51 327.186 1009.51 327.186ZM1011.51 326.186 1012.51 326.186 1012.51 327.186 1011.51 327.186ZM1013.51 326.186 1014.51 326.186 1014.51 327.186 1013.51 327.186ZM1015.51 326.186 1016.51 326.186 1016.51 327.186 1015.51 327.186ZM1017.51 326.186 1018.51 326.186 1018.51 327.186 1017.51 327.186ZM1019.51 326.186 1020.51 326.186 1020.51 327.186 1019.51 327.186ZM1021.51 326.186 1022.51 326.186 1022.51 327.186 1021.51 327.186ZM1023.51 326.186 1024.51 326.186 1024.51 327.186 1023.51 327.186ZM1025.51 326.186 1026.51 326.186 1026.51 327.186 1025.51 327.186ZM1027.51 326.186 1028.51 326.186 1028.51 327.186 1027.51 327.186ZM1029.51 326.186 1030.51 326.186 1030.51 327.186 1029.51 327.186ZM1031.51 326.186 1032.51 326.186 1032.51 327.186 1031.51 327.186ZM1033.51 326.186 1034.51 326.186 1034.51 327.186 1033.51 327.186ZM1035.51 326.186 1036.51 326.186 1036.51 327.186 1035.51 327.186ZM1037.51 326.186 1038.51 326.186 1038.51 327.186 1037.51 327.186ZM1039.51 326.186 1040.51 326.186 1040.51 327.186 1039.51 327.186ZM1041.51 326.186 1042.51 326.186 1042.51 327.186 1041.51 327.186ZM1043.51 326.186 1044.51 326.186 1044.51 327.186 1043.51 327.186ZM1045.51 326.186 1046.51 326.186 1046.51 327.186 1045.51 327.186ZM1047.51 326.186 1048.51 326.186 1048.51 327.186 1047.51 327.186ZM1049.51 326.186 1050.51 326.186 1050.51 327.186 1049.51 327.186ZM1051.51 326.186 1052.51 326.186 1052.51 327.186 1051.51 327.186ZM1053.51 326.186 1054.51 326.186 1054.51 327.186 1053.51 327.186ZM1055.51 326.186 1056.51 326.186 1056.51 327.186 1055.51 327.186ZM1057.51 326.186 1058.51 326.186 1058.51 327.186 1057.51 327.186ZM1059.51 326.186 1060.51 326.186 1060.51 327.186 1059.51 327.186ZM1061.51 326.186 1062.51 326.186 1062.51 327.186 1061.51 327.186ZM1063.51 326.186 1064.51 326.186 1064.51 327.186 1063.51 327.186ZM1065.51 326.186 1066.51 326.186 1066.51 327.186 1065.51 327.186ZM1067.51 326.186 1068.51 326.186 1068.51 327.186 1067.51 327.186ZM1069.51 326.186 1070.51 326.186 1070.51 327.186 1069.51 327.186ZM1071.51 326.186 1072.51 326.186 1072.51 327.186 1071.51 327.186ZM1073.51 326.186 1074.51 326.186 1074.51 327.186 1073.51 327.186ZM1075.51 326.186 1076.51 326.186 1076.51 327.186 1075.51 327.186ZM1077.51 326.186 1078.51 326.186 1078.51 327.186 1077.51 327.186ZM1079.51 326.186 1080.51 326.186 1080.51 327.186 1079.51 327.186ZM1081.51 326.186 1082.51 326.186 1082.51 327.186 1081.51 327.186ZM1083.51 326.186 1084.51 326.186 1084.51 327.186 1083.51 327.186ZM1085.51 326.186 1086.51 326.186 1086.51 327.186 1085.51 327.186ZM1087.51 326.186 1088.51 326.186 1088.51 327.186 1087.51 327.186ZM1089.51 326.186 1090.51 326.186 1090.51 327.186 1089.51 327.186ZM1091.51 326.186 1092.51 326.186 1092.51 327.186 1091.51 327.186ZM1093.51 326.186 1094.51 326.186 1094.51 327.186 1093.51 327.186ZM1095.51 326.186 1096.51 326.186 1096.51 327.186 1095.51 327.186ZM1097.51 326.186 1098.51 326.186 1098.51 327.186 1097.51 327.186Z" fill-rule="evenodd"/><path d="M758 272C758 239.967 798.294 214 848 214 897.706 214 938 239.967 938 272 938 304.033 897.706 330 848 330 798.294 330 758 304.033 758 272Z" fill="#3AB395" fill-rule="evenodd"/><text fill="#FFFFFF" font-family="Calibri,Calibri_MSFontService,sans-serif" font-weight="400" font-size="11" transform="translate(831.081 238)">Obtenir<tspan font-size="11" x="6.41998" y="25">Date</tspan></text><path d="M837.668 263.487 857.668 263.487 857.668 265.487 837.668 265.487Z" fill="#FFFFFF" fill-rule="evenodd"/><text fill="#FFFFFF" font-family="Calibri,Calibri_MSFontService,sans-serif" font-weight="400" font-size="11" transform="translate(814.001 287)">Nom utilisateur</text><path d="M813.668 288.487 814.668 288.487 814.668 289.487 813.668 289.487ZM815.668 288.487 816.668 288.487 816.668 289.487 815.668 289.487ZM817.668 288.487 818.668 288.487 818.668 289.487 817.668 289.487ZM819.668 288.487 820.668 288.487 820.668 289.487 819.668 289.487ZM821.668 288.487 822.668 288.487 822.668 289.487 821.668 289.487ZM823.668 288.487 824.668 288.487 824.668 289.487 823.668 289.487ZM825.668 288.487 826.668 288.487 826.668 289.487 825.668 289.487ZM827.668 288.487 828.668 288.487 828.668 289.487 827.668 289.487ZM829.668 288.487 830.668 288.487 830.668 289.487 829.668 289.487ZM831.668 288.487 832.668 288.487 832.668 289.487 831.668 289.487ZM833.668 288.487 834.668 288.487 834.668 289.487 833.668 289.487ZM835.668 288.487 836.668 288.487 836.668 289.487 835.668 289.487ZM837.668 288.487 838.668 288.487 838.668 289.487 837.668 289.487ZM839.668 288.487 840.668 288.487 840.668 289.487 839.668 289.487ZM841.668 288.487 842.668 288.487 842.668 289.487 841.668 289.487ZM843.668 288.487 844.668 288.487 844.668 289.487 843.668 289.487ZM845.668 288.487 846.668 288.487 846.668 289.487 845.668 289.487ZM847.668 288.487 848.668 288.487 848.668 289.487 847.668 289.487ZM849.668 288.487 850.668 288.487 850.668 289.487 849.668 289.487ZM851.668 288.487 852.668 288.487 852.668 289.487 851.668 289.487ZM853.668 288.487 854.668 288.487 854.668 289.487 853.668 289.487ZM855.668 288.487 856.668 288.487 856.668 289.487 855.668 289.487ZM857.668 288.487 858.668 288.487 858.668 289.487 857.668 289.487ZM859.668 288.487 860.668 288.487 860.668 289.487 859.668 289.487ZM861.668 288.487 862.668 288.487 862.668 289.487 861.668 289.487ZM863.668 288.487 864.668 288.487 864.668 289.487 863.668 289.487ZM865.668 288.487 866.668 288.487 866.668 289.487 865.668 289.487ZM867.668 288.487 868.668 288.487 868.668 289.487 867.668 289.487ZM869.668 288.487 870.668 288.487 870.668 289.487 869.668 289.487ZM871.668 288.487 872.668 288.487 872.668 289.487 871.668 289.487ZM873.668 288.487 874.668 288.487 874.668 289.487 873.668 289.487ZM875.668 288.487 876.668 288.487 876.668 289.487 875.668 289.487ZM877.668 288.487 878.668 288.487 878.668 289.487 877.668 289.487ZM879.668 288.487 880.668 288.487 880.668 289.487 879.668 289.487Z" fill="#FFFFFF" fill-rule="evenodd"/><text fill="#FFFFFF" font-family="Calibri,Calibri_MSFontService,sans-serif" font-weight="400" font-size="11" transform="translate(820.835 311)">Intitulé note</text><path d="M820.668 312.487 821.668 312.487 821.668 313.487 820.668 313.487ZM822.668 312.487 823.668 312.487 823.668 313.487 822.668 313.487ZM824.668 312.487 825.668 312.487 825.668 313.487 824.668 313.487ZM826.668 312.487 827.668 312.487 827.668 313.487 826.668 313.487ZM828.668 312.487 829.668 312.487 829.668 313.487 828.668 313.487ZM830.668 312.487 831.668 312.487 831.668 313.487 830.668 313.487ZM832.668 312.487 833.668 312.487 833.668 313.487 832.668 313.487ZM834.668 312.487 835.668 312.487 835.668 313.487 834.668 313.487ZM836.668 312.487 837.668 312.487 837.668 313.487 836.668 313.487ZM838.668 312.487 839.668 312.487 839.668 313.487 838.668 313.487ZM840.668 312.487 841.668 312.487 841.668 313.487 840.668 313.487ZM842.668 312.487 843.668 312.487 843.668 313.487 842.668 313.487ZM844.668 312.487 845.668 312.487 845.668 313.487 844.668 313.487ZM846.668 312.487 847.668 312.487 847.668 313.487 846.668 313.487ZM848.668 312.487 849.668 312.487 849.668 313.487 848.668 313.487ZM850.668 312.487 851.668 312.487 851.668 313.487 850.668 313.487ZM852.668 312.487 853.668 312.487 853.668 313.487 852.668 313.487ZM854.668 312.487 855.668 312.487 855.668 313.487 854.668 313.487ZM856.668 312.487 857.668 312.487 857.668 313.487 856.668 313.487ZM858.668 312.487 859.668 312.487 859.668 313.487 858.668 313.487ZM860.668 312.487 861.668 312.487 861.668 313.487 860.668 313.487ZM862.668 312.487 863.668 312.487 863.668 313.487 862.668 313.487ZM864.668 312.487 865.668 312.487 865.668 313.487 864.668 313.487ZM866.668 312.487 867.668 312.487 867.668 313.487 866.668 313.487ZM868.668 312.487 869.668 312.487 869.668 313.487 868.668 313.487ZM870.668 312.487 871.668 312.487 871.668 313.487 870.668 313.487ZM872.668 312.487 873.668 312.487 873.668 313.487 872.668 313.487Z" fill="#FFFFFF" fill-rule="evenodd"/><path d="M0 0 0.000209974 23.0615" stroke="#000000" stroke-width="2" stroke-miterlimit="8" fill="none" fill-rule="evenodd" transform="matrix(-1 0 0 1 243 523)"/><path d="M243 338 243 372.27" stroke="#000000" stroke-width="2" stroke-miterlimit="8" fill="none" fill-rule="evenodd"/><path d="M0 0 41.7806 0.306037" stroke="#000000" stroke-width="2" stroke-miterlimit="8" fill="none" fill-rule="evenodd" transform="matrix(-1 0 0 1 359.781 272)"/><path d="M564.012 272.205 540 272" stroke="#000000" stroke-width="2" stroke-miterlimit="8" fill="none" fill-rule="evenodd"/><path d="M0 0 42.0942 0.205354" stroke="#000000" stroke-width="2" stroke-miterlimit="8" fill="none" fill-rule="evenodd" transform="matrix(1 0 0 -1 716 272.205)"/><path d="M938 272 980.094 272" stroke="#000000" stroke-width="2" stroke-miterlimit="8" fill="none" fill-rule="evenodd"/><path d="M939 471C939 442.281 991.159 419 1055.5 419 1119.84 419 1172 442.281 1172 471 1172 499.719 1119.84 523 1055.5 523 991.159 523 939 499.719 939 471Z" fill="#3AB395" fill-rule="evenodd"/><text fill="#FFFFFF" font-family="Calibri,Calibri_MSFontService,sans-serif" font-weight="400" font-size="11" transform="translate(1025.58 438)">Correspondre<tspan font-size="11" x="-6.08002" y="25">Coefficient_type</tspan></text><path d="M1019.5 463.707 1020.5 463.707 1020.5 464.707 1019.5 464.707ZM1021.5 463.707 1022.5 463.707 1022.5 464.707 1021.5 464.707ZM1023.5 463.707 1024.5 463.707 1024.5 464.707 1023.5 464.707ZM1025.5 463.707 1026.5 463.707 1026.5 464.707 1025.5 464.707ZM1027.5 463.707 1028.5 463.707 1028.5 464.707 1027.5 464.707ZM1029.5 463.707 1030.5 463.707 1030.5 464.707 1029.5 464.707ZM1031.5 463.707 1032.5 463.707 1032.5 464.707 1031.5 464.707ZM1033.5 463.707 1034.5 463.707 1034.5 464.707 1033.5 464.707ZM1035.5 463.707 1036.5 463.707 1036.5 464.707 1035.5 464.707ZM1037.5 463.707 1038.5 463.707 1038.5 464.707 1037.5 464.707ZM1039.5 463.707 1040.5 463.707 1040.5 464.707 1039.5 464.707ZM1041.5 463.707 1042.5 463.707 1042.5 464.707 1041.5 464.707ZM1043.5 463.707 1044.5 463.707 1044.5 464.707 1043.5 464.707ZM1045.5 463.707 1046.5 463.707 1046.5 464.707 1045.5 464.707ZM1047.5 463.707 1048.5 463.707 1048.5 464.707 1047.5 464.707ZM1049.5 463.707 1050.5 463.707 1050.5 464.707 1049.5 464.707ZM1051.5 463.707 1052.5 463.707 1052.5 464.707 1051.5 464.707ZM1053.5 463.707 1054.5 463.707 1054.5 464.707 1053.5 464.707ZM1055.5 463.707 1056.5 463.707 1056.5 464.707 1055.5 464.707ZM1057.5 463.707 1058.5 463.707 1058.5 464.707 1057.5 464.707ZM1059.5 463.707 1060.5 463.707 1060.5 464.707 1059.5 464.707ZM1061.5 463.707 1062.5 463.707 1062.5 464.707 1061.5 464.707ZM1063.5 463.707 1064.5 463.707 1064.5 464.707 1063.5 464.707ZM1065.5 463.707 1066.5 463.707 1066.5 464.707 1065.5 464.707ZM1067.5 463.707 1068.5 463.707 1068.5 464.707 1067.5 464.707ZM1069.5 463.707 1070.5 463.707 1070.5 464.707 1069.5 464.707ZM1071.5 463.707 1072.5 463.707 1072.5 464.707 1071.5 464.707ZM1073.5 463.707 1074.5 463.707 1074.5 464.707 1073.5 464.707ZM1075.5 463.707 1076.5 463.707 1076.5 464.707 1075.5 464.707ZM1077.5 463.707 1078.5 463.707 1078.5 464.707 1077.5 464.707ZM1079.5 463.707 1080.5 463.707 1080.5 464.707 1079.5 464.707ZM1081.5 463.707 1082.5 463.707 1082.5 464.707 1081.5 464.707ZM1083.5 463.707 1084.5 463.707 1084.5 464.707 1083.5 464.707ZM1085.5 463.707 1086.5 463.707 1086.5 464.707 1085.5 464.707ZM1087.5 463.707 1088.5 463.707 1088.5 464.707 1087.5 464.707ZM1089.5 463.707 1090.5 463.707 1090.5 464.707 1089.5 464.707Z" fill="#FFFFFF" fill-rule="evenodd"/><text fill="#FFFFFF" font-family="Calibri,Calibri_MSFontService,sans-serif" font-weight="400" font-size="11" transform="translate(1012.17 487)">Coefficient_matière</text><path d="M1012.5 487.707 1013.5 487.707 1013.5 488.707 1012.5 488.707ZM1014.5 487.707 1015.5 487.707 1015.5 488.707 1014.5 488.707ZM1016.5 487.707 1017.5 487.707 1017.5 488.707 1016.5 488.707ZM1018.5 487.707 1019.5 487.707 1019.5 488.707 1018.5 488.707ZM1020.5 487.707 1021.5 487.707 1021.5 488.707 1020.5 488.707ZM1022.5 487.707 1023.5 487.707 1023.5 488.707 1022.5 488.707ZM1024.5 487.707 1025.5 487.707 1025.5 488.707 1024.5 488.707ZM1026.5 487.707 1027.5 487.707 1027.5 488.707 1026.5 488.707ZM1028.5 487.707 1029.5 487.707 1029.5 488.707 1028.5 488.707ZM1030.5 487.707 1031.5 487.707 1031.5 488.707 1030.5 488.707ZM1032.5 487.707 1033.5 487.707 1033.5 488.707 1032.5 488.707ZM1034.5 487.707 1035.5 487.707 1035.5 488.707 1034.5 488.707ZM1036.5 487.707 1037.5 487.707 1037.5 488.707 1036.5 488.707ZM1038.5 487.707 1039.5 487.707 1039.5 488.707 1038.5 488.707ZM1040.5 487.707 1041.5 487.707 1041.5 488.707 1040.5 488.707ZM1042.5 487.707 1043.5 487.707 1043.5 488.707 1042.5 488.707ZM1044.5 487.707 1045.5 487.707 1045.5 488.707 1044.5 488.707ZM1046.5 487.707 1047.5 487.707 1047.5 488.707 1046.5 488.707ZM1048.5 487.707 1049.5 487.707 1049.5 488.707 1048.5 488.707ZM1050.5 487.707 1051.5 487.707 1051.5 488.707 1050.5 488.707ZM1052.5 487.707 1053.5 487.707 1053.5 488.707 1052.5 488.707ZM1054.5 487.707 1055.5 487.707 1055.5 488.707 1054.5 488.707ZM1056.5 487.707 1057.5 487.707 1057.5 488.707 1056.5 488.707ZM1058.5 487.707 1059.5 487.707 1059.5 488.707 1058.5 488.707ZM1060.5 487.707 1061.5 487.707 1061.5 488.707 1060.5 488.707ZM1062.5 487.707 1063.5 487.707 1063.5 488.707 1062.5 488.707ZM1064.5 487.707 1065.5 487.707 1065.5 488.707 1064.5 488.707ZM1066.5 487.707 1067.5 487.707 1067.5 488.707 1066.5 488.707ZM1068.5 487.707 1069.5 487.707 1069.5 488.707 1068.5 488.707ZM1070.5 487.707 1071.5 487.707 1071.5 488.707 1070.5 488.707ZM1072.5 487.707 1073.5 487.707 1073.5 488.707 1072.5 488.707ZM1074.5 487.707 1075.5 487.707 1075.5 488.707 1074.5 488.707ZM1076.5 487.707 1077.5 487.707 1077.5 488.707 1076.5 488.707ZM1078.5 487.707 1079.5 487.707 1079.5 488.707 1078.5 488.707ZM1080.5 487.707 1081.5 487.707 1081.5 488.707 1080.5 488.707ZM1082.5 487.707 1083.5 487.707 1083.5 488.707 1082.5 488.707ZM1084.5 487.707 1085.5 487.707 1085.5 488.707 1084.5 488.707ZM1086.5 487.707 1087.5 487.707 1087.5 488.707 1086.5 488.707ZM1088.5 487.707 1089.5 487.707 1089.5 488.707 1088.5 488.707ZM1090.5 487.707 1091.5 487.707 1091.5 488.707 1090.5 488.707ZM1092.5 487.707 1093.5 487.707 1093.5 488.707 1092.5 488.707ZM1094.5 487.707 1095.5 487.707 1095.5 488.707 1094.5 488.707ZM1096.5 487.707 1097.5 487.707 1097.5 488.707 1096.5 488.707Z" fill="#FFFFFF" fill-rule="evenodd"/><text fill="#FFFFFF" font-family="Calibri,Calibri_MSFontService,sans-serif" font-weight="400" font-size="11" transform="translate(1028.58 511)">Intitulé note</text><path d="M1028.5 511.707 1029.5 511.707 1029.5 512.707 1028.5 512.707ZM1030.5 511.707 1031.5 511.707 1031.5 512.707 1030.5 512.707ZM1032.5 511.707 1033.5 511.707 1033.5 512.707 1032.5 512.707ZM1034.5 511.707 1035.5 511.707 1035.5 512.707 1034.5 512.707ZM1036.5 511.707 1037.5 511.707 1037.5 512.707 1036.5 512.707ZM1038.5 511.707 1039.5 511.707 1039.5 512.707 1038.5 512.707ZM1040.5 511.707 1041.5 511.707 1041.5 512.707 1040.5 512.707ZM1042.5 511.707 1043.5 511.707 1043.5 512.707 1042.5 512.707ZM1044.5 511.707 1045.5 511.707 1045.5 512.707 1044.5 512.707ZM1046.5 511.707 1047.5 511.707 1047.5 512.707 1046.5 512.707ZM1048.5 511.707 1049.5 511.707 1049.5 512.707 1048.5 512.707ZM1050.5 511.707 1051.5 511.707 1051.5 512.707 1050.5 512.707ZM1052.5 511.707 1053.5 511.707 1053.5 512.707 1052.5 512.707ZM1054.5 511.707 1055.5 511.707 1055.5 512.707 1054.5 512.707ZM1056.5 511.707 1057.5 511.707 1057.5 512.707 1056.5 512.707ZM1058.5 511.707 1059.5 511.707 1059.5 512.707 1058.5 512.707ZM1060.5 511.707 1061.5 511.707 1061.5 512.707 1060.5 512.707ZM1062.5 511.707 1063.5 511.707 1063.5 512.707 1062.5 512.707ZM1064.5 511.707 1065.5 511.707 1065.5 512.707 1064.5 512.707ZM1066.5 511.707 1067.5 511.707 1067.5 512.707 1066.5 512.707ZM1068.5 511.707 1069.5 511.707 1069.5 512.707 1068.5 512.707ZM1070.5 511.707 1071.5 511.707 1071.5 512.707 1070.5 512.707ZM1072.5 511.707 1073.5 511.707 1073.5 512.707 1072.5 512.707ZM1074.5 511.707 1075.5 511.707 1075.5 512.707 1074.5 512.707ZM1076.5 511.707 1077.5 511.707 1077.5 512.707 1076.5 512.707ZM1078.5 511.707 1079.5 511.707 1079.5 512.707 1078.5 512.707ZM1080.5 511.707 1081.5 511.707 1081.5 512.707 1080.5 512.707Z" fill="#FFFFFF" fill-rule="evenodd"/><path d="M0 0 147.298 0 147.298 71.4709" stroke="#000000" stroke-width="2" stroke-miterlimit="8" fill="none" fill-rule="evenodd" transform="matrix(1 0 0 -1 908 594.471)"/><path d="M1056 338 1056 419.224" stroke="#000000" stroke-width="2" stroke-miterlimit="8" fill="none" fill-rule="evenodd"/><text font-family="Calibri,Calibri_MSFontService,sans-serif" font-weight="400" font-size="13" transform="translate(543.904 266)">1,1<tspan font-size="13" x="-212.838" y="0">0,n</tspan><tspan font-size="13" x="189.666" y="0">0,n</tspan><tspan font-size="13" x="406.462" y="0">1,1</tspan><tspan font-size="13" x="520.369" y="117">1,1</tspan><tspan font-size="13" x="428.732" y="320">0,n</tspan><tspan font-size="13" x="131.018" y="320">0,n</tspan><tspan font-size="13" x="-285.567" y="275">1,1</tspan><tspan font-size="13" x="-290.887" y="94">1,n</tspan></text><path d="M382 595C382 566.281 434.383 543 499 543 563.617 543 616 566.281 616 595 616 623.719 563.617 647 499 647 434.383 647 382 623.719 382 595Z" fill="#3AB395" fill-rule="evenodd"/><text fill="#FFFFFF" font-family="Calibri,Calibri_MSFontService,sans-serif" font-weight="400" font-size="11" transform="translate(469.213 574)">Correspondre<tspan font-size="11" x="-6.07999" y="25">Coefficient_type</tspan></text><path d="M463.133 599.918 464.133 599.918 464.133 600.918 463.133 600.918ZM465.133 599.918 466.133 599.918 466.133 600.918 465.133 600.918ZM467.133 599.918 468.133 599.918 468.133 600.918 467.133 600.918ZM469.133 599.918 470.133 599.918 470.133 600.918 469.133 600.918ZM471.133 599.918 472.133 599.918 472.133 600.918 471.133 600.918ZM473.133 599.918 474.133 599.918 474.133 600.918 473.133 600.918ZM475.133 599.918 476.133 599.918 476.133 600.918 475.133 600.918ZM477.133 599.918 478.133 599.918 478.133 600.918 477.133 600.918ZM479.133 599.918 480.133 599.918 480.133 600.918 479.133 600.918ZM481.133 599.918 482.133 599.918 482.133 600.918 481.133 600.918ZM483.133 599.918 484.133 599.918 484.133 600.918 483.133 600.918ZM485.133 599.918 486.133 599.918 486.133 600.918 485.133 600.918ZM487.133 599.918 488.133 599.918 488.133 600.918 487.133 600.918ZM489.133 599.918 490.133 599.918 490.133 600.918 489.133 600.918ZM491.133 599.918 492.133 599.918 492.133 600.918 491.133 600.918ZM493.133 599.918 494.133 599.918 494.133 600.918 493.133 600.918ZM495.133 599.918 496.133 599.918 496.133 600.918 495.133 600.918ZM497.133 599.918 498.133 599.918 498.133 600.918 497.133 600.918ZM499.133 599.918 500.133 599.918 500.133 600.918 499.133 600.918ZM501.133 599.918 502.133 599.918 502.133 600.918 501.133 600.918ZM503.133 599.918 504.133 599.918 504.133 600.918 503.133 600.918ZM505.133 599.918 506.133 599.918 506.133 600.918 505.133 600.918ZM507.133 599.918 508.133 599.918 508.133 600.918 507.133 600.918ZM509.133 599.918 510.133 599.918 510.133 600.918 509.133 600.918ZM511.133 599.918 512.133 599.918 512.133 600.918 511.133 600.918ZM513.133 599.918 514.133 599.918 514.133 600.918 513.133 600.918ZM515.133 599.918 516.133 599.918 516.133 600.918 515.133 600.918ZM517.133 599.918 518.133 599.918 518.133 600.918 517.133 600.918ZM519.133 599.918 520.133 599.918 520.133 600.918 519.133 600.918ZM521.133 599.918 522.133 599.918 522.133 600.918 521.133 600.918ZM523.133 599.918 524.133 599.918 524.133 600.918 523.133 600.918ZM525.133 599.918 526.133 599.918 526.133 600.918 525.133 600.918ZM527.133 599.918 528.133 599.918 528.133 600.918 527.133 600.918ZM529.133 599.918 530.133 599.918 530.133 600.918 529.133 600.918ZM531.133 599.918 532.133 599.918 532.133 600.918 531.133 600.918ZM533.133 599.918 534.133 599.918 534.133 600.918 533.133 600.918Z" fill="#FFFFFF" fill-rule="evenodd"/><text fill="#FFFFFF" font-family="Calibri,Calibri_MSFontService,sans-serif" font-weight="400" font-size="11" transform="translate(455.8 623)">Coefficient_matière</text><path d="M456.133 623.918 457.133 623.918 457.133 624.918 456.133 624.918ZM458.133 623.918 459.133 623.918 459.133 624.918 458.133 624.918ZM460.133 623.918 461.133 623.918 461.133 624.918 460.133 624.918ZM462.133 623.918 463.133 623.918 463.133 624.918 462.133 624.918ZM464.133 623.918 465.133 623.918 465.133 624.918 464.133 624.918ZM466.133 623.918 467.133 623.918 467.133 624.918 466.133 624.918ZM468.133 623.918 469.133 623.918 469.133 624.918 468.133 624.918ZM470.133 623.918 471.133 623.918 471.133 624.918 470.133 624.918ZM472.133 623.918 473.133 623.918 473.133 624.918 472.133 624.918ZM474.133 623.918 475.133 623.918 475.133 624.918 474.133 624.918ZM476.133 623.918 477.133 623.918 477.133 624.918 476.133 624.918ZM478.133 623.918 479.133 623.918 479.133 624.918 478.133 624.918ZM480.133 623.918 481.133 623.918 481.133 624.918 480.133 624.918ZM482.133 623.918 483.133 623.918 483.133 624.918 482.133 624.918ZM484.133 623.918 485.133 623.918 485.133 624.918 484.133 624.918ZM486.133 623.918 487.133 623.918 487.133 624.918 486.133 624.918ZM488.133 623.918 489.133 623.918 489.133 624.918 488.133 624.918ZM490.133 623.918 491.133 623.918 491.133 624.918 490.133 624.918ZM492.133 623.918 493.133 623.918 493.133 624.918 492.133 624.918ZM494.133 623.918 495.133 623.918 495.133 624.918 494.133 624.918ZM496.133 623.918 497.133 623.918 497.133 624.918 496.133 624.918ZM498.133 623.918 499.133 623.918 499.133 624.918 498.133 624.918ZM500.133 623.918 501.133 623.918 501.133 624.918 500.133 624.918ZM502.133 623.918 503.133 623.918 503.133 624.918 502.133 624.918ZM504.133 623.918 505.133 623.918 505.133 624.918 504.133 624.918ZM506.133 623.918 507.133 623.918 507.133 624.918 506.133 624.918ZM508.133 623.918 509.133 623.918 509.133 624.918 508.133 624.918ZM510.133 623.918 511.133 623.918 511.133 624.918 510.133 624.918ZM512.133 623.918 513.133 623.918 513.133 624.918 512.133 624.918ZM514.133 623.918 515.133 623.918 515.133 624.918 514.133 624.918ZM516.133 623.918 517.133 623.918 517.133 624.918 516.133 624.918ZM518.133 623.918 519.133 623.918 519.133 624.918 518.133 624.918ZM520.133 623.918 521.133 623.918 521.133 624.918 520.133 624.918ZM522.133 623.918 523.133 623.918 523.133 624.918 522.133 624.918ZM524.133 623.918 525.133 623.918 525.133 624.918 524.133 624.918ZM526.133 623.918 527.133 623.918 527.133 624.918 526.133 624.918ZM528.133 623.918 529.133 623.918 529.133 624.918 528.133 624.918ZM530.133 623.918 531.133 623.918 531.133 624.918 530.133 624.918ZM532.133 623.918 533.133 623.918 533.133 624.918 532.133 624.918ZM534.133 623.918 535.133 623.918 535.133 624.918 534.133 624.918ZM536.133 623.918 537.133 623.918 537.133 624.918 536.133 624.918ZM538.133 623.918 539.133 623.918 539.133 624.918 538.133 624.918ZM540.133 623.918 541.133 623.918 541.133 624.918 540.133 624.918Z" fill="#FFFFFF" fill-rule="evenodd"/><path d="M332 594 382.2 594.391" stroke="#000000" stroke-width="2" stroke-miterlimit="8" fill="none" fill-rule="evenodd"/><path d="M0 0 120.682 0.660367" stroke="#000000" stroke-width="2" stroke-miterlimit="8" fill="none" fill-rule="evenodd" transform="matrix(1 0 0 -1 616 594.66)"/><text font-family="Calibri,Calibri_MSFontService,sans-serif" font-weight="400" font-size="13" transform="translate(340.753 586)">0,n</text></g></svg>