<svg id="Calque_1" data-name="Calque 1" xmlns="http://www.w3.org/2000/svg" viewBox="0 0 392.25 301.95"><defs><style>.cls-1{fill:#646464;}.cls-2{fill:#000000;}.cls-3{font-size:52.07px;fill:#3d3d3d;font-family:Cocogoose;}</style></defs><path class="cls-1" d="M388.44,135.71v144C327.19,276,286.82,293.8,269.31,303.86a86.41,86.41,0,0,0-10,6.48v-144S304.12,130.49,388.44,135.71Z" transform="translate(-53.88 -99.03)"/><path class="cls-2" d="M446.12,186.57,405.73,324.82c-79.48-28.66-132.5-6.84-132.5-6.84l2.08-7.12c17.51-10.06,57.88-27.91,119.13-24.12v-113A250.38,250.38,0,0,1,446.12,186.57Z" transform="translate(-53.88 -99.03)"/><path class="cls-1" d="M111.56,135.71v144c61.25-3.79,101.62,14.06,119.13,24.12a86.41,86.41,0,0,1,10,6.48v-144S195.88,130.49,111.56,135.71Z" transform="translate(-53.88 -99.03)"/><path class="cls-2" d="M53.88,186.57,94.27,324.82c79.48-28.66,132.5-6.84,132.5-6.84l-2.08-7.12C207.18,300.8,166.81,283,105.56,286.74v-113A250.38,250.38,0,0,0,53.88,186.57Z" transform="translate(-53.88 -99.03)"/><circle class="cls-2" cx="194.5" cy="20.38" r="20.38"/></svg>