<?xml version="1.0" standalone="no"?>
<!DOCTYPE svg PUBLIC "-//W3C//DTD SVG 20010904//EN"
 "http://www.w3.org/TR/2001/REC-SVG-20010904/DTD/svg10.dtd">
<svg version="1.0" xmlns="http://www.w3.org/2000/svg"
 width="1955.000000pt" height="813.000000pt" viewBox="0 0 1955.000000 813.000000"
 preserveAspectRatio="xMidYMid meet">

<g transform="translate(0.000000,813.000000) scale(0.100000,-0.100000)"
fill="#000000" stroke="none">
<path d="M7758 6141 c-32 -3 -66 -14 -77 -23 -26 -22 -34 -96 -29 -264 4 -134
4 -137 31 -160 28 -24 31 -24 238 -24 279 0 259 -18 259 233 0 225 -1 227
-106 238 -77 9 -229 9 -316 0z"/>
<path d="M2534 6130 c-49 -20 -54 -42 -54 -232 0 -173 1 -178 24 -205 l24 -28
217 0 217 0 24 28 c23 27 24 32 24 207 0 175 -1 180 -24 207 l-24 28 -204 2
c-111 1 -213 -2 -224 -7z"/>
<path d="M9605 5441 c-147 -25 -313 -92 -429 -175 -188 -134 -324 -368 -382
-656 -16 -77 -18 -203 -21 -1362 l-4 -1278 266 0 265 0 2 432 3 432 445 262
445 262 3 -694 2 -694 265 0 265 0 0 1243 c0 1305 -1 1336 -45 1502 -95 360
-345 615 -693 706 -86 23 -301 34 -387 20z m234 -592 c171 -27 284 -141 338
-339 14 -53 17 -109 18 -298 l0 -233 -440 -260 c-242 -142 -444 -259 -448
-259 -5 0 -7 217 -4 483 4 528 7 557 66 683 68 144 200 226 376 233 17 0 59
-4 94 -10z"/>
<path d="M13310 5440 c-81 -10 -178 -42 -250 -83 -82 -46 -200 -169 -238 -247
-133 -271 -35 -567 232 -699 67 -34 124 -51 285 -87 258 -57 302 -73 367 -138
64 -65 89 -131 82 -220 -13 -152 -132 -254 -323 -275 -262 -30 -470 110 -519
349 l-11 57 -125 -39 c-69 -22 -126 -41 -128 -43 -2 -1 4 -33 13 -70 39 -169
166 -332 320 -412 101 -52 165 -71 286 -84 354 -39 659 133 743 420 23 79 21
222 -4 304 -39 127 -132 234 -260 301 -89 47 -132 60 -359 110 -109 24 -215
53 -237 64 -189 98 -203 358 -25 488 126 91 328 99 468 17 77 -45 173 -175
173 -235 0 -9 5 -20 10 -23 10 -6 133 31 207 62 l32 13 -15 52 c-39 132 -148
270 -264 335 -122 69 -305 102 -460 83z"/>
<path d="M2480 3978 c0 -1372 -1 -1435 -19 -1473 -23 -51 -53 -78 -116 -107
-44 -20 -70 -23 -212 -26 l-163 -4 0 -264 0 -264 248 0 c286 0 345 9 468 70
146 72 238 178 292 334 l27 81 3 1543 2 1542 -265 0 -265 0 0 -1432z"/>
<path d="M3600 4157 c0 -805 4 -1283 10 -1337 24 -194 112 -422 214 -557 125
-165 332 -292 548 -337 124 -26 323 -22 444 9 330 83 560 302 674 643 60 179
63 215 69 827 l6 559 525 -909 c480 -834 530 -916 590 -976 93 -94 235 -159
348 -159 l42 0 0 1745 0 1745 -265 0 c-146 0 -266 -1 -267 -2 -1 -2 -5 -461
-8 -1020 l-5 -1017 -524 895 c-289 493 -542 918 -563 944 -78 98 -224 175
-356 187 l-65 6 6 -1174 c4 -752 3 -1207 -3 -1264 -19 -172 -63 -278 -149
-358 -82 -77 -163 -107 -291 -107 -240 0 -389 133 -436 390 -11 61 -13 311
-14 1298 l0 1222 -265 0 -265 0 0 -1253z"/>
<path d="M7650 3690 l0 -1720 265 0 265 0 0 1720 0 1720 -265 0 -265 0 0
-1720z"/>
<path d="M12060 4440 l0 -960 140 0 140 0 0 960 0 960 -140 0 -140 0 0 -960z"/>
<path d="M14430 4440 l0 -960 585 0 585 0 0 125 0 125 -452 2 -453 3 0 290 0
290 408 3 407 2 0 125 0 125 -410 0 -410 0 2 293 3 292 453 3 452 2 0 120 0
120 -585 0 -585 0 0 -960z"/>
<path d="M16000 4440 l0 -960 135 0 135 0 2 779 3 778 515 -778 515 -779 138
0 137 0 0 960 0 960 -130 0 -130 0 0 -725 c0 -399 -3 -725 -7 -725 -5 0 -219
326 -478 725 l-470 724 -182 0 -183 1 0 -960z"/>
<path d="M12060 2935 l0 -105 2760 0 2760 0 0 105 0 105 -2760 0 -2760 0 0
-105z"/>
</g>
</svg>
