<svg width="1280" height="720" xmlns="http://www.w3.org/2000/svg" xmlns:xlink="http://www.w3.org/1999/xlink" overflow="hidden"><defs><filter id="fx0" x="-10%" y="-10%" width="120%" height="120%" filterUnits="userSpaceOnUse" primitiveUnits="userSpaceOnUse"><feComponentTransfer color-interpolation-filters="sRGB"><feFuncR type="discrete" tableValues="0 0"/><feFuncG type="discrete" tableValues="0 0"/><feFuncB type="discrete" tableValues="0 0"/><feFuncA type="linear" slope="0.4" intercept="0"/></feComponentTransfer><feGaussianBlur stdDeviation="1.77778 1.77778"/></filter><filter id="fx1" x="-10%" y="-10%" width="120%" height="120%" filterUnits="userSpaceOnUse" primitiveUnits="userSpaceOnUse"><feComponentTransfer color-interpolation-filters="sRGB"><feFuncR type="discrete" tableValues="0 0"/><feFuncG type="discrete" tableValues="0 0"/><feFuncB type="discrete" tableValues="0 0"/><feFuncA type="linear" slope="0.4" intercept="0"/></feComponentTransfer><feGaussianBlur stdDeviation="1.77778 1.77778"/></filter><filter id="fx2" x="-10%" y="-10%" width="120%" height="120%" filterUnits="userSpaceOnUse" primitiveUnits="userSpaceOnUse"><feComponentTransfer color-interpolation-filters="sRGB"><feFuncR type="discrete" tableValues="0 0"/><feFuncG type="discrete" tableValues="0 0"/><feFuncB type="discrete" tableValues="0 0"/><feFuncA type="linear" slope="0.631373" intercept="0"/></feComponentTransfer><feGaussianBlur stdDeviation="2 2"/></filter><filter id="fx3" x="-10%" y="-10%" width="120%" height="120%" filterUnits="userSpaceOnUse" primitiveUnits="userSpaceOnUse"><feComponentTransfer color-interpolation-filters="sRGB"><feFuncR type="discrete" tableValues="0 0"/><feFuncG type="discrete" tableValues="0 0"/><feFuncB type="discrete" tableValues="0 0"/><feFuncA type="linear" slope="0.631373" intercept="0"/></feComponentTransfer><feGaussianBlur stdDeviation="2 2"/></filter><filter id="fx4" x="-10%" y="-10%" width="120%" height="120%" filterUnits="userSpaceOnUse" primitiveUnits="userSpaceOnUse"><feComponentTransfer color-interpolation-filters="sRGB"><feFuncR type="discrete" tableValues="0 0"/><feFuncG type="discrete" tableValues="0 0"/><feFuncB type="discrete" tableValues="0 0"/><feFuncA type="linear" slope="0.4" intercept="0"/></feComponentTransfer><feGaussianBlur stdDeviation="1.77778 1.77778"/></filter><filter id="fx5" x="-10%" y="-10%" width="120%" height="120%" filterUnits="userSpaceOnUse" primitiveUnits="userSpaceOnUse"><feComponentTransfer color-interpolation-filters="sRGB"><feFuncR type="discrete" tableValues="0 0"/><feFuncG type="discrete" tableValues="0 0"/><feFuncB type="discrete" tableValues="0 0"/><feFuncA type="linear" slope="0.4" intercept="0"/></feComponentTransfer><feGaussianBlur stdDeviation="1.77778 1.77778"/></filter><clipPath id="clip6"><rect x="0" y="0" width="1280" height="720"/></clipPath><clipPath id="clip7"><rect x="13" y="17" width="85" height="76"/></clipPath><clipPath id="clip8"><rect x="0" y="0" width="110" height="110"/></clipPath><clipPath id="clip9"><rect x="7" y="7" width="96" height="96"/></clipPath><clipPath id="clip10"><rect x="7" y="7" width="96" height="96"/></clipPath><clipPath id="clip11"><rect x="7" y="7" width="96" height="96"/></clipPath><clipPath id="clip12"><rect x="1156" y="605" width="96" height="96"/></clipPath><clipPath id="clip13"><rect x="1156" y="605" width="96" height="96"/></clipPath><clipPath id="clip14"><rect x="1156" y="605" width="96" height="96"/></clipPath><clipPath id="clip15"><rect x="23" y="3" width="64" height="103"/></clipPath><clipPath id="clip16"><rect x="0" y="0" width="110" height="110"/></clipPath><clipPath id="clip17"><rect x="6" y="6" width="97" height="97"/></clipPath><clipPath id="clip18"><rect x="6" y="6" width="97" height="97"/></clipPath><clipPath id="clip19"><rect x="6" y="6" width="97" height="97"/></clipPath><clipPath id="clip20"><rect x="28" y="601" width="96" height="96"/></clipPath><clipPath id="clip21"><rect x="28" y="601" width="96" height="96"/></clipPath><clipPath id="clip22"><rect x="28" y="601" width="96" height="96"/></clipPath><clipPath id="clip23"><rect x="213" y="75" width="853" height="569"/></clipPath><clipPath id="clip24"><rect x="213" y="75" width="853" height="569"/></clipPath><clipPath id="clip25"><rect x="256" y="138" width="797" height="433"/></clipPath><clipPath id="clip26"><rect x="-2" y="-2" width="620" height="214"/></clipPath><clipPath id="clip27"><rect x="0" y="0" width="615" height="210"/></clipPath><clipPath id="clip28"><rect x="256" y="138" width="797" height="433"/></clipPath><clipPath id="clip29"><rect x="-2" y="-2" width="620" height="126"/></clipPath><clipPath id="clip30"><rect x="0" y="0" width="615" height="123"/></clipPath><clipPath id="clip31"><rect x="256" y="138" width="797" height="433"/></clipPath><clipPath id="clip32"><rect x="256" y="138" width="797" height="433"/></clipPath><clipPath id="clip33"><rect x="213" y="75" width="853" height="569"/></clipPath><clipPath id="clip34"><rect x="213" y="75" width="853" height="569"/></clipPath><clipPath id="clip35"><rect x="213" y="75" width="853" height="569"/></clipPath><clipPath id="clip36"><rect x="213" y="75" width="853" height="569"/></clipPath><clipPath id="clip37"><rect x="213" y="75" width="853" height="569"/></clipPath><clipPath id="clip38"><rect x="213" y="75" width="853" height="569"/></clipPath><clipPath id="clip39"><rect x="213" y="75" width="853" height="569"/></clipPath><clipPath id="clip40"><rect x="213" y="75" width="853" height="569"/></clipPath><clipPath id="clip41"><rect x="213" y="75" width="853" height="569"/></clipPath><clipPath id="clip42"><rect x="213" y="75" width="853" height="569"/></clipPath><clipPath id="clip43"><rect x="213" y="75" width="853" height="569"/></clipPath><clipPath id="clip44"><rect x="213" y="75" width="853" height="569"/></clipPath><clipPath id="clip45"><rect x="213" y="75" width="853" height="569"/></clipPath><clipPath id="clip46"><rect x="213" y="75" width="853" height="569"/></clipPath><clipPath id="clip47"><rect x="213" y="75" width="853" height="569"/></clipPath><clipPath id="clip48"><rect x="213" y="75" width="853" height="569"/></clipPath><clipPath id="clip49"><rect x="213" y="75" width="853" height="569"/></clipPath><clipPath id="clip50"><rect x="213" y="75" width="853" height="569"/></clipPath><clipPath id="clip51"><rect x="213" y="75" width="853" height="569"/></clipPath><clipPath id="clip52"><rect x="-2" y="-2" width="201" height="77"/></clipPath><clipPath id="clip53"><rect x="0" y="0" width="199" height="74"/></clipPath><clipPath id="clip54"><rect x="15" y="11" width="165" height="33"/></clipPath><clipPath id="clip55"><rect x="0" y="0" width="195" height="64"/></clipPath></defs><g clip-path="url(#clip6)"><rect x="0" y="0" width="1280" height="720" fill="#FFFFFF"/><path d="M98.5001 53.5001 86.3938 57.8053 86.3938 49.1948ZM89.7111 32.2861 84.1966 43.892 78.1081 37.8035ZM68.5001 23.5001 72.8053 35.6063 64.1948 35.6063ZM47.2861 32.2861 58.892 37.8035 52.8035 43.892ZM38.5001 53.5001 50.6063 49.1948 50.6063 57.8053ZM47.2861 74.7111 52.8035 63.1081 58.892 69.1966ZM68.5001 83.5001 64.1948 71.3938 72.8053 71.3938ZM89.7111 74.7111 78.1081 69.1966 84.1966 63.1081ZM53.5001 53.5001C53.5001 45.2158 60.2158 38.5001 68.5001 38.5001 76.7843 38.5001 83.5001 45.2158 83.5001 53.5001 83.5001 61.7843 76.7843 68.5001 68.5001 68.5001 60.2158 68.5001 53.5001 61.7843 53.5001 53.5001Z" stroke="#BC8C00" stroke-width="1.33333" stroke-miterlimit="8" fill="#FFC000" fill-rule="evenodd"/><text font-family="Poppins,Poppins_MSFontService,sans-serif" font-weight="700" font-size="24" transform="translate(93.9636 42)">25<tspan font-size="24" x="29.3333" y="0">°</tspan><tspan font-size="24" x="40.5" y="0">C</tspan></text><g clip-path="url(#clip7)" filter="url(#fx0)" transform="translate(1149 602)"><g clip-path="url(#clip8)"><g clip-path="url(#clip9)"><g clip-path="url(#clip10)"><g clip-path="url(#clip11)"><path d="M85.6 24 24.4 24C22.5 24 21 25.6 21 27.4L21 68.7C21 70.6 22.5 72.1 24.4 72.1L61.8 72.1 75.4 86 75.4 72.2 85.6 72.2C87.5 72.2 89 70.6 89 68.8L89 27.5C89 25.6 87.5 24 85.6 24Z" fill="#595959"/></g></g></g></g></g><g clip-path="url(#clip12)"><g clip-path="url(#clip13)"><g clip-path="url(#clip14)"><path d="M1234.6 622 1173.4 622C1171.5 622 1170 623.6 1170 625.4L1170 666.7C1170 668.6 1171.5 670.1 1173.4 670.1L1210.8 670.1 1224.4 684 1224.4 670.2 1234.6 670.2C1236.5 670.2 1238 668.6 1238 666.8L1238 625.5C1238 623.6 1236.5 622 1234.6 622Z" fill="#595959"/></g></g></g><g clip-path="url(#clip15)" filter="url(#fx1)" transform="translate(24 597)"><g clip-path="url(#clip16)"><g clip-path="url(#clip17)"><g clip-path="url(#clip18)"><g clip-path="url(#clip19)"><path d="M57.8284 92.8284 57.8284 80.6284C69.1284 79.1284 77.8284 69.5284 77.8284 57.8284L77.8284 47.8284 71.8284 47.8284 71.8284 57.8284C71.8284 67.2284 64.2284 74.8284 54.8284 74.8284 45.4284 74.8284 37.8284 67.2284 37.8284 57.8284L37.8284 47.8284 31.8284 47.8284 31.8284 57.8284C31.8284 69.5284 40.5284 79.1284 51.8284 80.6284L51.8284 92.8284 30.8284 92.8284 30.8284 98.8284 78.8284 98.8284 78.8284 92.8284 57.8284 92.8284Z" fill="#595959"/><path d="M54.8284 70.8284C62.0284 70.8284 67.8284 65.0284 67.8284 57.8284L57.8284 57.8284 57.8284 53.8284 67.8284 53.8284 67.8284 47.8284 57.8284 47.8284 57.8284 43.8284 67.8284 43.8284 67.8284 37.8284 57.8284 37.8284 57.8284 33.8284 67.8284 33.8284 67.8284 27.8284 57.8284 27.8284 57.8284 23.8284 67.8284 23.8284C67.8284 16.6284 62.0284 10.8284 54.8284 10.8284 47.6284 10.8284 41.8284 16.6284 41.8284 23.8284L41.8284 57.8284C41.8284 65.0284 47.6284 70.8284 54.8284 70.8284Z" fill="#595959"/></g></g></g></g></g><g clip-path="url(#clip20)"><g clip-path="url(#clip21)"><g clip-path="url(#clip22)"><path d="M79 687 79 674.8C90.3 673.3 99 663.7 99 652L99 642 93 642 93 652C93 661.4 85.4 669 76 669 66.6 669 59 661.4 59 652L59 642 53 642 53 652C53 663.7 61.7 673.3 73 674.8L73 687 52 687 52 693 100 693 100 687 79 687Z" fill="#595959"/><path d="M76 665C83.2 665 89 659.2 89 652L79 652 79 648 89 648 89 642 79 642 79 638 89 638 89 632 79 632 79 628 89 628 89 622 79 622 79 618 89 618C89 610.8 83.2 605 76 605 68.8 605 63 610.8 63 618L63 652C63 659.2 68.8 665 76 665Z" fill="#595959"/></g></g></g><g clip-path="url(#clip23)"><path d="M256.5 522.5 1052.5 522.5M256.5 474.5 1052.5 474.5M256.5 426.5 1052.5 426.5M256.5 378.5 1052.5 378.5M256.5 330.5 1052.5 330.5M256.5 282.5 1052.5 282.5M256.5 234.5 1052.5 234.5M256.5 186.5 1052.5 186.5M256.5 138.5 1052.5 138.5" stroke="#D9D9D9" stroke-linejoin="round" stroke-miterlimit="10" fill="none"/></g><g clip-path="url(#clip24)"><path d="M256.5 570.5 1052.5 570.5" stroke="#D9D9D9" stroke-width="1.33333" stroke-linejoin="round" stroke-miterlimit="10" fill="none" fill-rule="evenodd"/></g><g clip-path="url(#clip25)"><g clip-path="url(#clip26)" filter="url(#fx2)" transform="translate(347 180)"><g clip-path="url(#clip27)"><path d="M9 201 208 153 407 57 606 9" stroke="#4472C4" stroke-width="4" stroke-linecap="round" stroke-linejoin="round" stroke-miterlimit="10" fill="none"/></g></g></g><g clip-path="url(#clip28)"><g clip-path="url(#clip29)" filter="url(#fx3)" transform="translate(347 228)"><g clip-path="url(#clip30)"><path d="M9 114 208 57 407 105 606 9" stroke="#ED7D31" stroke-width="4" stroke-linecap="round" stroke-linejoin="round" stroke-miterlimit="10" fill="none"/></g></g></g><g clip-path="url(#clip31)"><path d="M356 379 555 331 754 235 953 187" stroke="#4472C4" stroke-width="3.66667" stroke-linecap="round" stroke-linejoin="round" stroke-miterlimit="10" fill="none"/></g><g clip-path="url(#clip32)"><path d="M356 340 555 283 754 331 953 235" stroke="#ED7D31" stroke-width="3.66667" stroke-linecap="round" stroke-linejoin="round" stroke-miterlimit="10" fill="none"/></g><g clip-path="url(#clip33)"><text fill="#595959" font-family="Calibri,Calibri_MSFontService,sans-serif" font-weight="400" font-size="16" transform="translate(234.067 575)">0</text></g><g clip-path="url(#clip34)"><text fill="#595959" font-family="Calibri,Calibri_MSFontService,sans-serif" font-weight="400" font-size="16" transform="translate(222 527)">0,5</text></g><g clip-path="url(#clip35)"><text fill="#595959" font-family="Calibri,Calibri_MSFontService,sans-serif" font-weight="400" font-size="16" transform="translate(234.067 479)">1</text></g><g clip-path="url(#clip36)"><text fill="#595959" font-family="Calibri,Calibri_MSFontService,sans-serif" font-weight="400" font-size="16" transform="translate(222 431)">1,5</text></g><g clip-path="url(#clip37)"><text fill="#595959" font-family="Calibri,Calibri_MSFontService,sans-serif" font-weight="400" font-size="16" transform="translate(234.067 383)">2</text></g><g clip-path="url(#clip38)"><text fill="#595959" font-family="Calibri,Calibri_MSFontService,sans-serif" font-weight="400" font-size="16" transform="translate(222 335)">2,5</text></g><g clip-path="url(#clip39)"><text fill="#595959" font-family="Calibri,Calibri_MSFontService,sans-serif" font-weight="400" font-size="16" transform="translate(234.067 287)">3</text></g><g clip-path="url(#clip40)"><text fill="#595959" font-family="Calibri,Calibri_MSFontService,sans-serif" font-weight="400" font-size="16" transform="translate(222 239)">3,5</text></g><g clip-path="url(#clip41)"><text fill="#595959" font-family="Calibri,Calibri_MSFontService,sans-serif" font-weight="400" font-size="16" transform="translate(234.067 191)">4</text></g><g clip-path="url(#clip42)"><text fill="#595959" font-family="Calibri,Calibri_MSFontService,sans-serif" font-weight="400" font-size="16" transform="translate(222 143)">4,5</text></g><g clip-path="url(#clip43)"><text fill="#595959" font-family="Calibri,Calibri_MSFontService,sans-serif" font-weight="400" font-size="16" transform="translate(333.591 596)">Janvier</text></g><g clip-path="url(#clip44)"><text fill="#595959" font-family="Calibri,Calibri_MSFontService,sans-serif" font-weight="400" font-size="16" transform="translate(532.492 596)">Fevrier</text></g><g clip-path="url(#clip45)"><text fill="#595959" font-family="Calibri,Calibri_MSFontService,sans-serif" font-weight="400" font-size="16" transform="translate(737.309 596)">Mars</text></g><g clip-path="url(#clip46)"><text fill="#595959" font-family="Calibri,Calibri_MSFontService,sans-serif" font-weight="400" font-size="16" transform="translate(937.956 596)">Avril</text></g><g clip-path="url(#clip47)"><text fill="#595959" font-family="Calibri,Calibri_MSFontService,sans-serif" font-weight="700" font-size="28" transform="translate(605.483 113)">Notes</text></g><g clip-path="url(#clip48)"><path d="M486 623 511 623" stroke="#4472C4" stroke-width="3.66667" stroke-linecap="round" stroke-linejoin="round" stroke-miterlimit="10" fill="none" fill-rule="evenodd"/></g><g clip-path="url(#clip49)"><text fill="#595959" font-family="Calibri,Calibri_MSFontService,sans-serif" font-weight="400" font-size="16" transform="translate(513.947 627)">Vos notes</text></g><g clip-path="url(#clip50)"><path d="M601 623 627 623" stroke="#ED7D31" stroke-width="3.66667" stroke-linecap="round" stroke-linejoin="round" stroke-miterlimit="10" fill="none" fill-rule="evenodd"/></g><g clip-path="url(#clip51)"><text fill="#595959" font-family="Calibri,Calibri_MSFontService,sans-serif" font-weight="400" font-size="16" transform="translate(629.406 627)">Notes Moyennes Globales</text></g><g clip-path="url(#clip52)" filter="url(#fx4)" transform="translate(1077 19)"><g clip-path="url(#clip53)"><path d="M6.82837 16.8286C6.82837 11.3057 11.3056 6.82843 16.8286 6.82843L181.828 6.82843C187.351 6.82843 191.828 11.3057 191.828 16.8286L191.828 56.8282C191.828 62.3512 187.351 66.8284 181.828 66.8284L16.8286 66.8284C11.3056 66.8284 6.82837 62.3512 6.82837 56.8282Z" fill="#E7E6E6" fill-rule="evenodd"/></g></g><g clip-path="url(#clip54)" filter="url(#fx5)" transform="translate(1079 27)"><g clip-path="url(#clip55)"><path d="M10.1602-4.25391C10.1602-3.54297 10.0293-2.91016 9.76758-2.35547 9.50586-1.80078 9.14258-1.33008 8.67773-0.943359 8.21289-0.556641 7.66602-0.265625 7.03711-0.0703125 6.4082 0.125 5.73047 0.222656 5.00391 0.222656 4.49609 0.222656 4.02539 0.179687 3.5918 0.09375 3.1582 0.0078125 2.77148-0.0976562 2.43164-0.222656 2.0918-0.347656 1.80664-0.476562 1.57617-0.609375 1.3457-0.742187 1.18555-0.855469 1.0957-0.949219 1.00586-1.04297 0.939453-1.16211 0.896484-1.30664 0.853516-1.45117 0.832031-1.64453 0.832031-1.88672 0.832031-2.05859 0.839844-2.20117 0.855469-2.31445 0.871094-2.42773 0.894531-2.51953 0.925781-2.58984 0.957031-2.66016 0.996094-2.70898 1.04297-2.73633 1.08984-2.76367 1.14453-2.77734 1.20703-2.77734 1.31641-2.77734 1.4707-2.71094 1.66992-2.57812 1.86914-2.44531 2.125-2.30078 2.4375-2.14453 2.75-1.98828 3.12695-1.8418 3.56836-1.70508 4.00977-1.56836 4.51953-1.5 5.09766-1.5 5.53516-1.5 5.93555-1.55859 6.29883-1.67578 6.66211-1.79297 6.97461-1.95898 7.23633-2.17383 7.49805-2.38867 7.69922-2.65234 7.83984-2.96484 7.98047-3.27734 8.05078-3.63281 8.05078-4.03125 8.05078-4.46094 7.95312-4.82812 7.75781-5.13281 7.5625-5.4375 7.30469-5.70508 6.98438-5.93555 6.66406-6.16602 6.29883-6.37695 5.88867-6.56836 5.47852-6.75977 5.05859-6.95508 4.62891-7.1543 4.19922-7.35352 3.78125-7.57422 3.375-7.81641 2.96875-8.05859 2.60547-8.34375 2.28516-8.67188 1.96484-9 1.70508-9.38477 1.50586-9.82617 1.30664-10.2676 1.20703-10.7969 1.20703-11.4141 1.20703-12.0469 1.32227-12.6113 1.55273-13.1074 1.7832-13.6035 2.10352-14.0195 2.51367-14.3555 2.92383-14.6914 3.41211-14.9473 3.97852-15.123 4.54492-15.2988 5.15625-15.3867 5.8125-15.3867 6.14844-15.3867 6.48633-15.3574 6.82617-15.2988 7.16602-15.2402 7.48633-15.1621 7.78711-15.0645 8.08789-14.9668 8.35547-14.8574 8.58984-14.7363 8.82422-14.6152 8.97852-14.5176 9.05273-14.4434 9.12695-14.3691 9.17578-14.3105 9.19922-14.2676 9.22266-14.2246 9.24219-14.1699 9.25781-14.1035 9.27344-14.0371 9.28516-13.957 9.29297-13.8633 9.30078-13.7695 9.30469-13.6484 9.30469-13.5 9.30469-13.3594 9.29883-13.2344 9.28711-13.125 9.27539-13.0156 9.25781-12.9238 9.23438-12.8496 9.21094-12.7754 9.17773-12.7207 9.13477-12.6855 9.0918-12.6504 9.04297-12.6328 8.98828-12.6328 8.90234-12.6328 8.76758-12.6875 8.58398-12.7969 8.40039-12.9062 8.17578-13.0293 7.91016-13.166 7.64453-13.3027 7.33008-13.4277 6.9668-13.541 6.60352-13.6543 6.19531-13.7109 5.74219-13.7109 5.32031-13.7109 4.95312-13.6543 4.64062-13.541 4.32812-13.4277 4.07031-13.2773 3.86719-13.0898 3.66406-12.9023 3.51172-12.6797 3.41016-12.4219 3.30859-12.1641 3.25781-11.8906 3.25781-11.6016 3.25781-11.1797 3.35547-10.8164 3.55078-10.5117 3.74609-10.207 4.00586-9.9375 4.33008-9.70312 4.6543-9.46875 5.02344-9.25391 5.4375-9.05859 5.85156-8.86328 6.27344-8.66602 6.70312-8.4668 7.13281-8.26758 7.55469-8.04883 7.96875-7.81055 8.38281-7.57227 8.75195-7.29102 9.07617-6.9668 9.40039-6.64258 9.66211-6.25977 9.86133-5.81836 10.0605-5.37695 10.1602-4.85547 10.1602-4.25391ZM21.793-6.02344C21.793-5.71875 21.7165-5.50195 21.5634-5.37305 21.4104-5.24414 21.2358-5.17969 21.0395-5.17969L14.0938-5.17969C14.0938-4.59375 14.1526-4.06641 14.2704-3.59766 14.3881-3.12891 14.5844-2.72656 14.8591-2.39062 15.1339-2.05469 15.4911-1.79687 15.9308-1.61719 16.3704-1.4375 16.9081-1.34766 17.544-1.34766 18.0464-1.34766 18.4939-1.38867 18.8864-1.4707 19.279-1.55273 19.6185-1.64453 19.9051-1.74609 20.1916-1.84766 20.4272-1.93945 20.6117-2.02148 20.7962-2.10352 20.9355-2.14453 21.0298-2.14453 21.0847-2.14453 21.1338-2.13086 21.1769-2.10352 21.2201-2.07617 21.2534-2.03516 21.277-1.98047 21.3005-1.92578 21.3182-1.84961 21.33-1.75195 21.3418-1.6543 21.3477-1.53516 21.3477-1.39453 21.3477-1.29297 21.3438-1.20508 21.3359-1.13086 21.3281-1.05664 21.3184-0.990234 21.3066-0.931641 21.2949-0.873047 21.2754-0.820312 21.248-0.773438 21.2207-0.726562 21.1855-0.681641 21.1426-0.638672 21.0996-0.595703 20.9727-0.525391 20.7617-0.427734 20.5508-0.330078 20.2773-0.234375 19.9414-0.140625 19.6055-0.046875 19.2168 0.0371094 18.7754 0.111328 18.334 0.185547 17.8633 0.222656 17.3633 0.222656 16.4961 0.222656 15.7363 0.101562 15.084-0.140625 14.4316-0.382812 13.8828-0.742188 13.4375-1.21875 12.9922-1.69531 12.6562-2.29297 12.4297-3.01172 12.2031-3.73047 12.0898-4.56641 12.0898-5.51953 12.0898-6.42578 12.207-7.24023 12.4414-7.96289 12.6758-8.68555 13.0137-9.29883 13.4551-9.80273 13.8965-10.3066 14.4297-10.6934 15.0547-10.9629 15.6797-11.2324 16.3789-11.3672 17.1523-11.3672 17.9805-11.3672 18.6855-11.2344 19.2676-10.9688 19.8496-10.7031 20.3281-10.3457 20.7031-9.89648 21.0781-9.44727 21.3535-8.91992 21.5293-8.31445 21.7051-7.70898 21.793-7.0625 21.793-6.375ZM19.8477-6.59766C19.8711-7.61328 19.6451-8.41016 19.1696-8.98828 18.6942-9.56641 17.9887-9.85547 17.0533-9.85547 16.5738-9.85547 16.1533-9.76562 15.7917-9.58594 15.4301-9.40625 15.1275-9.16797 14.8838-8.87109 14.64-8.57422 14.4514-8.22852 14.3178-7.83398 14.1842-7.43945 14.1095-7.02734 14.0938-6.59766ZM39.3281-0.292969C39.3281-0.230469 39.3145-0.175781 39.2871-0.128906 39.2598-0.0820312 39.2129-0.0449219 39.1465-0.0175781 39.0801 0.00976562 38.9922 0.03125 38.8828 0.046875 38.7734 0.0625 38.6406 0.0703125 38.4844 0.0703125 38.3203 0.0703125 38.1836 0.0625 38.0742 0.046875 37.9648 0.03125 37.875 0.00976562 37.8047-0.0175781 37.7344-0.0449219 37.6836-0.0820312 37.6523-0.128906 37.6211-0.175781 37.6055-0.230469 37.6055-0.292969L37.6055-1.6875C37.0508-1.08594 36.4746-0.617187 35.877-0.28125 35.2793 0.0546875 34.625 0.222656 33.9141 0.222656 33.1406 0.222656 32.4805 0.0722656 31.9336-0.228516 31.3867-0.529297 30.9434-0.935547 30.6035-1.44727 30.2637-1.95898 30.0156-2.56055 29.8594-3.25195 29.7031-3.94336 29.625-4.67188 29.625-5.4375 29.625-6.34375 29.7227-7.16211 29.918-7.89258 30.1133-8.62305 30.4023-9.24609 30.7852-9.76172 31.168-10.2773 31.6426-10.6738 32.209-10.9512 32.7754-11.2285 33.4297-11.3672 34.1719-11.3672 34.7891-11.3672 35.3535-11.2324 35.8652-10.9629 36.377-10.6934 36.8828-10.2969 37.3828-9.77344L37.3828-15.9023C37.3828-15.957 37.3965-16.0098 37.4238-16.0605 37.4512-16.1113 37.5039-16.1504 37.582-16.1777 37.6602-16.2051 37.7598-16.2285 37.8809-16.248 38.002-16.2676 38.1562-16.2773 38.3438-16.2773 38.5391-16.2773 38.6992-16.2676 38.8242-16.248 38.9492-16.2285 39.0469-16.2051 39.1172-16.1777 39.1875-16.1504 39.2402-16.1113 39.2754-16.0605 39.3105-16.0098 39.3281-15.957 39.3281-15.9023ZM37.3828-7.71094C36.8594-8.35938 36.3535-8.85352 35.8652-9.19336 35.377-9.5332 34.8672-9.70312 34.3359-9.70312 33.8438-9.70312 33.4258-9.58594 33.082-9.35156 32.7383-9.11719 32.459-8.80859 32.2441-8.42578 32.0293-8.04297 31.873-7.60937 31.7754-7.125 31.6777-6.64062 31.6289-6.14844 31.6289-5.64844 31.6289-5.11719 31.6699-4.59766 31.752-4.08984 31.834-3.58203 31.9766-3.13086 32.1797-2.73633 32.3828-2.3418 32.6523-2.02539 32.9883-1.78711 33.3242-1.54883 33.7461-1.42969 34.2539-1.42969 34.5117-1.42969 34.7598-1.46484 34.998-1.53516 35.2363-1.60547 35.4805-1.72266 35.7305-1.88672 35.9805-2.05078 36.2422-2.26367 36.5156-2.52539 36.7891-2.78711 37.0781-3.10938 37.3828-3.49219ZM51.9596-6.02344C51.9596-5.71875 51.8831-5.50195 51.7301-5.37305 51.5771-5.24414 51.4024-5.17969 51.2062-5.17969L44.2604-5.17969C44.2604-4.59375 44.3193-4.06641 44.437-3.59766 44.5548-3.12891 44.751-2.72656 45.0258-2.39062 45.3006-2.05469 45.6578-1.79687 46.0974-1.61719 46.5371-1.4375 47.0748-1.34766 47.7107-1.34766 48.2131-1.34766 48.6606-1.38867 49.0531-1.4707 49.4456-1.55273 49.7852-1.64453 50.0717-1.74609 50.3583-1.84766 50.5938-1.93945 50.7783-2.02148 50.9628-2.10352 51.1022-2.14453 51.1965-2.14453 51.2514-2.14453 51.3004-2.13086 51.3436-2.10352 51.3867-2.07617 51.4201-2.03516 51.4436-1.98047 51.4672-1.92578 51.4849-1.84961 51.4967-1.75195 51.5084-1.6543 51.5143-1.53516 51.5143-1.39453 51.5143-1.29297 51.5104-1.20508 51.5026-1.13086 51.4948-1.05664 51.485-0.990234 51.4733-0.931641 51.4616-0.873047 51.4421-0.820312 51.4147-0.773438 51.3874-0.726562 51.3522-0.681641 51.3092-0.638672 51.2663-0.595703 51.1393-0.525391 50.9284-0.427734 50.7174-0.330078 50.444-0.234375 50.1081-0.140625 49.7721-0.046875 49.3835 0.0371094 48.9421 0.111328 48.5006 0.185547 48.0299 0.222656 47.5299 0.222656 46.6628 0.222656 45.903 0.101562 45.2507-0.140625 44.5983-0.382812 44.0495-0.742188 43.6042-1.21875 43.1589-1.69531 42.8229-2.29297 42.5964-3.01172 42.3698-3.73047 42.2565-4.56641 42.2565-5.51953 42.2565-6.42578 42.3737-7.24023 42.6081-7.96289 42.8424-8.68555 43.1803-9.29883 43.6217-9.80273 44.0631-10.3066 44.5964-10.6934 45.2214-10.9629 45.8464-11.2324 46.5456-11.3672 47.319-11.3672 48.1471-11.3672 48.8522-11.2344 49.4342-10.9688 50.0163-10.7031 50.4948-10.3457 50.8698-9.89648 51.2448-9.44727 51.5202-8.91992 51.696-8.31445 51.8717-7.70898 51.9596-7.0625 51.9596-6.375ZM50.0143-6.59766C50.0378-7.61328 49.8117-8.41016 49.3363-8.98828 48.8608-9.56641 48.1554-9.85547 47.22-9.85547 46.7405-9.85547 46.3199-9.76562 45.9584-9.58594 45.5968-9.40625 45.2941-9.16797 45.0504-8.87109 44.8067-8.57422 44.618-8.22852 44.4844-7.83398 44.3508-7.43945 44.2762-7.02734 44.2604-6.59766ZM48.1159-15.9961C48.1628-16.082 48.2174-16.1523 48.2799-16.207 48.3424-16.2617 48.4186-16.3047 48.5085-16.3359 48.5983-16.3672 48.7096-16.3906 48.8424-16.4062 48.9753-16.4219 49.1354-16.4297 49.3229-16.4297 49.5417-16.4297 49.7194-16.416 49.8561-16.3887 49.9928-16.3613 50.0885-16.3223 50.1432-16.2715 50.1979-16.2207 50.2214-16.1621 50.2135-16.0957 50.2057-16.0293 50.1706-15.9609 50.1081-15.8906L47.987-13.1602C47.9245-13.082 47.8678-13.0195 47.8171-12.9727 47.7663-12.9258 47.7077-12.8887 47.6413-12.8613 47.5749-12.834 47.4889-12.8145 47.3835-12.8027 47.278-12.791 47.1471-12.7852 46.9909-12.7852 46.819-12.7852 46.6823-12.7969 46.5807-12.8203 46.4792-12.8437 46.4069-12.875 46.3639-12.9141 46.321-12.9531 46.3053-13.0039 46.3171-13.0664 46.3288-13.1289 46.362-13.2031 46.4167-13.2891ZM62.5417-1.89844C62.5417-1.76562 62.5378-1.65039 62.5299-1.55273 62.5221-1.45508 62.5085-1.37305 62.4889-1.30664 62.4694-1.24023 62.446-1.18164 62.4186-1.13086 62.3913-1.08008 62.3288-1.00586 62.2311-0.908203 62.1335-0.810547 61.9674-0.689453 61.7331-0.544922 61.4987-0.400391 61.235-0.271484 60.9421-0.158203 60.6491-0.0449219 60.3307 0.046875 59.987 0.117188 59.6432 0.1875 59.2878 0.222656 58.9206 0.222656 58.1628 0.222656 57.4909 0.0976562 56.9049-0.152344 56.319-0.402344 55.8288-0.767578 55.4342-1.24805 55.0397-1.72852 54.7389-2.31836 54.5319-3.01758 54.3249-3.7168 54.2214-4.52344 54.2214-5.4375 54.2214-6.47656 54.3483-7.36914 54.6022-8.11523 54.8561-8.86133 55.2038-9.47266 55.6452-9.94922 56.0866-10.4258 56.6061-10.7793 57.2038-11.0098 57.8014-11.2402 58.4479-11.3555 59.1432-11.3555 59.4792-11.3555 59.8053-11.3242 60.1217-11.2617 60.4381-11.1992 60.7292-11.1172 60.9948-11.0156 61.2604-10.9141 61.4967-10.7969 61.7038-10.6641 61.9108-10.5312 62.0612-10.418 62.1549-10.3242 62.2487-10.2305 62.3131-10.1562 62.3483-10.1016 62.3835-10.0469 62.4128-9.98242 62.4362-9.9082 62.4596-9.83398 62.4753-9.75 62.4831-9.65625 62.4909-9.5625 62.4948-9.44531 62.4948-9.30469 62.4948-9 62.4596-8.78711 62.3893-8.66602 62.319-8.54492 62.2331-8.48438 62.1315-8.48438 62.0143-8.48438 61.8796-8.54883 61.7272-8.67773 61.5749-8.80664 61.3815-8.94922 61.1471-9.10547 60.9128-9.26172 60.6296-9.4043 60.2975-9.5332 59.9655-9.66211 59.5729-9.72656 59.1198-9.72656 58.1901-9.72656 57.4772-9.36914 56.9811-8.6543 56.485-7.93945 56.237-6.90234 56.237-5.54297 56.237-4.86328 56.3014-4.26758 56.4303-3.75586 56.5592-3.24414 56.7487-2.81641 56.9987-2.47266 57.2487-2.12891 57.5553-1.87305 57.9186-1.70508 58.2819-1.53711 58.6979-1.45312 59.1667-1.45312 59.612-1.45312 60.0026-1.52344 60.3385-1.66406 60.6745-1.80469 60.9655-1.95898 61.2116-2.12695 61.4577-2.29492 61.6647-2.44727 61.8327-2.58398 62.0006-2.7207 62.1315-2.78906 62.2253-2.78906 62.2799-2.78906 62.3268-2.77344 62.3659-2.74219 62.4049-2.71094 62.4381-2.6582 62.4655-2.58398 62.4928-2.50977 62.5124-2.41602 62.5241-2.30273 62.5358-2.18945 62.5417-2.05469 62.5417-1.89844ZM74.7349-5.68359C74.7349-4.82422 74.6216-4.0332 74.3951-3.31055 74.1685-2.58789 73.8306-1.96484 73.3814-1.44141 72.9322-0.917969 72.3697-0.509766 71.6939-0.216797 71.0181 0.0761719 70.2349 0.222656 69.3443 0.222656 68.4771 0.222656 67.7212 0.09375 67.0767-0.164062 66.4322-0.421875 65.8951-0.796875 65.4654-1.28906 65.0357-1.78125 64.7154-2.37891 64.5044-3.08203 64.2935-3.78516 64.188-4.58203 64.188-5.47266 64.188-6.33203 64.2993-7.12305 64.522-7.8457 64.7447-8.56836 65.0806-9.19141 65.5298-9.71484 65.979-10.2383 66.5396-10.6445 67.2115-10.9336 67.8833-11.2227 68.6685-11.3672 69.5669-11.3672 70.4341-11.3672 71.19-11.2383 71.8345-10.9805 72.479-10.7227 73.0161-10.3477 73.4458-9.85547 73.8755-9.36328 74.1978-8.76562 74.4126-8.0625 74.6275-7.35937 74.7349-6.56641 74.7349-5.68359ZM72.731-5.55469C72.731-6.125 72.6778-6.66406 72.5713-7.17188 72.4649-7.67969 72.2895-8.125 72.0451-8.50781 71.8007-8.89062 71.4696-9.19336 71.0518-9.41602 70.634-9.63867 70.1137-9.75 69.4909-9.75 68.9155-9.75 68.4208-9.64844 68.007-9.44531 67.5931-9.24219 67.2521-8.95508 66.9841-8.58398 66.7161-8.21289 66.5171-7.77344 66.387-7.26562 66.257-6.75781 66.1919-6.20312 66.1919-5.60156 66.1919-5.02344 66.2451-4.48047 66.3516-3.97266 66.458-3.46484 66.6354-3.02148 66.8837-2.64258 67.132-2.26367 67.465-1.96289 67.8828-1.74023 68.3006-1.51758 68.8209-1.40625 69.4437-1.40625 70.0113-1.40625 70.504-1.50781 70.9218-1.71094 71.3396-1.91406 71.6825-2.19922 71.9505-2.56641 72.2185-2.93359 72.4156-3.37109 72.5417-3.87891 72.6679-4.38672 72.731-4.94531 72.731-5.55469ZM86.675-0.292969C86.675-0.230469 86.6594-0.177734 86.6281-0.134766 86.5969-0.0917969 86.5461-0.0546875 86.4758-0.0234375 86.4055 0.0078125 86.3078 0.03125 86.1828 0.046875 86.0578 0.0625 85.9016 0.0703125 85.7141 0.0703125 85.5188 0.0703125 85.3586 0.0625 85.2336 0.046875 85.1086 0.03125 85.0109 0.0078125 84.9406-0.0234375 84.8703-0.0546875 84.8195-0.0917969 84.7883-0.134766 84.757-0.177734 84.7414-0.230469 84.7414-0.292969L84.7414-6.46875C84.7414-7.07031 84.6945-7.55469 84.6008-7.92188 84.507-8.28906 84.3703-8.60547 84.1906-8.87109 84.0109-9.13672 83.7785-9.33984 83.4934-9.48047 83.2082-9.62109 82.8781-9.69141 82.5031-9.69141 82.0188-9.69141 81.5344-9.51953 81.05-9.17578 80.5656-8.83203 80.0578-8.32812 79.5266-7.66406L79.5266-0.292969C79.5266-0.230469 79.5109-0.177734 79.4797-0.134766 79.4484-0.0917969 79.3977-0.0546875 79.3273-0.0234375 79.257 0.0078125 79.1594 0.03125 79.0344 0.046875 78.9094 0.0625 78.7492 0.0703125 78.5539 0.0703125 78.3664 0.0703125 78.2102 0.0625 78.0852 0.046875 77.9602 0.03125 77.8605 0.0078125 77.7863-0.0234375 77.7121-0.0546875 77.6613-0.0917969 77.634-0.134766 77.6066-0.177734 77.593-0.230469 77.593-0.292969L77.593-10.8398C77.593-10.9023 77.6047-10.9551 77.6281-10.998 77.6516-11.041 77.6984-11.0801 77.7688-11.1152 77.8391-11.1504 77.9289-11.1738 78.0383-11.1855 78.1477-11.1973 78.2922-11.2031 78.4719-11.2031 78.6438-11.2031 78.7863-11.1973 78.8996-11.1855 79.0129-11.1738 79.1008-11.1504 79.1633-11.1152 79.2258-11.0801 79.2707-11.041 79.298-10.998 79.3254-10.9551 79.3391-10.9023 79.3391-10.8398L79.3391-9.44531C79.9328-10.1094 80.5246-10.5957 81.1145-10.9043 81.7043-11.2129 82.3-11.3672 82.9016-11.3672 83.6047-11.3672 84.1965-11.248 84.677-11.0098 85.1574-10.7715 85.5461-10.4531 85.843-10.0547 86.1398-9.65625 86.3527-9.18945 86.4816-8.6543 86.6105-8.11914 86.675-7.47656 86.675-6.72656ZM99.3417-0.292969C99.3417-0.230469 99.326-0.177734 99.2948-0.134766 99.2635-0.0917969 99.2128-0.0546875 99.1424-0.0234375 99.0721 0.0078125 98.9745 0.03125 98.8495 0.046875 98.7245 0.0625 98.5682 0.0703125 98.3807 0.0703125 98.1854 0.0703125 98.0253 0.0625 97.9003 0.046875 97.7753 0.03125 97.6776 0.0078125 97.6073-0.0234375 97.537-0.0546875 97.4862-0.0917969 97.4549-0.134766 97.4237-0.177734 97.4081-0.230469 97.4081-0.292969L97.4081-6.46875C97.4081-7.07031 97.3612-7.55469 97.2674-7.92188 97.1737-8.28906 97.037-8.60547 96.8573-8.87109 96.6776-9.13672 96.4452-9.33984 96.16-9.48047 95.8749-9.62109 95.5448-9.69141 95.1698-9.69141 94.6854-9.69141 94.201-9.51953 93.7167-9.17578 93.2323-8.83203 92.7245-8.32812 92.1932-7.66406L92.1932-0.292969C92.1932-0.230469 92.1776-0.177734 92.1464-0.134766 92.1151-0.0917969 92.0643-0.0546875 91.994-0.0234375 91.9237 0.0078125 91.826 0.03125 91.701 0.046875 91.576 0.0625 91.4159 0.0703125 91.2206 0.0703125 91.0331 0.0703125 90.8768 0.0625 90.7518 0.046875 90.6268 0.03125 90.5272 0.0078125 90.453-0.0234375 90.3788-0.0546875 90.328-0.0917969 90.3007-0.134766 90.2733-0.177734 90.2596-0.230469 90.2596-0.292969L90.2596-10.8398C90.2596-10.9023 90.2714-10.9551 90.2948-10.998 90.3182-11.041 90.3651-11.0801 90.4354-11.1152 90.5057-11.1504 90.5956-11.1738 90.7049-11.1855 90.8143-11.1973 90.9589-11.2031 91.1385-11.2031 91.3104-11.2031 91.453-11.1973 91.5663-11.1855 91.6796-11.1738 91.7674-11.1504 91.8299-11.1152 91.8924-11.0801 91.9374-11.041 91.9647-10.998 91.9921-10.9551 92.0057-10.9023 92.0057-10.8398L92.0057-9.44531C92.5995-10.1094 93.1913-10.5957 93.7811-10.9043 94.371-11.2129 94.9667-11.3672 95.5682-11.3672 96.2714-11.3672 96.8632-11.248 97.3436-11.0098 97.8241-10.7715 98.2128-10.4531 98.5096-10.0547 98.8065-9.65625 99.0194-9.18945 99.1483-8.6543 99.2772-8.11914 99.3417-7.47656 99.3417-6.72656ZM111.926-6.02344C111.926-5.71875 111.85-5.50195 111.697-5.37305 111.544-5.24414 111.369-5.17969 111.173-5.17969L104.227-5.17969C104.227-4.59375 104.286-4.06641 104.404-3.59766 104.521-3.12891 104.718-2.72656 104.992-2.39062 105.267-2.05469 105.624-1.79687 106.064-1.61719 106.504-1.4375 107.041-1.34766 107.677-1.34766 108.18-1.34766 108.627-1.38867 109.02-1.4707 109.412-1.55273 109.752-1.64453 110.038-1.74609 110.325-1.84766 110.56-1.93945 110.745-2.02148 110.93-2.10352 111.069-2.14453 111.163-2.14453 111.218-2.14453 111.267-2.13086 111.31-2.10352 111.353-2.07617 111.387-2.03516 111.41-1.98047 111.434-1.92578 111.452-1.84961 111.463-1.75195 111.475-1.6543 111.481-1.53516 111.481-1.39453 111.481-1.29297 111.477-1.20508 111.469-1.13086 111.461-1.05664 111.452-0.990234 111.44-0.931641 111.428-0.873047 111.409-0.820312 111.381-0.773438 111.354-0.726562 111.319-0.681641 111.276-0.638672 111.233-0.595703 111.106-0.525391 110.895-0.427734 110.684-0.330078 110.411-0.234375 110.075-0.140625 109.739-0.046875 109.35 0.0371094 108.909 0.111328 108.467 0.185547 107.997 0.222656 107.497 0.222656 106.629 0.222656 105.87 0.101562 105.217-0.140625 104.565-0.382812 104.016-0.742188 103.571-1.21875 103.126-1.69531 102.79-2.29297 102.563-3.01172 102.336-3.73047 102.223-4.56641 102.223-5.51953 102.223-6.42578 102.34-7.24023 102.575-7.96289 102.809-8.68555 103.147-9.29883 103.588-9.80273 104.03-10.3066 104.563-10.6934 105.188-10.9629 105.813-11.2324 106.512-11.3672 107.286-11.3672 108.114-11.3672 108.819-11.2344 109.401-10.9688 109.983-10.7031 110.461-10.3457 110.836-9.89648 111.211-9.44727 111.487-8.91992 111.663-8.31445 111.838-7.70898 111.926-7.0625 111.926-6.375ZM109.981-6.59766C110.004-7.61328 109.778-8.41016 109.303-8.98828 108.827-9.56641 108.122-9.85547 107.187-9.85547 106.707-9.85547 106.287-9.76562 105.925-9.58594 105.563-9.40625 105.261-9.16797 105.017-8.87109 104.773-8.57422 104.585-8.22852 104.451-7.83398 104.318-7.43945 104.243-7.02734 104.227-6.59766ZM122.508-1.89844C122.508-1.76562 122.504-1.65039 122.497-1.55273 122.489-1.45508 122.475-1.37305 122.456-1.30664 122.436-1.24023 122.413-1.18164 122.385-1.13086 122.358-1.08008 122.295-1.00586 122.198-0.908203 122.1-0.810547 121.934-0.689453 121.7-0.544922 121.465-0.400391 121.202-0.271484 120.909-0.158203 120.616-0.0449219 120.297 0.046875 119.954 0.117188 119.61 0.1875 119.254 0.222656 118.887 0.222656 118.129 0.222656 117.458 0.0976562 116.872-0.152344 116.286-0.402344 115.795-0.767578 115.401-1.24805 115.006-1.72852 114.706-2.31836 114.499-3.01758 114.292-3.7168 114.188-4.52344 114.188-5.4375 114.188-6.47656 114.315-7.36914 114.569-8.11523 114.823-8.86133 115.17-9.47266 115.612-9.94922 116.053-10.4258 116.573-10.7793 117.17-11.0098 117.768-11.2402 118.415-11.3555 119.11-11.3555 119.446-11.3555 119.772-11.3242 120.088-11.2617 120.405-11.1992 120.696-11.1172 120.961-11.0156 121.227-10.9141 121.463-10.7969 121.67-10.6641 121.877-10.5312 122.028-10.418 122.122-10.3242 122.215-10.2305 122.28-10.1562 122.315-10.1016 122.35-10.0469 122.379-9.98242 122.403-9.9082 122.426-9.83398 122.442-9.75 122.45-9.65625 122.458-9.5625 122.461-9.44531 122.461-9.30469 122.461-9 122.426-8.78711 122.356-8.66602 122.286-8.54492 122.2-8.48438 122.098-8.48438 121.981-8.48438 121.846-8.54883 121.694-8.67773 121.542-8.80664 121.348-8.94922 121.114-9.10547 120.879-9.26172 120.596-9.4043 120.264-9.5332 119.932-9.66211 119.54-9.72656 119.086-9.72656 118.157-9.72656 117.444-9.36914 116.948-8.6543 116.452-7.93945 116.204-6.90234 116.204-5.54297 116.204-4.86328 116.268-4.26758 116.397-3.75586 116.526-3.24414 116.715-2.81641 116.965-2.47266 117.215-2.12891 117.522-1.87305 117.885-1.70508 118.249-1.53711 118.665-1.45312 119.133-1.45312 119.579-1.45312 119.969-1.52344 120.305-1.66406 120.641-1.80469 120.932-1.95898 121.178-2.12695 121.424-2.29492 121.631-2.44727 121.799-2.58398 121.967-2.7207 122.098-2.78906 122.192-2.78906 122.247-2.78906 122.293-2.77344 122.333-2.74219 122.372-2.71094 122.405-2.6582 122.432-2.58398 122.46-2.50977 122.479-2.41602 122.491-2.30273 122.502-2.18945 122.508-2.05469 122.508-1.89844ZM130.577-1.06641C130.577-0.839844 130.562-0.660156 130.53-0.527344 130.499-0.394531 130.452-0.296875 130.39-0.234375 130.327-0.171875 130.234-0.113281 130.109-0.0585938 129.984-0.00390625 129.841 0.0410156 129.681 0.0761719 129.521 0.111328 129.351 0.140625 129.171 0.164062 128.991 0.1875 128.812 0.199219 128.632 0.199219 128.085 0.199219 127.616 0.126953 127.226-0.0175781 126.835-0.162109 126.515-0.380859 126.265-0.673828 126.015-0.966797 125.833-1.33789 125.72-1.78711 125.607-2.23633 125.55-2.76562 125.55-3.375L125.55-9.53906 124.073-9.53906C123.956-9.53906 123.862-9.60156 123.792-9.72656 123.722-9.85156 123.687-10.0547 123.687-10.3359 123.687-10.4844 123.696-10.6094 123.716-10.7109 123.736-10.8125 123.761-10.8965 123.792-10.9629 123.823-11.0293 123.864-11.0762 123.915-11.1035 123.966-11.1309 124.023-11.1445 124.085-11.1445L125.55-11.1445 125.55-13.6523C125.55-13.707 125.564-13.7578 125.591-13.8047 125.618-13.8516 125.669-13.8926 125.743-13.9277 125.818-13.9629 125.917-13.9883 126.042-14.0039 126.167-14.0195 126.323-14.0273 126.511-14.0273 126.706-14.0273 126.866-14.0195 126.991-14.0039 127.116-13.9883 127.214-13.9629 127.284-13.9277 127.355-13.8926 127.405-13.8516 127.437-13.8047 127.468-13.7578 127.484-13.707 127.484-13.6523L127.484-11.1445 130.191-11.1445C130.253-11.1445 130.308-11.1309 130.355-11.1035 130.402-11.0762 130.443-11.0293 130.478-10.9629 130.513-10.8965 130.538-10.8125 130.554-10.7109 130.57-10.6094 130.577-10.4844 130.577-10.3359 130.577-10.0547 130.542-9.85156 130.472-9.72656 130.402-9.60156 130.308-9.53906 130.191-9.53906L127.484-9.53906 127.484-3.65625C127.484-2.92969 127.591-2.38086 127.806-2.00977 128.021-1.63867 128.405-1.45312 128.96-1.45312 129.14-1.45312 129.3-1.4707 129.441-1.50586 129.581-1.54102 129.706-1.57812 129.816-1.61719 129.925-1.65625 130.019-1.69336 130.097-1.72852 130.175-1.76367 130.245-1.78125 130.308-1.78125 130.347-1.78125 130.384-1.77148 130.419-1.75195 130.454-1.73242 130.482-1.69531 130.501-1.64062 130.521-1.58594 130.538-1.51172 130.554-1.41797 130.57-1.32422 130.577-1.20703 130.577-1.06641ZM141.833-6.02344C141.833-5.71875 141.756-5.50195 141.603-5.37305 141.45-5.24414 141.276-5.17969 141.079-5.17969L134.134-5.17969C134.134-4.59375 134.193-4.06641 134.31-3.59766 134.428-3.12891 134.624-2.72656 134.899-2.39062 135.174-2.05469 135.531-1.79687 135.971-1.61719 136.41-1.4375 136.948-1.34766 137.584-1.34766 138.086-1.34766 138.534-1.38867 138.926-1.4707 139.319-1.55273 139.658-1.64453 139.945-1.74609 140.232-1.84766 140.467-1.93945 140.652-2.02148 140.836-2.10352 140.976-2.14453 141.07-2.14453 141.125-2.14453 141.174-2.13086 141.217-2.10352 141.26-2.07617 141.293-2.03516 141.317-1.98047 141.341-1.92578 141.358-1.84961 141.37-1.75195 141.382-1.6543 141.388-1.53516 141.388-1.39453 141.388-1.29297 141.384-1.20508 141.376-1.13086 141.368-1.05664 141.358-0.990234 141.347-0.931641 141.335-0.873047 141.315-0.820312 141.288-0.773438 141.261-0.726562 141.226-0.681641 141.183-0.638672 141.14-0.595703 141.013-0.525391 140.802-0.427734 140.591-0.330078 140.317-0.234375 139.981-0.140625 139.645-0.046875 139.257 0.0371094 138.815 0.111328 138.374 0.185547 137.903 0.222656 137.403 0.222656 136.536 0.222656 135.776 0.101562 135.124-0.140625 134.472-0.382812 133.923-0.742188 133.477-1.21875 133.032-1.69531 132.696-2.29297 132.47-3.01172 132.243-3.73047 132.13-4.56641 132.13-5.51953 132.13-6.42578 132.247-7.24023 132.481-7.96289 132.716-8.68555 133.054-9.29883 133.495-9.80273 133.936-10.3066 134.47-10.6934 135.095-10.9629 135.72-11.2324 136.419-11.3672 137.192-11.3672 138.02-11.3672 138.726-11.2344 139.308-10.9688 139.89-10.7031 140.368-10.3457 140.743-9.89648 141.118-9.44727 141.394-8.91992 141.569-8.31445 141.745-7.70898 141.833-7.0625 141.833-6.375ZM139.888-6.59766C139.911-7.61328 139.685-8.41016 139.21-8.98828 138.734-9.56641 138.029-9.85547 137.093-9.85547 136.614-9.85547 136.193-9.76562 135.832-9.58594 135.47-9.40625 135.167-9.16797 134.924-8.87109 134.68-8.57422 134.491-8.22852 134.358-7.83398 134.224-7.43945 134.149-7.02734 134.134-6.59766ZM150.997-10.1484C150.997-9.97656 150.993-9.83203 150.985-9.71484 150.977-9.59766 150.962-9.50586 150.938-9.43945 150.915-9.37305 150.886-9.32227 150.851-9.28711 150.815-9.25195 150.767-9.23438 150.704-9.23438 150.642-9.23438 150.565-9.25195 150.476-9.28711 150.386-9.32227 150.284-9.35742 150.171-9.39258 150.058-9.42773 149.931-9.46094 149.79-9.49219 149.649-9.52344 149.497-9.53906 149.333-9.53906 149.138-9.53906 148.946-9.5 148.759-9.42188 148.571-9.34375 148.374-9.21484 148.167-9.03516 147.96-8.85547 147.743-8.61719 147.517-8.32031 147.29-8.02344 147.04-7.66016 146.767-7.23047L146.767-0.292969C146.767-0.230469 146.751-0.177734 146.72-0.134766 146.688-0.0917969 146.638-0.0546875 146.567-0.0234375 146.497 0.0078125 146.399 0.03125 146.274 0.046875 146.149 0.0625 145.989 0.0703125 145.794 0.0703125 145.606 0.0703125 145.45 0.0625 145.325 0.046875 145.2 0.03125 145.101 0.0078125 145.026-0.0234375 144.952-0.0546875 144.901-0.0917969 144.874-0.134766 144.847-0.177734 144.833-0.230469 144.833-0.292969L144.833-10.8398C144.833-10.9023 144.845-10.9551 144.868-10.998 144.892-11.041 144.938-11.0801 145.009-11.1152 145.079-11.1504 145.169-11.1738 145.278-11.1855 145.388-11.1973 145.532-11.2031 145.712-11.2031 145.884-11.2031 146.026-11.1973 146.14-11.1855 146.253-11.1738 146.341-11.1504 146.403-11.1152 146.466-11.0801 146.511-11.041 146.538-10.998 146.565-10.9551 146.579-10.9023 146.579-10.8398L146.579-9.30469C146.868-9.72656 147.14-10.0703 147.394-10.3359 147.647-10.6016 147.888-10.8105 148.114-10.9629 148.341-11.1152 148.565-11.2207 148.788-11.2793 149.011-11.3379 149.235-11.3672 149.462-11.3672 149.563-11.3672 149.679-11.3613 149.808-11.3496 149.936-11.3379 150.071-11.3164 150.212-11.2852 150.352-11.2539 150.479-11.2188 150.593-11.1797 150.706-11.1406 150.786-11.1016 150.833-11.0625 150.88-11.0234 150.911-10.9863 150.927-10.9512 150.942-10.916 150.956-10.8711 150.968-10.8164 150.979-10.7617 150.987-10.6816 150.991-10.5762 150.995-10.4707 150.997-10.3281 150.997-10.1484Z" transform="translate(21.6927 36)"/></g></g><path d="M1081 33.0002C1081 27.4772 1085.48 23 1091 23L1256 23C1261.52 23 1266 27.4772 1266 33.0002L1266 72.9998C1266 78.5228 1261.52 83 1256 83L1091 83C1085.48 83 1081 78.5228 1081 72.9998Z" fill="#E7E6E6" fill-rule="evenodd"/><text font-family="Calibri,Calibri_MSFontService,sans-serif" font-weight="400" font-size="24" transform="translate(1097.86 60)">Se déconnecter</text></g></svg>