<svg width="1280" height="720" xmlns="http://www.w3.org/2000/svg" xmlns:xlink="http://www.w3.org/1999/xlink" overflow="hidden"><defs><filter id="fx0" x="-10%" y="-10%" width="120%" height="120%" filterUnits="userSpaceOnUse" primitiveUnits="userSpaceOnUse"><feComponentTransfer color-interpolation-filters="sRGB"><feFuncR type="discrete" tableValues="0 0"/><feFuncG type="discrete" tableValues="0 0"/><feFuncB type="discrete" tableValues="0 0"/><feFuncA type="linear" slope="0.4" intercept="0"/></feComponentTransfer><feGaussianBlur stdDeviation="2.22222 2.22222"/></filter><filter id="fx1" x="-10%" y="-10%" width="120%" height="120%" filterUnits="userSpaceOnUse" primitiveUnits="userSpaceOnUse"><feComponentTransfer color-interpolation-filters="sRGB"><feFuncR type="discrete" tableValues="0 0"/><feFuncG type="discrete" tableValues="0 0"/><feFuncB type="discrete" tableValues="0 0"/><feFuncA type="linear" slope="0.4" intercept="0"/></feComponentTransfer><feGaussianBlur stdDeviation="2.22222 2.22222"/></filter><clipPath id="clip2"><rect x="0" y="0" width="1280" height="720"/></clipPath><clipPath id="clip3"><rect x="588" y="0" width="104" height="105"/></clipPath><clipPath id="clip4"><rect x="588" y="0" width="104" height="105"/></clipPath><clipPath id="clip5"><rect x="588" y="0" width="104" height="105"/></clipPath><clipPath id="clip6"><rect x="-4" y="-4" width="232" height="152"/></clipPath><clipPath id="clip7"><rect x="0" y="0" width="224" height="144"/></clipPath><clipPath id="clip8"><rect x="-4" y="-4" width="232" height="152"/></clipPath><clipPath id="clip9"><rect x="0" y="0" width="224" height="144"/></clipPath></defs><g clip-path="url(#clip2)"><rect x="0" y="0" width="1280" height="720" fill="#FFFFFF"/><g clip-path="url(#clip3)"><g clip-path="url(#clip4)"><g clip-path="url(#clip5)"><path d="M82.3333 19.5C82.3333 24.2865 68.7526 28.1667 52 28.1667 35.2474 28.1667 21.6667 24.2865 21.6667 19.5 21.6667 14.7135 35.2474 10.8333 52 10.8333 68.7526 10.8333 82.3333 14.7135 82.3333 19.5Z" fill="#3AB395" transform="matrix(1 0 0 1.00962 588 0)"/><path d="M73.6667 41.1667C72.3667 41.1667 71.5 40.3 71.5 39 71.5 37.7 72.3667 36.8333 73.6667 36.8333 74.9667 36.8333 75.8333 37.7 75.8333 39 75.8333 40.3 74.9667 41.1667 73.6667 41.1667ZM52 32.5C35.3167 32.5 21.6667 28.6 21.6667 23.8333L21.6667 41.1667C21.6667 45.9333 35.3167 49.8333 52 49.8333 68.6833 49.8333 82.3333 45.9333 82.3333 41.1667L82.3333 23.8333C82.3333 28.6 68.6833 32.5 52 32.5Z" fill="#3AB395" transform="matrix(1 0 0 1.00962 588 0)"/><path d="M73.6667 62.8333C72.3667 62.8333 71.5 61.9667 71.5 60.6667 71.5 59.3667 72.3667 58.5 73.6667 58.5 74.9667 58.5 75.8333 59.3667 75.8333 60.6667 75.8333 61.9667 74.9667 62.8333 73.6667 62.8333ZM52 54.1667C35.3167 54.1667 21.6667 50.2667 21.6667 45.5L21.6667 62.8333C21.6667 67.6 35.3167 71.5 52 71.5 68.6833 71.5 82.3333 67.6 82.3333 62.8333L82.3333 45.5C82.3333 50.2667 68.6833 54.1667 52 54.1667Z" fill="#3AB395" transform="matrix(1 0 0 1.00962 588 0)"/><path d="M73.6667 84.5C72.3667 84.5 71.5 83.6333 71.5 82.3333 71.5 81.0333 72.3667 80.1667 73.6667 80.1667 74.9667 80.1667 75.8333 81.0333 75.8333 82.3333 75.8333 83.6333 74.9667 84.5 73.6667 84.5ZM52 75.8333C35.3167 75.8333 21.6667 71.9333 21.6667 67.1667L21.6667 84.5C21.6667 89.2667 35.3167 93.1667 52 93.1667 68.6833 93.1667 82.3333 89.2667 82.3333 84.5L82.3333 67.1667C82.3333 71.9333 68.6833 75.8333 52 75.8333Z" fill="#3AB395" transform="matrix(1 0 0 1.00962 588 0)"/></g></g></g><path d="M564.5 128.667C564.5 115.872 574.872 105.5 587.667 105.5L693.333 105.5C706.128 105.5 716.5 115.872 716.5 128.667L716.5 221.333C716.5 234.128 706.128 244.5 693.333 244.5L587.667 244.5C574.872 244.5 564.5 234.128 564.5 221.333Z" stroke="#000000" stroke-miterlimit="8" fill="#FFFFFF" fill-rule="evenodd"/><text font-family="Calibri,Calibri_MSFontService,sans-serif" font-weight="400" font-size="15" transform="translate(626.2 131)">User<tspan font-family="Arial,Arial_MSFontService,sans-serif" font-size="15" x="-45.4133" y="30">•</tspan><tspan font-size="15" x="-27.4133" y="30">username</tspan></text><path d="M598.786 161.733 618.786 161.733 638.786 161.733 658.786 161.733 658.786 163.733 638.786 163.733 618.786 163.733 598.786 163.733Z" fill-rule="evenodd"/><text font-family="Arial,Arial_MSFontService,sans-serif" font-weight="400" font-size="15" transform="translate(580.786 179)">•<tspan font-family="Calibri,Calibri_MSFontService,sans-serif" font-size="15" x="18" y="0">password</tspan><tspan font-size="15" x="0" y="19">•</tspan><tspan font-family="Calibri,Calibri_MSFontService,sans-serif" font-size="15" x="18" y="19">email</tspan></text><path d="M195.5 389.834C195.5 375.842 206.842 364.5 220.834 364.5L322.166 364.5C336.158 364.5 347.5 375.842 347.5 389.834L347.5 547.166C347.5 561.158 336.158 572.5 322.166 572.5L220.834 572.5C206.842 572.5 195.5 561.158 195.5 547.166Z" stroke="#000000" stroke-miterlimit="8" fill="#FFFFFF" fill-rule="evenodd"/><text font-family="Calibri,Calibri_MSFontService,sans-serif" font-weight="400" font-size="15" transform="translate(252.469 390)">Marks<tspan font-family="Arial,Arial_MSFontService,sans-serif" font-size="15" x="-40.08" y="29">•</tspan><tspan font-size="15" x="-22.08" y="29">title</tspan></text><path d="M230.389 420.048 254.389 420.048 254.389 422.048 230.389 422.048Z" fill-rule="evenodd"/><text font-family="Arial,Arial_MSFontService,sans-serif" font-weight="400" font-size="15" transform="translate(212.389 437)">•<tspan font-family="Calibri,Calibri_MSFontService,sans-serif" font-size="15" x="18" y="0">mark</tspan><tspan font-size="15" x="0" y="17">•</tspan><tspan font-family="Calibri,Calibri_MSFontService,sans-serif" font-size="15" x="18" y="17">id</tspan><tspan font-size="15" x="0" y="35">•</tspan><tspan font-family="Calibri,Calibri_MSFontService,sans-serif" font-size="15" x="18" y="35">date</tspan><tspan font-size="15" x="0" y="53">•</tspan><tspan font-family="Calibri,Calibri_MSFontService,sans-serif" font-size="15" x="18" y="53">username</tspan></text><path d="M230.389 492.048 231.389 492.048 231.389 493.048 230.389 493.048ZM232.389 492.048 233.389 492.048 233.389 493.048 232.389 493.048ZM234.389 492.048 235.389 492.048 235.389 493.048 234.389 493.048ZM236.389 492.048 237.389 492.048 237.389 493.048 236.389 493.048ZM238.389 492.048 239.389 492.048 239.389 493.048 238.389 493.048ZM240.389 492.048 241.389 492.048 241.389 493.048 240.389 493.048ZM242.389 492.048 243.389 492.048 243.389 493.048 242.389 493.048ZM244.389 492.048 245.389 492.048 245.389 493.048 244.389 493.048ZM246.389 492.048 247.389 492.048 247.389 493.048 246.389 493.048ZM248.389 492.048 249.389 492.048 249.389 493.048 248.389 493.048ZM250.389 492.048 251.389 492.048 251.389 493.048 250.389 493.048ZM252.389 492.048 253.389 492.048 253.389 493.048 252.389 493.048ZM254.389 492.048 255.389 492.048 255.389 493.048 254.389 493.048ZM256.389 492.048 257.389 492.048 257.389 493.048 256.389 493.048ZM258.389 492.048 259.389 492.048 259.389 493.048 258.389 493.048ZM260.389 492.048 261.389 492.048 261.389 493.048 260.389 493.048ZM262.389 492.048 263.389 492.048 263.389 493.048 262.389 493.048ZM264.389 492.048 265.389 492.048 265.389 493.048 264.389 493.048ZM266.389 492.048 267.389 492.048 267.389 493.048 266.389 493.048ZM268.389 492.048 269.389 492.048 269.389 493.048 268.389 493.048ZM270.389 492.048 271.389 492.048 271.389 493.048 270.389 493.048ZM272.389 492.048 273.389 492.048 273.389 493.048 272.389 493.048ZM274.389 492.048 275.389 492.048 275.389 493.048 274.389 493.048ZM276.389 492.048 277.389 492.048 277.389 493.048 276.389 493.048ZM278.389 492.048 279.389 492.048 279.389 493.048 278.389 493.048ZM280.389 492.048 281.389 492.048 281.389 493.048 280.389 493.048ZM282.389 492.048 283.389 492.048 283.389 493.048 282.389 493.048ZM284.389 492.048 285.389 492.048 285.389 493.048 284.389 493.048ZM286.389 492.048 287.389 492.048 287.389 493.048 286.389 493.048ZM288.389 492.048 289.389 492.048 289.389 493.048 288.389 493.048Z" fill-rule="evenodd"/><path d="M933.5 389.667C933.5 375.768 944.768 364.5 958.667 364.5L1059.33 364.5C1073.23 364.5 1084.5 375.768 1084.5 389.667L1084.5 547.333C1084.5 561.232 1073.23 572.5 1059.33 572.5L958.667 572.5C944.768 572.5 933.5 561.232 933.5 547.333Z" stroke="#000000" stroke-miterlimit="8" fill="#FFFFFF" fill-rule="evenodd"/><text font-family="Calibri,Calibri_MSFontService,sans-serif" font-weight="400" font-size="15" transform="translate(983.223 390)">Planning<tspan font-family="Arial,Arial_MSFontService,sans-serif" font-size="15" x="-33.08" y="30">•</tspan><tspan font-size="15" x="-15.08" y="30">subject</tspan></text><path d="M968.143 421.048 989.643 421.048 1011.14 421.048 1011.14 423.048 989.643 423.048 968.143 423.048Z" fill-rule="evenodd"/><text font-family="Arial,Arial_MSFontService,sans-serif" font-weight="400" font-size="15" transform="translate(950.143 438)">•<tspan font-family="Calibri,Calibri_MSFontService,sans-serif" font-size="15" x="18" y="0">teacher</tspan><tspan font-size="15" x="0" y="19">•</tspan><tspan font-family="Calibri,Calibri_MSFontService,sans-serif" font-size="15" x="18" y="19">room</tspan><tspan font-size="15" x="0" y="38">•</tspan><tspan font-family="Calibri,Calibri_MSFontService,sans-serif" font-size="15" x="18" y="38">date</tspan><tspan font-size="15" x="0" y="57">•</tspan><tspan font-family="Calibri,Calibri_MSFontService,sans-serif" font-size="15" x="18" y="57">start</tspan><tspan font-size="15" x="0" y="76">•</tspan><tspan font-family="Calibri,Calibri_MSFontService,sans-serif" font-size="15" x="18" y="76">end</tspan><tspan font-size="15" x="0" y="95">•</tspan><tspan font-family="Calibri,Calibri_MSFontService,sans-serif" font-size="15" x="18" y="95">id</tspan><tspan font-size="15" x="0" y="113">•</tspan><tspan font-family="Calibri,Calibri_MSFontService,sans-serif" font-size="15" x="18" y="113">Username</tspan></text><path d="M968.143 553.048 969.143 553.048 969.143 554.048 968.143 554.048ZM970.143 553.048 971.143 553.048 971.143 554.048 970.143 554.048ZM972.143 553.048 973.143 553.048 973.143 554.048 972.143 554.048ZM974.143 553.048 975.143 553.048 975.143 554.048 974.143 554.048ZM976.143 553.048 977.143 553.048 977.143 554.048 976.143 554.048ZM978.143 553.048 979.143 553.048 979.143 554.048 978.143 554.048ZM980.143 553.048 981.143 553.048 981.143 554.048 980.143 554.048ZM982.143 553.048 983.143 553.048 983.143 554.048 982.143 554.048ZM984.143 553.048 985.143 553.048 985.143 554.048 984.143 554.048ZM986.143 553.048 987.143 553.048 987.143 554.048 986.143 554.048ZM988.143 553.048 989.143 553.048 989.143 554.048 988.143 554.048ZM990.143 553.048 991.143 553.048 991.143 554.048 990.143 554.048ZM992.143 553.048 993.143 553.048 993.143 554.048 992.143 554.048ZM994.143 553.048 995.143 553.048 995.143 554.048 994.143 554.048ZM996.143 553.048 997.143 553.048 997.143 554.048 996.143 554.048ZM998.143 553.048 999.143 553.048 999.143 554.048 998.143 554.048ZM1000.14 553.048 1001.14 553.048 1001.14 554.048 1000.14 554.048ZM1002.14 553.048 1003.14 553.048 1003.14 554.048 1002.14 554.048ZM1004.14 553.048 1005.14 553.048 1005.14 554.048 1004.14 554.048ZM1006.14 553.048 1007.14 553.048 1007.14 554.048 1006.14 554.048ZM1008.14 553.048 1009.14 553.048 1009.14 554.048 1008.14 554.048ZM1010.14 553.048 1011.14 553.048 1011.14 554.048 1010.14 554.048ZM1012.14 553.048 1013.14 553.048 1013.14 554.048 1012.14 554.048ZM1014.14 553.048 1015.14 553.048 1015.14 554.048 1014.14 554.048ZM1016.14 553.048 1017.14 553.048 1017.14 554.048 1016.14 554.048ZM1018.14 553.048 1019.14 553.048 1019.14 554.048 1018.14 554.048ZM1020.14 553.048 1021.14 553.048 1021.14 554.048 1020.14 554.048ZM1022.14 553.048 1023.14 553.048 1023.14 554.048 1022.14 554.048ZM1024.14 553.048 1025.14 553.048 1025.14 554.048 1024.14 554.048ZM1026.14 553.048 1027.14 553.048 1027.14 554.048 1026.14 554.048ZM1028.14 553.048 1029.14 553.048 1029.14 554.048 1028.14 554.048Z" fill-rule="evenodd"/><g clip-path="url(#clip6)" filter="url(#fx0)" transform="translate(159 96)"><g clip-path="url(#clip7)"><path d="M7.96001 72C7.96001 36.5102 54.5403 7.74 112 7.74 169.46 7.74 216.04 36.5102 216.04 72 216.04 107.49 169.46 136.26 112 136.26 54.5403 136.26 7.96001 107.49 7.96001 72Z" fill="#3AB395" fill-rule="evenodd"/></g></g><path d="M169 168C169 133.206 214.667 105 271 105 327.333 105 373 133.206 373 168 373 202.794 327.333 231 271 231 214.667 231 169 202.794 169 168Z" fill="#3AB395" fill-rule="evenodd"/><text font-family="Calibri,Calibri_MSFontService,sans-serif" font-weight="400" font-size="24" transform="translate(233.683 176)">Obtenir</text><g clip-path="url(#clip8)" filter="url(#fx1)" transform="translate(897 96)"><g clip-path="url(#clip9)"><path d="M7.96002 72C7.96002 36.5102 54.5403 7.74 112 7.74 169.46 7.74 216.04 36.5102 216.04 72 216.04 107.49 169.46 136.26 112 136.26 54.5403 136.26 7.96002 107.49 7.96002 72Z" fill="#3AB395" fill-rule="evenodd"/></g></g><path d="M907 168C907 133.206 952.667 105 1009 105 1065.33 105 1111 133.206 1111 168 1111 202.794 1065.33 231 1009 231 952.667 231 907 202.794 907 168Z" fill="#3AB395" fill-rule="evenodd"/><text font-family="Calibri,Calibri_MSFontService,sans-serif" font-weight="400" font-size="24" transform="translate(964.906 176)">Posséder</text><path d="M716.5 168.5 907.5 169.5" stroke="#000000" stroke-width="0.666667" stroke-miterlimit="8" fill="none" fill-rule="evenodd"/><path d="M373.5 168.5 564.5 169.5" stroke="#000000" stroke-width="0.666667" stroke-miterlimit="8" fill="none" fill-rule="evenodd"/><path d="M1013.5 363.5 1012.5 232.5" stroke="#000000" stroke-width="0.666667" stroke-miterlimit="8" fill="none" fill-rule="evenodd"/><path d="M0 0 1 133" stroke="#000000" stroke-width="0.666667" stroke-miterlimit="8" fill="none" fill-rule="evenodd" transform="matrix(1 0 0 -1 271.5 364.5)"/><text font-family="Calibri,Calibri_MSFontService,sans-serif" font-weight="400" font-size="24" transform="translate(518.6 162)">0,n<tspan font-size="24" x="-238" y="186">1,1</tspan><tspan font-size="24" x="432" y="186">1,n</tspan><tspan font-size="24" x="216" y="0">1,1</tspan></text></g></svg>