<svg width="1280" height="720" xmlns="http://www.w3.org/2000/svg" xmlns:xlink="http://www.w3.org/1999/xlink" overflow="hidden"><defs><clipPath id="clip0"><rect x="0" y="0" width="1280" height="720"/></clipPath><clipPath id="clip1"><rect x="588" y="-4" width="104" height="105"/></clipPath><clipPath id="clip2"><rect x="588" y="-4" width="104" height="105"/></clipPath><clipPath id="clip3"><rect x="588" y="-4" width="104" height="105"/></clipPath></defs><g clip-path="url(#clip0)"><rect x="0" y="0" width="1280" height="720" fill="#FFFFFF"/><g clip-path="url(#clip1)"><g clip-path="url(#clip2)"><g clip-path="url(#clip3)"><path d="M82.3333 19.5C82.3333 24.2865 68.7526 28.1667 52 28.1667 35.2474 28.1667 21.6667 24.2865 21.6667 19.5 21.6667 14.7135 35.2474 10.8333 52 10.8333 68.7526 10.8333 82.3333 14.7135 82.3333 19.5Z" fill="#137478" transform="matrix(1 0 0 1.00962 588 -4)"/><path d="M73.6667 41.1667C72.3667 41.1667 71.5 40.3 71.5 39 71.5 37.7 72.3667 36.8333 73.6667 36.8333 74.9667 36.8333 75.8333 37.7 75.8333 39 75.8333 40.3 74.9667 41.1667 73.6667 41.1667ZM52 32.5C35.3167 32.5 21.6667 28.6 21.6667 23.8333L21.6667 41.1667C21.6667 45.9333 35.3167 49.8333 52 49.8333 68.6833 49.8333 82.3333 45.9333 82.3333 41.1667L82.3333 23.8333C82.3333 28.6 68.6833 32.5 52 32.5Z" fill="#137478" transform="matrix(1 0 0 1.00962 588 -4)"/><path d="M73.6667 62.8333C72.3667 62.8333 71.5 61.9667 71.5 60.6667 71.5 59.3667 72.3667 58.5 73.6667 58.5 74.9667 58.5 75.8333 59.3667 75.8333 60.6667 75.8333 61.9667 74.9667 62.8333 73.6667 62.8333ZM52 54.1667C35.3167 54.1667 21.6667 50.2667 21.6667 45.5L21.6667 62.8333C21.6667 67.6 35.3167 71.5 52 71.5 68.6833 71.5 82.3333 67.6 82.3333 62.8333L82.3333 45.5C82.3333 50.2667 68.6833 54.1667 52 54.1667Z" fill="#137478" transform="matrix(1 0 0 1.00962 588 -4)"/><path d="M73.6667 84.5C72.3667 84.5 71.5 83.6333 71.5 82.3333 71.5 81.0333 72.3667 80.1667 73.6667 80.1667 74.9667 80.1667 75.8333 81.0333 75.8333 82.3333 75.8333 83.6333 74.9667 84.5 73.6667 84.5ZM52 75.8333C35.3167 75.8333 21.6667 71.9333 21.6667 67.1667L21.6667 84.5C21.6667 89.2667 35.3167 93.1667 52 93.1667 68.6833 93.1667 82.3333 89.2667 82.3333 84.5L82.3333 67.1667C82.3333 71.9333 68.6833 75.8333 52 75.8333Z" fill="#137478" transform="matrix(1 0 0 1.00962 588 -4)"/></g></g></g><path d="M128.5 207.5C128.5 172.706 175.062 144.5 232.5 144.5 289.938 144.5 336.5 172.706 336.5 207.5 336.5 242.294 289.938 270.5 232.5 270.5 175.062 270.5 128.5 242.294 128.5 207.5Z" stroke="#137478" stroke-width="2.66667" stroke-miterlimit="8" fill="#FFFFFF" fill-rule="evenodd"/><text font-family="Poppins,Poppins_MSFontService,sans-serif" font-weight="400" font-size="24" transform="translate(187.852 215)">Obtenir</text><path d="M944.5 206.5C944.5 171.706 991.062 143.5 1048.5 143.5 1105.94 143.5 1152.5 171.706 1152.5 206.5 1152.5 241.294 1105.94 269.5 1048.5 269.5 991.062 269.5 944.5 241.294 944.5 206.5Z" stroke="#137478" stroke-width="2.66667" stroke-miterlimit="8" fill="#FFFFFF" fill-rule="evenodd"/><text font-family="Poppins,Poppins_MSFontService,sans-serif" font-weight="400" font-size="24" transform="translate(993.166 214)">Posséder</text><path d="M836.5 205.5 944.238 205.5" stroke="#137478" stroke-width="2.66667" stroke-miterlimit="8" fill="none" fill-rule="evenodd"/><path d="M0 0 0.000209974 164.315" stroke="#137478" stroke-width="2.66667" stroke-miterlimit="8" fill="none" fill-rule="evenodd" transform="matrix(1 0 0 -1 1047.5 434.815)"/><text font-family="Calibri,Calibri_MSFontService,sans-serif" font-weight="400" font-size="24" transform="translate(374.575 195)">0,n<tspan font-size="24" x="-194.056" y="158">1,1</tspan><tspan font-size="24" x="622.925" y="157">1,1</tspan><tspan font-size="24" x="507.441" y="-4">1,1</tspan></text><path d="M904.5 474.834C904.5 453.111 922.111 435.5 943.834 435.5L1151.17 435.5C1172.89 435.5 1190.5 453.111 1190.5 474.834L1190.5 632.166C1190.5 653.89 1172.89 671.5 1151.17 671.5L943.834 671.5C922.111 671.5 904.5 653.89 904.5 632.166Z" stroke="#137478" stroke-width="2.66667" stroke-miterlimit="8" fill="#FFFFFF" fill-rule="evenodd"/><text font-family="Poppins,Poppins_MSFontService,sans-serif" font-weight="400" font-size="24" transform="translate(995.239 474)">Planning<tspan font-family="Arial,Arial_MSFontService,sans-serif" font-size="21" x="-81.2594" y="42">•</tspan><tspan font-size="21" x="-63.2594" y="42">subject</tspan></text><path d="M931.98 517.42 958.313 517.42 984.646 517.42 1010.98 517.42 1010.98 519.42 984.646 519.42 958.313 519.42 931.98 519.42Z" fill-rule="evenodd"/><text font-family="Arial,Arial_MSFontService,sans-serif" font-weight="400" font-size="21" transform="translate(913.98 543)">•<tspan font-family="Poppins,Poppins_MSFontService,sans-serif" font-size="21" x="18" y="0">teacher</tspan><tspan font-size="21" x="0" y="27">•</tspan><tspan font-family="Poppins,Poppins_MSFontService,sans-serif" font-size="21" x="18" y="27">room</tspan><tspan font-size="21" x="0" y="55">•</tspan><tspan font-family="Poppins,Poppins_MSFontService,sans-serif" font-size="21" x="18" y="55">date</tspan><tspan font-size="21" x="0" y="82">•</tspan><tspan font-family="Poppins,Poppins_MSFontService,sans-serif" font-size="21" x="18" y="82">start</tspan><tspan font-size="21" x="133" y="-27">•</tspan><tspan font-family="Poppins,Poppins_MSFontService,sans-serif" font-size="21" x="151" y="-27">end</tspan><tspan font-size="21" x="133" y="0">•</tspan><tspan font-family="Poppins,Poppins_MSFontService,sans-serif" font-size="21" x="151" y="0">id</tspan><tspan font-size="21" x="133" y="27">•</tspan><tspan font-family="Poppins,Poppins_MSFontService,sans-serif" font-size="21" x="151" y="27">Username</tspan></text><path d="M1064.98 572.42 1065.98 572.42 1065.98 573.42 1064.98 573.42ZM1066.98 572.42 1067.98 572.42 1067.98 573.42 1066.98 573.42ZM1068.98 572.42 1069.98 572.42 1069.98 573.42 1068.98 573.42ZM1070.98 572.42 1071.98 572.42 1071.98 573.42 1070.98 573.42ZM1072.98 572.42 1073.98 572.42 1073.98 573.42 1072.98 573.42ZM1074.98 572.42 1075.98 572.42 1075.98 573.42 1074.98 573.42ZM1076.98 572.42 1077.98 572.42 1077.98 573.42 1076.98 573.42ZM1078.98 572.42 1079.98 572.42 1079.98 573.42 1078.98 573.42ZM1080.98 572.42 1081.98 572.42 1081.98 573.42 1080.98 573.42ZM1082.98 572.42 1083.98 572.42 1083.98 573.42 1082.98 573.42ZM1084.98 572.42 1085.98 572.42 1085.98 573.42 1084.98 573.42ZM1086.98 572.42 1087.98 572.42 1087.98 573.42 1086.98 573.42ZM1088.98 572.42 1089.98 572.42 1089.98 573.42 1088.98 573.42ZM1090.98 572.42 1091.98 572.42 1091.98 573.42 1090.98 573.42ZM1092.98 572.42 1093.98 572.42 1093.98 573.42 1092.98 573.42ZM1094.98 572.42 1095.98 572.42 1095.98 573.42 1094.98 573.42ZM1096.98 572.42 1097.98 572.42 1097.98 573.42 1096.98 573.42ZM1098.98 572.42 1099.98 572.42 1099.98 573.42 1098.98 573.42ZM1100.98 572.42 1101.98 572.42 1101.98 573.42 1100.98 573.42ZM1102.98 572.42 1103.98 572.42 1103.98 573.42 1102.98 573.42ZM1104.98 572.42 1105.98 572.42 1105.98 573.42 1104.98 573.42ZM1106.98 572.42 1107.98 572.42 1107.98 573.42 1106.98 573.42ZM1108.98 572.42 1109.98 572.42 1109.98 573.42 1108.98 573.42ZM1110.98 572.42 1111.98 572.42 1111.98 573.42 1110.98 573.42ZM1112.98 572.42 1113.98 572.42 1113.98 573.42 1112.98 573.42ZM1114.98 572.42 1115.98 572.42 1115.98 573.42 1114.98 573.42ZM1116.98 572.42 1117.98 572.42 1117.98 573.42 1116.98 573.42ZM1118.98 572.42 1119.98 572.42 1119.98 573.42 1118.98 573.42ZM1120.98 572.42 1121.98 572.42 1121.98 573.42 1120.98 573.42ZM1122.98 572.42 1123.98 572.42 1123.98 573.42 1122.98 573.42ZM1124.98 572.42 1125.98 572.42 1125.98 573.42 1124.98 573.42ZM1126.98 572.42 1127.98 572.42 1127.98 573.42 1126.98 573.42ZM1128.98 572.42 1129.98 572.42 1129.98 573.42 1128.98 573.42ZM1130.98 572.42 1131.98 572.42 1131.98 573.42 1130.98 573.42ZM1132.98 572.42 1133.98 572.42 1133.98 573.42 1132.98 573.42ZM1134.98 572.42 1135.98 572.42 1135.98 573.42 1134.98 573.42ZM1136.98 572.42 1137.98 572.42 1137.98 573.42 1136.98 573.42ZM1138.98 572.42 1139.98 572.42 1139.98 573.42 1138.98 573.42ZM1140.98 572.42 1141.98 572.42 1141.98 573.42 1140.98 573.42ZM1142.98 572.42 1143.98 572.42 1143.98 573.42 1142.98 573.42ZM1144.98 572.42 1145.98 572.42 1145.98 573.42 1144.98 573.42ZM1146.98 572.42 1147.98 572.42 1147.98 573.42 1146.98 573.42ZM1148.98 572.42 1149.98 572.42 1149.98 573.42 1148.98 573.42ZM1150.98 572.42 1151.98 572.42 1151.98 573.42 1150.98 573.42ZM1152.98 572.42 1153.98 572.42 1153.98 573.42 1152.98 573.42ZM1154.98 572.42 1155.98 572.42 1155.98 573.42 1154.98 573.42ZM1156.98 572.42 1157.98 572.42 1157.98 573.42 1156.98 573.42ZM1158.98 572.42 1159.98 572.42 1159.98 573.42 1158.98 573.42ZM1160.98 572.42 1161.98 572.42 1161.98 573.42 1160.98 573.42ZM1162.98 572.42 1163.98 572.42 1163.98 573.42 1162.98 573.42ZM1164.98 572.42 1165.98 572.42 1165.98 573.42 1164.98 573.42ZM1166.98 572.42 1167.98 572.42 1167.98 573.42 1166.98 573.42ZM1168.98 572.42 1169.98 572.42 1169.98 573.42 1168.98 573.42ZM1170.98 572.42 1171.98 572.42 1171.98 573.42 1170.98 573.42ZM1172.98 572.42 1173.98 572.42 1173.98 573.42 1172.98 573.42Z" fill-rule="evenodd"/><path d="M90.5001 474.834C90.5001 453.111 108.111 435.5 129.834 435.5L337.166 435.5C358.89 435.5 376.5 453.111 376.5 474.834L376.5 632.166C376.5 653.89 358.89 671.5 337.166 671.5L129.834 671.5C108.111 671.5 90.5001 653.89 90.5001 632.166Z" stroke="#137478" stroke-width="2.66667" stroke-miterlimit="8" fill="#FFFFFF" fill-rule="evenodd"/><text font-family="Poppins,Poppins_MSFontService,sans-serif" font-weight="400" font-size="24" transform="translate(197.494 474)">Marks<tspan font-family="Arial,Arial_MSFontService,sans-serif" font-size="21" x="-97.846" y="41">•</tspan><tspan font-size="21" x="-79.846" y="41">title</tspan></text><path d="M117.648 516.42 137.148 516.42 156.648 516.42 156.648 518.42 137.148 518.42 117.648 518.42Z" fill-rule="evenodd"/><text font-family="Arial,Arial_MSFontService,sans-serif" font-weight="400" font-size="21" transform="translate(99.6482 540)">•<tspan font-family="Poppins,Poppins_MSFontService,sans-serif" font-size="21" x="18" y="0">mark</tspan><tspan font-size="21" x="0" y="26">•</tspan><tspan font-family="Poppins,Poppins_MSFontService,sans-serif" font-size="21" x="18" y="26">id</tspan><tspan font-size="21" x="133" y="-25">•</tspan><tspan font-family="Poppins,Poppins_MSFontService,sans-serif" font-size="21" x="151" y="-25">date</tspan><tspan font-size="21" x="133" y="1">•</tspan><tspan font-family="Poppins,Poppins_MSFontService,sans-serif" font-size="21" x="151" y="1">username</tspan></text><path d="M250.648 543.42 251.648 543.42 251.648 544.42 250.648 544.42ZM252.648 543.42 253.648 543.42 253.648 544.42 252.648 544.42ZM254.648 543.42 255.648 543.42 255.648 544.42 254.648 544.42ZM256.648 543.42 257.648 543.42 257.648 544.42 256.648 544.42ZM258.648 543.42 259.648 543.42 259.648 544.42 258.648 544.42ZM260.648 543.42 261.648 543.42 261.648 544.42 260.648 544.42ZM262.648 543.42 263.648 543.42 263.648 544.42 262.648 544.42ZM264.648 543.42 265.648 543.42 265.648 544.42 264.648 544.42ZM266.648 543.42 267.648 543.42 267.648 544.42 266.648 544.42ZM268.648 543.42 269.648 543.42 269.648 544.42 268.648 544.42ZM270.648 543.42 271.648 543.42 271.648 544.42 270.648 544.42ZM272.648 543.42 273.648 543.42 273.648 544.42 272.648 544.42ZM274.648 543.42 275.648 543.42 275.648 544.42 274.648 544.42ZM276.648 543.42 277.648 543.42 277.648 544.42 276.648 544.42ZM278.648 543.42 279.648 543.42 279.648 544.42 278.648 544.42ZM280.648 543.42 281.648 543.42 281.648 544.42 280.648 544.42ZM282.648 543.42 283.648 543.42 283.648 544.42 282.648 544.42ZM284.648 543.42 285.648 543.42 285.648 544.42 284.648 544.42ZM286.648 543.42 287.648 543.42 287.648 544.42 286.648 544.42ZM288.648 543.42 289.648 543.42 289.648 544.42 288.648 544.42ZM290.648 543.42 291.648 543.42 291.648 544.42 290.648 544.42ZM292.648 543.42 293.648 543.42 293.648 544.42 292.648 544.42ZM294.648 543.42 295.648 543.42 295.648 544.42 294.648 544.42ZM296.648 543.42 297.648 543.42 297.648 544.42 296.648 544.42ZM298.648 543.42 299.648 543.42 299.648 544.42 298.648 544.42ZM300.648 543.42 301.648 543.42 301.648 544.42 300.648 544.42ZM302.648 543.42 303.648 543.42 303.648 544.42 302.648 544.42ZM304.648 543.42 305.648 543.42 305.648 544.42 304.648 544.42ZM306.648 543.42 307.648 543.42 307.648 544.42 306.648 544.42ZM308.648 543.42 309.648 543.42 309.648 544.42 308.648 544.42ZM310.648 543.42 311.648 543.42 311.648 544.42 310.648 544.42ZM312.648 543.42 313.648 543.42 313.648 544.42 312.648 544.42ZM314.648 543.42 315.648 543.42 315.648 544.42 314.648 544.42ZM316.648 543.42 317.648 543.42 317.648 544.42 316.648 544.42ZM318.648 543.42 319.648 543.42 319.648 544.42 318.648 544.42ZM320.648 543.42 321.648 543.42 321.648 544.42 320.648 544.42ZM322.648 543.42 323.648 543.42 323.648 544.42 322.648 544.42ZM324.648 543.42 325.648 543.42 325.648 544.42 324.648 544.42ZM326.648 543.42 327.648 543.42 327.648 544.42 326.648 544.42ZM328.648 543.42 329.648 543.42 329.648 544.42 328.648 544.42ZM330.648 543.42 331.648 543.42 331.648 544.42 330.648 544.42ZM332.648 543.42 333.648 543.42 333.648 544.42 332.648 544.42ZM334.648 543.42 335.648 543.42 335.648 544.42 334.648 544.42ZM336.648 543.42 337.648 543.42 337.648 544.42 336.648 544.42ZM338.648 543.42 339.648 543.42 339.648 544.42 338.648 544.42ZM340.648 543.42 341.648 543.42 341.648 544.42 340.648 544.42ZM342.648 543.42 343.648 543.42 343.648 544.42 342.648 544.42ZM344.648 543.42 345.648 543.42 345.648 544.42 344.648 544.42ZM346.648 543.42 347.648 543.42 347.648 544.42 346.648 544.42ZM348.648 543.42 349.648 543.42 349.648 544.42 348.648 544.42ZM350.648 543.42 351.648 543.42 351.648 544.42 350.648 544.42ZM352.648 543.42 353.648 543.42 353.648 544.42 352.648 544.42ZM354.648 543.42 355.648 543.42 355.648 544.42 354.648 544.42ZM356.648 543.42 357.648 543.42 357.648 544.42 356.648 544.42ZM358.648 543.42 359.648 543.42 359.648 544.42 358.648 544.42Z" fill-rule="evenodd"/><path d="M444.5 132.168C444.5 113.021 460.021 97.5001 479.167 97.5001L801.833 97.5001C820.979 97.5001 836.5 113.021 836.5 132.168L836.5 270.833C836.5 289.979 820.979 305.5 801.833 305.5L479.167 305.5C460.021 305.5 444.5 289.979 444.5 270.833Z" stroke="#137478" stroke-width="2.66667" stroke-miterlimit="8" fill="#FFFFFF" fill-rule="evenodd"/><text font-family="Calibri,Calibri_MSFontService,sans-serif" font-weight="400" font-size="24" transform="translate(617.523 135)">User<tspan font-family="Arial,Arial_MSFontService,sans-serif" font-size="24" x="-149.223" y="39">•</tspan><tspan font-family="Poppins,Poppins_MSFontService,sans-serif" font-size="24" x="-131.223" y="39">username</tspan></text><path d="M486.299 175.129 547.799 175.129 609.299 175.129 609.299 178.129 547.799 178.129 486.299 178.129Z" fill-rule="evenodd"/><text font-family="Arial,Arial_MSFontService,sans-serif" font-weight="400" font-size="24" transform="translate(468.299 205)">•<tspan font-family="Poppins,Poppins_MSFontService,sans-serif" font-size="24" x="18" y="0">password</tspan><tspan font-size="24" x="0" y="31">•</tspan><tspan font-family="Poppins,Poppins_MSFontService,sans-serif" font-size="24" x="18" y="31">email</tspan></text><path d="M232.5 270.5 233.149 434.815" stroke="#137478" stroke-width="2.66667" stroke-miterlimit="8" fill="none" fill-rule="evenodd"/><path d="M336.5 207.5 444.238 207.5" stroke="#137478" stroke-width="2.66667" stroke-miterlimit="8" fill="none" fill-rule="evenodd"/></g></svg>