<svg width="1280" height="720" xmlns="http://www.w3.org/2000/svg" xmlns:xlink="http://www.w3.org/1999/xlink" overflow="hidden"><defs><clipPath id="clip0"><rect x="0" y="0" width="1280" height="720"/></clipPath><clipPath id="clip1"><rect x="545" y="0" width="189" height="189"/></clipPath><clipPath id="clip2"><rect x="545" y="0" width="189" height="189"/></clipPath><clipPath id="clip3"><rect x="545" y="0" width="189" height="189"/></clipPath><clipPath id="clip4"><rect x="295" y="526" width="123" height="121"/></clipPath><clipPath id="clip5"><rect x="295" y="526" width="123" height="121"/></clipPath><clipPath id="clip6"><rect x="295" y="526" width="123" height="121"/></clipPath><clipPath id="clip7"><rect x="507" y="525" width="125" height="120"/></clipPath><clipPath id="clip8"><rect x="507" y="525" width="125" height="120"/></clipPath><clipPath id="clip9"><rect x="507" y="525" width="125" height="120"/></clipPath><clipPath id="clip10"><rect x="826" y="522" width="124" height="126"/></clipPath><clipPath id="clip11"><rect x="826" y="522" width="124" height="126"/></clipPath><clipPath id="clip12"><rect x="826" y="522" width="124" height="126"/></clipPath><clipPath id="clip13"><rect x="88" y="526" width="118" height="120"/></clipPath><clipPath id="clip14"><rect x="88" y="526" width="118" height="120"/></clipPath><clipPath id="clip15"><rect x="88" y="526" width="118" height="120"/></clipPath><clipPath id="clip16"><rect x="273" y="266" width="189" height="188"/></clipPath><clipPath id="clip17"><rect x="273" y="266" width="189" height="188"/></clipPath><clipPath id="clip18"><rect x="273" y="266" width="189" height="188"/></clipPath><clipPath id="clip19"><rect x="793" y="265" width="189" height="190"/></clipPath><clipPath id="clip20"><rect x="793" y="265" width="189" height="190"/></clipPath><clipPath id="clip21"><rect x="793" y="265" width="189" height="190"/></clipPath></defs><g clip-path="url(#clip0)"><rect x="0" y="0" width="1280" height="720" fill="#FFFFFF"/><g clip-path="url(#clip1)"><g clip-path="url(#clip2)"><g clip-path="url(#clip3)"><path d="M696.594 155.531 696.594 37.4062C696.594 25.8969 667.179 19.6875 639.5 19.6875 611.821 19.6875 582.406 25.8969 582.406 37.4062L582.406 155.531C582.406 167.041 611.821 173.25 639.5 173.25 667.179 173.25 696.594 167.041 696.594 155.531ZM639.5 23.625C669.923 23.625 692.656 30.9094 692.656 37.4062 692.656 43.9031 669.923 51.1875 639.5 51.1875 609.077 51.1875 586.344 43.9031 586.344 37.4062 586.344 30.9094 609.077 23.625 639.5 23.625ZM586.344 44.2181C595.26 51.345 617.909 55.125 639.5 55.125 661.091 55.125 683.74 51.345 692.656 44.2181L692.656 76.7812C692.656 83.2781 669.923 90.5625 639.5 90.5625 609.077 90.5625 586.344 83.2781 586.344 76.7812ZM586.344 83.5931C595.26 90.72 617.909 94.5 639.5 94.5 661.091 94.5 683.74 90.72 692.656 83.5931L692.656 116.156C692.656 122.653 669.923 129.938 639.5 129.938 609.077 129.938 586.344 122.653 586.344 116.156ZM586.344 155.531 586.344 122.968C595.26 130.095 617.909 133.875 639.5 133.875 661.091 133.875 683.74 130.095 692.656 122.968L692.656 155.531C692.656 162.028 669.923 169.312 639.5 169.312 609.077 169.312 586.344 162.028 586.344 155.531Z"/><path d="M682.812 70.875C682.812 73.0496 681.05 74.8125 678.875 74.8125 676.7 74.8125 674.938 73.0496 674.938 70.875 674.938 68.7004 676.7 66.9375 678.875 66.9375 681.05 66.9375 682.812 68.7004 682.812 70.875Z"/><path d="M682.812 110.25C682.812 112.425 681.05 114.188 678.875 114.188 676.7 114.188 674.938 112.425 674.938 110.25 674.938 108.075 676.7 106.312 678.875 106.312 681.05 106.312 682.812 108.075 682.812 110.25Z"/><path d="M682.812 149.625C682.812 151.8 681.05 153.562 678.875 153.562 676.7 153.562 674.938 151.8 674.938 149.625 674.938 147.45 676.7 145.688 678.875 145.688 681.05 145.688 682.812 147.45 682.812 149.625Z"/></g></g></g><text font-family="Calibri,Calibri_MSFontService,sans-serif" font-weight="400" font-size="24" transform="translate(557.67 207)">Base de données</text><g clip-path="url(#clip4)"><g clip-path="url(#clip5)"><g clip-path="url(#clip6)"><path d="M60.5 80.6667C69.5451 80.6562 76.875 73.3264 76.8854 64.2812L76.8854 21.4271C76.8854 12.3777 69.5494 5.04167 60.5 5.04167 51.4506 5.04167 44.1146 12.3777 44.1146 21.4271L44.1146 64.2812C44.125 73.3264 51.4549 80.6562 60.5 80.6667ZM46.6354 21.4271C46.6354 13.7699 52.8428 7.5625 60.5 7.5625 68.1572 7.5625 74.3646 13.7699 74.3646 21.4271L74.3646 22.6875 64.2812 22.6875 64.2812 25.2083 74.3646 25.2083 74.3646 35.2917 64.2812 35.2917 64.2812 37.8125 74.3646 37.8125 74.3646 47.8958 64.2812 47.8958 64.2812 50.4167 74.3646 50.4167 74.3646 60.5 64.2812 60.5 64.2812 63.0208 74.3646 63.0208 74.3646 64.2812C74.3646 71.9384 68.1572 78.1458 60.5 78.1458 52.8428 78.1458 46.6354 71.9384 46.6354 64.2812Z" transform="matrix(1.01653 0 0 1 295 526)"/><path d="M61.7604 110.917 61.7604 90.6857C75.8572 90.0086 86.9454 78.3943 86.9688 64.2812L86.9688 51.6771 84.4479 51.6771 84.4479 64.2812C84.4479 77.5073 73.7261 88.2292 60.5 88.2292 47.2739 88.2292 36.5521 77.5073 36.5521 64.2812L36.5521 51.6771 34.0312 51.6771 34.0312 64.2812C34.0547 78.3943 45.1428 90.0086 59.2396 90.6857L59.2396 110.917 30.25 110.917 30.25 113.438 90.75 113.438 90.75 110.917Z" transform="matrix(1.01653 0 0 1 295 526)"/></g></g></g><g clip-path="url(#clip7)"><g clip-path="url(#clip8)"><g clip-path="url(#clip9)"><path d="M105 38.7612 72.5 38.7612 72.5 30.0113C72.4918 27.2533 70.258 25.0195 67.5 25.0113L15 25.0113C12.242 25.0195 10.0082 27.2533 10 30.0113L10 63.7712C10.0082 66.5293 12.242 68.763 15 68.7712L22.5 68.7712 22.5 81.2712 35 68.7712 47.5 68.7712 47.5 77.5212C47.5082 80.2792 49.742 82.513 52.5 82.5212L85 82.5212 97.5 95.0212 97.5 82.5212 105 82.5212C107.758 82.513 109.992 80.2792 110 77.5212L110 43.7625C109.993 41.004 107.758 38.7695 105 38.7612ZM47.5 43.7612 47.5 66.2725 33.9675 66.2725 33.235 67.005 25 75.24 25 66.2725 15 66.2725C13.6193 66.2725 12.5 65.1533 12.5 63.7725L12.5 30.0125C12.5 28.6317 13.6193 27.5125 15 27.5125L67.5 27.5125C68.8808 27.5125 70 28.6317 70 30.0125L70 38.7625 52.5 38.7625C49.742 38.7707 47.5082 41.0045 47.5 43.7625ZM107.5 77.5212C107.5 78.902 106.381 80.0212 105 80.0212L95 80.0212 95 88.9888 86.7725 80.75 86.04 80.0175 52.5 80.0175C51.1193 80.0175 50 78.8982 50 77.5175L50 43.7625C50 42.3817 51.1193 41.2625 52.5 41.2625L105 41.2625C106.381 41.2625 107.5 42.3817 107.5 43.7625Z" transform="matrix(1.04167 0 0 1 507 525)"/></g></g></g><g clip-path="url(#clip10)"><g clip-path="url(#clip11)"><g clip-path="url(#clip12)"><path d="M94.2917 33.294 94.2917 20.6667 79.4285 20.6667 62 6.07083 44.5715 20.6667 29.7083 20.6667 29.7083 33.294 12.9167 47.1833 12.9167 116.25 111.083 116.25 111.083 47.1833ZM94.2917 36.6523 107.875 47.8898 94.2917 61.4652ZM62 9.43562 75.4049 20.6667 48.5951 20.6667ZM32.2917 23.25 91.7083 23.25 91.7083 64.0486 76.1412 79.6157C67.966 72.7387 56.0289 72.7387 47.8537 79.6157L32.2917 64.0486ZM29.7083 36.6472 29.7083 61.4652 16.1252 47.8821ZM15.522 50.9317 45.9652 81.375 15.522 111.818C15.5169 111.823 15.5087 111.823 15.5037 111.818 15.5014 111.816 15.5 111.813 15.5 111.809L15.5 50.9407C15.5001 50.9336 15.5059 50.928 15.513 50.928 15.5164 50.9281 15.5196 50.9294 15.522 50.9317ZM17.3574 113.667C17.3503 113.667 17.3446 113.661 17.3446 113.654 17.3448 113.65 17.3461 113.647 17.3484 113.645L48.3006 82.6938C55.8712 75.1391 68.1288 75.1391 75.6994 82.6938L106.652 113.645C106.657 113.65 106.657 113.658 106.651 113.663 106.649 113.665 106.646 113.667 106.643 113.667ZM108.478 111.818 78.0348 81.375 108.478 50.9317C108.483 50.9267 108.491 50.9268 108.496 50.9318 108.499 50.9343 108.5 50.9374 108.5 50.9407L108.5 111.809C108.5 111.816 108.494 111.822 108.487 111.822 108.484 111.822 108.48 111.821 108.478 111.818Z" transform="matrix(1 0 0 1.01613 826 522)"/><path d="M59.0718 65.6257C60.0413 65.791 61.023 65.8744 62.0065 65.875 64.6568 65.8777 67.2696 65.2475 69.6273 64.037 70.2858 63.7626 70.5972 63.0063 70.3229 62.3478 70.0485 61.6894 69.2924 61.3779 68.6339 61.6523 68.5732 61.6776 68.5145 61.7074 68.4583 61.7417 61.4687 65.3085 52.9112 62.5337 49.3444 55.5441 45.7776 48.5545 48.5523 39.997 55.5419 36.4302 57.8366 35.2591 60.4065 34.7341 62.9765 34.9112 70.5401 35.5671 76.3139 41.9519 76.2083 49.5432L76.2083 52.9583C76.2083 53.6717 75.6301 54.25 74.9167 54.25L74.0939 54.25C71.6955 54.2472 69.7522 52.3032 69.75 49.9048L69.75 49.0833C69.7651 44.7882 66.2953 41.2941 62.0001 41.279 57.7051 41.264 54.2109 44.7336 54.1959 49.0288 54.1808 53.324 57.6506 56.8181 61.9456 56.8332 64.4469 56.8419 66.7998 55.6471 68.2685 53.6222 69.534 55.6177 71.7309 56.8287 74.0939 56.8333L74.9167 56.8333C77.0568 56.8333 78.7917 55.0985 78.7917 52.9583L78.7917 49.5432C78.8962 40.5908 72.0674 33.0783 63.1457 32.3304 53.8967 31.6531 45.8498 38.6017 45.1724 47.8508 44.5412 56.4697 50.5549 64.1602 59.0718 65.6257ZM62 54.25C59.1466 54.25 56.8333 51.9368 56.8333 49.0833 56.8333 46.2299 59.1466 43.9167 62 43.9167 64.8534 43.9167 67.1667 46.2299 67.1667 49.0833 67.1667 51.9368 64.8534 54.25 62 54.25Z" transform="matrix(1 0 0 1.01613 826 522)"/></g></g></g><g clip-path="url(#clip13)"><g clip-path="url(#clip14)"><g clip-path="url(#clip15)"><path d="M19.6667 17.2083 17.2083 17.2083 17.2083 100.792 100.755 100.792 100.755 98.3333 19.6667 98.3333 19.6667 17.2083Z" transform="matrix(1 0 0 1.01695 88 526)"/><path d="M74.9792 73.75C68.9009 73.75 64.691 62.8239 60.6188 52.258 56.3524 41.1869 52.3219 30.7292 45.4792 30.7292 36.4436 30.7292 33.6706 41.9969 31.2208 51.9384L30.7648 53.7822 33.1494 54.3796 33.6091 52.5235C35.8413 43.4609 38.3709 33.1875 45.4792 33.1875 50.6343 33.1875 54.5443 43.3318 58.3252 53.1418 62.6949 64.4821 67.2145 76.2083 74.9792 76.2083 84.354 76.2083 88.457 56.9313 89.5595 50.5519 89.5595 50.5396 89.5755 50.5396 89.5817 50.5519L94.8105 59.6146 96.9395 58.3854 89.5645 45.6095 76.8229 52.9623 78.0521 55.0912 87.17 49.8329C87.1743 49.8286 87.1814 49.8284 87.1857 49.8328 87.1886 49.8357 87.1897 49.84 87.1885 49.8439 85.861 57.6479 81.7273 73.75 74.9792 73.75Z" transform="matrix(1 0 0 1.01695 88 526)"/></g></g></g><path d="M472.506 423.684 550.244 512.594 547.232 515.226 469.494 426.316ZM551.938 508.455 555.32 521.438 542.904 516.354Z" fill="#3AB395"/><path d="M1.24072-1.56863 192.913 150.036 190.431 153.173-1.24072 1.56863ZM193.826 145.658 199.515 157.808 186.381 155.07Z" fill="#3AB395" transform="matrix(-1 0 0 1 571.515 124)"/><path d="M1.99951-0.0440615 2.93837 42.5611-1.06066 42.6492-1.99951 0.0440615ZM6.89333 40.4735 1.15916 52.6027-5.10375 40.7378Z" fill="#3AB395" transform="matrix(-1 0 0 1 363.159 472)"/><path d="M1.41376-1.41467 93.0339 90.1467 90.2064 92.9761-1.41376 1.41467ZM94.4467 85.9036 98.6934 98.6301 85.9641 94.3916Z" fill="#3AB395" transform="matrix(-1 0 0 1 266.693 423)"/><path d="M710.32 122.498 883.569 274.8 880.928 277.804 707.68 125.502ZM884.707 270.475 889.759 282.904 876.784 279.487Z" fill="#3AB395"/><g clip-path="url(#clip16)"><g clip-path="url(#clip17)"><g clip-path="url(#clip18)"><path d="M150.792 121.379 150.799 50.8938 37.2103 50.8938 37.2103 121.413ZM41.127 54.8104 146.883 54.8104 146.875 117.463 41.127 117.495Z" transform="matrix(1.00532 0 0 1 273 266)"/><path d="M31.3353 48.9321C31.3378 46.7701 33.09 45.018 35.252 45.0154L152.758 45.0154C154.92 45.0182 156.672 46.7701 156.674 48.9321L156.674 129.25 160.591 129.25 160.591 48.9321C160.586 44.6077 157.082 41.1033 152.758 41.0988L35.252 41.0988C30.9276 41.1033 27.4231 44.6077 27.4186 48.9321L27.4186 129.25 31.3353 129.25Z" transform="matrix(1.00532 0 0 1 273 266)"/><path d="M103.797 135.088 103.797 139.004 84.2122 139.004 84.2122 135.088 3.91667 135.088 3.91667 139.003C3.92238 144.408 8.30261 148.789 13.7083 148.796L174.299 148.796C179.706 148.79 184.087 144.409 184.093 139.003L184.093 135.088ZM174.299 144.879 13.7083 144.879C10.4654 144.875 7.83754 142.247 7.83333 139.004L80.2956 139.004C80.2233 141.095 81.8599 142.849 83.9508 142.921 84.038 142.924 84.1251 142.924 84.2122 142.921L103.797 142.921C105.888 142.993 107.642 141.357 107.714 139.266 107.717 139.179 107.717 139.092 107.714 139.004L180.176 139.004C180.171 142.248 177.543 144.875 174.299 144.879Z" transform="matrix(1.00532 0 0 1 273 266)"/><path d="M94 60.7083C79.9398 60.7083 68.5417 72.1064 68.5417 86.1667 68.5417 100.227 79.9398 111.625 94 111.625 108.06 111.625 119.458 100.227 119.458 86.1667 119.442 72.1131 108.054 60.7244 94 60.7083ZM115.442 84.2083 108.552 84.2083C108.281 77.1905 105.359 70.5364 100.374 65.5889 108.696 68.1839 114.639 75.5288 115.442 84.2083ZM92.0417 67.0251 92.0417 84.2083 83.3745 84.2083C83.8717 76.8231 87.1523 70.3825 92.0417 67.0251ZM92.0417 88.125 92.0417 105.31C87.1578 101.948 83.8754 95.4854 83.376 88.125ZM95.9583 105.307 95.9583 88.125 104.624 88.125C104.125 95.4774 100.84 101.942 95.9583 105.307ZM95.9583 84.2083 95.9583 67.0281C100.839 70.3925 104.125 76.8564 104.624 84.2083ZM87.5898 65.5995C82.6143 70.5454 79.704 77.1973 79.4482 84.2083L72.5576 84.2083C73.3592 75.5423 79.2861 68.2052 87.5898 65.5995ZM72.5576 88.125 79.4478 88.125C79.7153 95.1417 82.6356 101.795 87.6188 106.742 79.3009 104.145 73.3603 96.8018 72.5576 88.125ZM100.376 106.744C105.36 101.796 108.282 95.1425 108.552 88.125L115.442 88.125C114.639 96.8037 108.697 104.148 100.376 106.744Z" transform="matrix(1.00532 0 0 1 273 266)"/></g></g></g><text font-family="Calibri,Calibri_MSFontService,sans-serif" font-weight="400" font-size="24" transform="translate(486.97 666)">Assistant textuel<tspan font-size="24" x="-204.932" y="0">Assistant vocal</tspan><tspan font-size="24" x="-396.712" y="0">Graphiques</tspan><tspan font-size="24" x="238.904" y="-203">Exécutions</tspan><tspan font-size="24" x="348.771" y="-203">des différents scripts</tspan><tspan font-size="24" x="-178.972" y="-207">Site </tspan>IsenInfo<tspan font-size="24" x="370.822" y="1">Mails</tspan></text><g clip-path="url(#clip19)"><g clip-path="url(#clip20)"><g clip-path="url(#clip21)"><path d="M173.283 33.4688 15.5354 33.4688 15.5354 155.58 173.283 155.58ZM169.346 151.643 19.4729 151.643 19.4729 64.9688 169.346 64.9688ZM169.346 61.0312 19.4729 61.0312 19.4729 37.4062 169.346 37.4062Z" transform="matrix(1 0 0 1.00529 793 265)"/><path d="M127.969 49.2188C127.969 51.3934 126.206 53.1562 124.031 53.1562 121.857 53.1562 120.094 51.3934 120.094 49.2188 120.094 47.0441 121.857 45.2812 124.031 45.2812 126.206 45.2812 127.969 47.0441 127.969 49.2188Z" transform="matrix(1 0 0 1.00529 793 265)"/><path d="M141.75 49.2188C141.75 51.3934 139.987 53.1562 137.812 53.1562 135.638 53.1562 133.875 51.3934 133.875 49.2188 133.875 47.0441 135.638 45.2812 137.812 45.2812 139.987 45.2812 141.75 47.0441 141.75 49.2188Z" transform="matrix(1 0 0 1.00529 793 265)"/><path d="M155.531 49.2188C155.531 51.3934 153.768 53.1562 151.594 53.1562 149.419 53.1562 147.656 51.3934 147.656 49.2188 147.656 47.0441 149.419 45.2812 151.594 45.2812 153.768 45.2812 155.531 47.0441 155.531 49.2188Z" transform="matrix(1 0 0 1.00529 793 265)"/><path d="M44.8737 119.686 47.6575 122.47 67.7526 102.375 46.6732 81.2956 43.8893 84.0794 62.1849 102.375 44.8737 119.686Z" transform="matrix(1 0 0 1.00529 793 265)"/><path d="M74.8125 118.125 106.312 118.125 106.312 122.062 74.8125 122.062Z" transform="matrix(1 0 0 1.00529 793 265)"/></g></g></g><path d="M2-0.00251163 2.05075 40.4085-1.94925 40.4135-2 0.00251163ZM6.04823 38.4035 0.0633071 50.411-5.95176 38.4186Z" fill="#3AB395" transform="matrix(-1 0 0 1 888.063 471)"/><path d="M40 126.503C40 62.16 92.16 10 156.503 10L1124.5 10C1188.84 10 1241 62.16 1241 126.503L1241 592.497C1241 656.84 1188.84 709 1124.5 709L156.503 709C92.16 709 40 656.84 40 592.497Z" stroke="#3AB395" stroke-width="4" stroke-miterlimit="8" fill="none" fill-rule="evenodd"/></g></svg>