<svg width="1280" height="720" xmlns="http://www.w3.org/2000/svg" xmlns:xlink="http://www.w3.org/1999/xlink" overflow="hidden"><defs><clipPath id="clip0"><rect x="0" y="0" width="1280" height="720"/></clipPath><clipPath id="clip1"><rect x="588" y="0" width="104" height="105"/></clipPath><clipPath id="clip2"><rect x="588" y="0" width="104" height="105"/></clipPath><clipPath id="clip3"><rect x="588" y="0" width="104" height="105"/></clipPath></defs><g clip-path="url(#clip0)"><rect x="0" y="0" width="1280" height="720" fill="#FFFFFF"/><g clip-path="url(#clip1)"><g clip-path="url(#clip2)"><g clip-path="url(#clip3)"><path d="M82.3333 19.5C82.3333 24.2865 68.7526 28.1667 52 28.1667 35.2474 28.1667 21.6667 24.2865 21.6667 19.5 21.6667 14.7135 35.2474 10.8333 52 10.8333 68.7526 10.8333 82.3333 14.7135 82.3333 19.5Z" fill="#A6A6A6" transform="matrix(1 0 0 1.00962 588 0)"/><path d="M73.6667 41.1667C72.3667 41.1667 71.5 40.3 71.5 39 71.5 37.7 72.3667 36.8333 73.6667 36.8333 74.9667 36.8333 75.8333 37.7 75.8333 39 75.8333 40.3 74.9667 41.1667 73.6667 41.1667ZM52 32.5C35.3167 32.5 21.6667 28.6 21.6667 23.8333L21.6667 41.1667C21.6667 45.9333 35.3167 49.8333 52 49.8333 68.6833 49.8333 82.3333 45.9333 82.3333 41.1667L82.3333 23.8333C82.3333 28.6 68.6833 32.5 52 32.5Z" fill="#A6A6A6" transform="matrix(1 0 0 1.00962 588 0)"/><path d="M73.6667 62.8333C72.3667 62.8333 71.5 61.9667 71.5 60.6667 71.5 59.3667 72.3667 58.5 73.6667 58.5 74.9667 58.5 75.8333 59.3667 75.8333 60.6667 75.8333 61.9667 74.9667 62.8333 73.6667 62.8333ZM52 54.1667C35.3167 54.1667 21.6667 50.2667 21.6667 45.5L21.6667 62.8333C21.6667 67.6 35.3167 71.5 52 71.5 68.6833 71.5 82.3333 67.6 82.3333 62.8333L82.3333 45.5C82.3333 50.2667 68.6833 54.1667 52 54.1667Z" fill="#A6A6A6" transform="matrix(1 0 0 1.00962 588 0)"/><path d="M73.6667 84.5C72.3667 84.5 71.5 83.6333 71.5 82.3333 71.5 81.0333 72.3667 80.1667 73.6667 80.1667 74.9667 80.1667 75.8333 81.0333 75.8333 82.3333 75.8333 83.6333 74.9667 84.5 73.6667 84.5ZM52 75.8333C35.3167 75.8333 21.6667 71.9333 21.6667 67.1667L21.6667 84.5C21.6667 89.2667 35.3167 93.1667 52 93.1667 68.6833 93.1667 82.3333 89.2667 82.3333 84.5L82.3333 67.1667C82.3333 71.9333 68.6833 75.8333 52 75.8333Z" fill="#A6A6A6" transform="matrix(1 0 0 1.00962 588 0)"/></g></g></g><rect x="564.5" y="105.5" width="152" height="126" stroke="#000000" stroke-miterlimit="8" fill="#FFFFFF"/><text font-family="Calibri,Calibri_MSFontService,sans-serif" font-weight="400" font-size="15" transform="translate(609.009 124)">Utilisateur<tspan font-family="Arial,Arial_MSFontService,sans-serif" font-size="15" x="-35" y="30">•</tspan><tspan font-size="15" x="-17" y="30">username</tspan></text><path d="M592.009 154.956 622.009 154.956 652.009 154.956 652.009 156.956 622.009 156.956 592.009 156.956Z" fill-rule="evenodd"/><text font-family="Arial,Arial_MSFontService,sans-serif" font-weight="400" font-size="15" transform="translate(574.009 172)">•<tspan font-family="Calibri,Calibri_MSFontService,sans-serif" font-size="15" x="18" y="0">password</tspan><tspan font-size="15" x="0" y="19">•</tspan><tspan font-family="Calibri,Calibri_MSFontService,sans-serif" font-size="15" x="18" y="19">email</tspan></text><rect x="285.5" y="364.5" width="151" height="189" stroke="#000000" stroke-miterlimit="8" fill="#FFFFFF"/><text font-family="Calibri,Calibri_MSFontService,sans-serif" font-weight="400" font-size="15" transform="translate(339.422 383)">Niveau<tspan font-family="Arial,Arial_MSFontService,sans-serif" font-size="15" x="-45.1667" y="30">•</tspan><tspan font-size="15" x="-27.1667" y="30">Niveau</tspan></text><path d="M312.255 413.668 333.255 413.668 354.255 413.668 354.255 415.668 333.255 415.668 312.255 415.668Z" fill-rule="evenodd"/><text font-family="Arial,Arial_MSFontService,sans-serif" font-weight="400" font-size="15" transform="translate(294.255 442)">•<tspan font-family="Calibri,Calibri_MSFontService,sans-serif" font-size="15" x="18" y="0">Spécialité</tspan><tspan font-size="15" x="0" y="30">•</tspan><tspan font-family="Calibri,Calibri_MSFontService,sans-serif" font-size="15" x="18" y="30">username</tspan></text><path d="M312.255 473.668 313.255 473.668 313.255 474.668 312.255 474.668ZM314.255 473.668 315.255 473.668 315.255 474.668 314.255 474.668ZM316.255 473.668 317.255 473.668 317.255 474.668 316.255 474.668ZM318.255 473.668 319.255 473.668 319.255 474.668 318.255 474.668ZM320.255 473.668 321.255 473.668 321.255 474.668 320.255 474.668ZM322.255 473.668 323.255 473.668 323.255 474.668 322.255 474.668ZM324.255 473.668 325.255 473.668 325.255 474.668 324.255 474.668ZM326.255 473.668 327.255 473.668 327.255 474.668 326.255 474.668ZM328.255 473.668 329.255 473.668 329.255 474.668 328.255 474.668ZM330.255 473.668 331.255 473.668 331.255 474.668 330.255 474.668ZM332.255 473.668 333.255 473.668 333.255 474.668 332.255 474.668ZM334.255 473.668 335.255 473.668 335.255 474.668 334.255 474.668ZM336.255 473.668 337.255 473.668 337.255 474.668 336.255 474.668ZM338.255 473.668 339.255 473.668 339.255 474.668 338.255 474.668ZM340.255 473.668 341.255 473.668 341.255 474.668 340.255 474.668ZM342.255 473.668 343.255 473.668 343.255 474.668 342.255 474.668ZM344.255 473.668 345.255 473.668 345.255 474.668 344.255 474.668ZM346.255 473.668 347.255 473.668 347.255 474.668 346.255 474.668ZM348.255 473.668 349.255 473.668 349.255 474.668 348.255 474.668ZM350.255 473.668 351.255 473.668 351.255 474.668 350.255 474.668ZM352.255 473.668 353.255 473.668 353.255 474.668 352.255 474.668ZM354.255 473.668 355.255 473.668 355.255 474.668 354.255 474.668ZM356.255 473.668 357.255 473.668 357.255 474.668 356.255 474.668ZM358.255 473.668 359.255 473.668 359.255 474.668 358.255 474.668ZM360.255 473.668 361.255 473.668 361.255 474.668 360.255 474.668ZM362.255 473.668 363.255 473.668 363.255 474.668 362.255 474.668ZM364.255 473.668 365.255 473.668 365.255 474.668 364.255 474.668ZM366.255 473.668 367.255 473.668 367.255 474.668 366.255 474.668ZM368.255 473.668 369.255 473.668 369.255 474.668 368.255 474.668ZM370.255 473.668 371.255 473.668 371.255 474.668 370.255 474.668Z" fill-rule="evenodd"/><rect x="564.5" y="364.5" width="152" height="189" stroke="#000000" stroke-miterlimit="8" fill="#FFFFFF"/><text font-family="Calibri,Calibri_MSFontService,sans-serif" font-weight="400" font-size="15" transform="translate(622.423 383)">Notes<tspan font-family="Arial,Arial_MSFontService,sans-serif" font-size="15" x="-48.4133" y="29">•</tspan><tspan font-size="15" x="-30.4133" y="29">Intitule</tspan></text><path d="M592.009 412.668 613.509 412.668 635.009 412.668 635.009 414.668 613.509 414.668 592.009 414.668Z" fill-rule="evenodd"/><text font-family="Arial,Arial_MSFontService,sans-serif" font-weight="400" font-size="15" transform="translate(574.009 430)">•<tspan font-family="Calibri,Calibri_MSFontService,sans-serif" font-size="15" x="18" y="0">Note</tspan><tspan font-size="15" x="0" y="17">•</tspan><tspan font-family="Calibri,Calibri_MSFontService,sans-serif" font-size="15" x="18" y="17">Matière </tspan><tspan font-size="15" x="0" y="35">•</tspan><tspan font-family="Calibri,Calibri_MSFontService,sans-serif" font-size="15" x="18" y="35">Type</tspan><tspan font-size="15" x="0" y="53">•</tspan><tspan font-family="Calibri,Calibri_MSFontService,sans-serif" font-size="15" x="18" y="53">username</tspan></text><path d="M592.009 484.668 593.009 484.668 593.009 485.668 592.009 485.668ZM594.009 484.668 595.009 484.668 595.009 485.668 594.009 485.668ZM596.009 484.668 597.009 484.668 597.009 485.668 596.009 485.668ZM598.009 484.668 599.009 484.668 599.009 485.668 598.009 485.668ZM600.009 484.668 601.009 484.668 601.009 485.668 600.009 485.668ZM602.009 484.668 603.009 484.668 603.009 485.668 602.009 485.668ZM604.009 484.668 605.009 484.668 605.009 485.668 604.009 485.668ZM606.009 484.668 607.009 484.668 607.009 485.668 606.009 485.668ZM608.009 484.668 609.009 484.668 609.009 485.668 608.009 485.668ZM610.009 484.668 611.009 484.668 611.009 485.668 610.009 485.668ZM612.009 484.668 613.009 484.668 613.009 485.668 612.009 485.668ZM614.009 484.668 615.009 484.668 615.009 485.668 614.009 485.668ZM616.009 484.668 617.009 484.668 617.009 485.668 616.009 485.668ZM618.009 484.668 619.009 484.668 619.009 485.668 618.009 485.668ZM620.009 484.668 621.009 484.668 621.009 485.668 620.009 485.668ZM622.009 484.668 623.009 484.668 623.009 485.668 622.009 485.668ZM624.009 484.668 625.009 484.668 625.009 485.668 624.009 485.668ZM626.009 484.668 627.009 484.668 627.009 485.668 626.009 485.668ZM628.009 484.668 629.009 484.668 629.009 485.668 628.009 485.668ZM630.009 484.668 631.009 484.668 631.009 485.668 630.009 485.668ZM632.009 484.668 633.009 484.668 633.009 485.668 632.009 485.668ZM634.009 484.668 635.009 484.668 635.009 485.668 634.009 485.668ZM636.009 484.668 637.009 484.668 637.009 485.668 636.009 485.668ZM638.009 484.668 639.009 484.668 639.009 485.668 638.009 485.668ZM640.009 484.668 641.009 484.668 641.009 485.668 640.009 485.668ZM642.009 484.668 643.009 484.668 643.009 485.668 642.009 485.668ZM644.009 484.668 645.009 484.668 645.009 485.668 644.009 485.668ZM646.009 484.668 647.009 484.668 647.009 485.668 646.009 485.668ZM648.009 484.668 649.009 484.668 649.009 485.668 648.009 485.668ZM650.009 484.668 651.009 484.668 651.009 485.668 650.009 485.668Z" fill-rule="evenodd"/><rect x="844.5" y="364.5" width="151" height="189" stroke="#000000" stroke-miterlimit="8" fill="#FFFFFF"/><text font-family="Calibri,Calibri_MSFontService,sans-serif" font-weight="400" font-size="15" transform="translate(894.177 383)">Planning<tspan font-family="Arial,Arial_MSFontService,sans-serif" font-size="15" x="-40.4133" y="30">•</tspan><tspan font-size="15" x="-22.4133" y="30">matiere</tspan></text><path d="M871.763 413.668 895.263 413.668 918.763 413.668 918.763 415.668 895.263 415.668 871.763 415.668Z" fill-rule="evenodd"/><text font-family="Arial,Arial_MSFontService,sans-serif" font-weight="400" font-size="15" transform="translate(853.763 431)">•<tspan font-family="Calibri,Calibri_MSFontService,sans-serif" font-size="15" x="18" y="0">Professeur</tspan><tspan font-size="15" x="0" y="19">•</tspan><tspan font-family="Calibri,Calibri_MSFontService,sans-serif" font-size="15" x="18" y="19">Salle</tspan><tspan font-size="15" x="0" y="38">•</tspan><tspan font-family="Calibri,Calibri_MSFontService,sans-serif" font-size="15" x="18" y="38">Date</tspan><tspan font-size="15" x="0" y="57">•</tspan><tspan font-family="Calibri,Calibri_MSFontService,sans-serif" font-size="15" x="18" y="57">Heure_debut</tspan><tspan font-size="15" x="0" y="76">•</tspan><tspan font-family="Calibri,Calibri_MSFontService,sans-serif" font-size="15" x="18" y="76">heure_fin</tspan><tspan font-size="15" x="0" y="95">•</tspan><tspan font-family="Calibri,Calibri_MSFontService,sans-serif" font-size="15" x="18" y="95">Username</tspan></text><path d="M871.763 527.668 872.763 527.668 872.763 528.668 871.763 528.668ZM873.763 527.668 874.763 527.668 874.763 528.668 873.763 528.668ZM875.763 527.668 876.763 527.668 876.763 528.668 875.763 528.668ZM877.763 527.668 878.763 527.668 878.763 528.668 877.763 528.668ZM879.763 527.668 880.763 527.668 880.763 528.668 879.763 528.668ZM881.763 527.668 882.763 527.668 882.763 528.668 881.763 528.668ZM883.763 527.668 884.763 527.668 884.763 528.668 883.763 528.668ZM885.763 527.668 886.763 527.668 886.763 528.668 885.763 528.668ZM887.763 527.668 888.763 527.668 888.763 528.668 887.763 528.668ZM889.763 527.668 890.763 527.668 890.763 528.668 889.763 528.668ZM891.763 527.668 892.763 527.668 892.763 528.668 891.763 528.668ZM893.763 527.668 894.763 527.668 894.763 528.668 893.763 528.668ZM895.763 527.668 896.763 527.668 896.763 528.668 895.763 528.668ZM897.763 527.668 898.763 527.668 898.763 528.668 897.763 528.668ZM899.763 527.668 900.763 527.668 900.763 528.668 899.763 528.668ZM901.763 527.668 902.763 527.668 902.763 528.668 901.763 528.668ZM903.763 527.668 904.763 527.668 904.763 528.668 903.763 528.668ZM905.763 527.668 906.763 527.668 906.763 528.668 905.763 528.668ZM907.763 527.668 908.763 527.668 908.763 528.668 907.763 528.668ZM909.763 527.668 910.763 527.668 910.763 528.668 909.763 528.668ZM911.763 527.668 912.763 527.668 912.763 528.668 911.763 528.668ZM913.763 527.668 914.763 527.668 914.763 528.668 913.763 528.668ZM915.763 527.668 916.763 527.668 916.763 528.668 915.763 528.668ZM917.763 527.668 918.763 527.668 918.763 528.668 917.763 528.668ZM919.763 527.668 920.763 527.668 920.763 528.668 919.763 528.668ZM921.763 527.668 922.763 527.668 922.763 528.668 921.763 528.668ZM923.763 527.668 924.763 527.668 924.763 528.668 923.763 528.668ZM925.763 527.668 926.763 527.668 926.763 528.668 925.763 528.668ZM927.763 527.668 928.763 527.668 928.763 528.668 927.763 528.668ZM929.763 527.668 930.763 527.668 930.763 528.668 929.763 528.668ZM931.763 527.668 932.763 527.668 932.763 528.668 931.763 528.668Z" fill-rule="evenodd"/></g></svg>