<svg width="1280" height="720" xmlns="http://www.w3.org/2000/svg" xmlns:xlink="http://www.w3.org/1999/xlink" overflow="hidden"><defs><clipPath id="clip0"><rect x="0" y="0" width="1280" height="720"/></clipPath><clipPath id="clip1"><rect x="180" y="357" width="32" height="30"/></clipPath><clipPath id="clip2"><rect x="180" y="357" width="32" height="30"/></clipPath><clipPath id="clip3"><rect x="180" y="357" width="32" height="30"/></clipPath><clipPath id="clip4"><rect x="180" y="472" width="32" height="30"/></clipPath><clipPath id="clip5"><rect x="180" y="472" width="32" height="30"/></clipPath><clipPath id="clip6"><rect x="180" y="472" width="32" height="30"/></clipPath><clipPath id="clip7"><rect x="810" y="303" width="32" height="29"/></clipPath><clipPath id="clip8"><rect x="810" y="303" width="32" height="29"/></clipPath><clipPath id="clip9"><rect x="810" y="303" width="32" height="29"/></clipPath><clipPath id="clip10"><rect x="810" y="376" width="32" height="30"/></clipPath><clipPath id="clip11"><rect x="810" y="376" width="32" height="30"/></clipPath><clipPath id="clip12"><rect x="810" y="376" width="32" height="30"/></clipPath><clipPath id="clip13"><rect x="810" y="447" width="32" height="30"/></clipPath><clipPath id="clip14"><rect x="810" y="447" width="32" height="30"/></clipPath><clipPath id="clip15"><rect x="810" y="447" width="32" height="30"/></clipPath><clipPath id="clip16"><rect x="810" y="520" width="32" height="30"/></clipPath><clipPath id="clip17"><rect x="810" y="520" width="32" height="30"/></clipPath><clipPath id="clip18"><rect x="810" y="520" width="32" height="30"/></clipPath><clipPath id="clip19"><rect x="810" y="592" width="32" height="32"/></clipPath><clipPath id="clip20"><rect x="810" y="592" width="32" height="32"/></clipPath><clipPath id="clip21"><rect x="810" y="592" width="32" height="32"/></clipPath></defs><g clip-path="url(#clip0)"><rect x="0" y="0" width="1280" height="720" fill="#FFFFFF"/><path d="M0 27.5836C-5.09253e-15 12.3496 12.3496 0 27.5836 0L1252.42 0C1267.65-5.09253e-15 1280 12.3496 1280 27.5836L1280 692.416C1280 707.65 1267.65 720 1252.42 720L27.5836 720C12.3496 720 0 707.65 0 692.416Z" fill="#3AB395" fill-rule="evenodd"/><path d="M15 212.836C15 159.907 57.907 117 110.836 117L532.164 117C585.093 117 628 159.907 628 212.836L628 596.164C628 649.093 585.093 692 532.164 692L110.836 692C57.907 692 15 649.093 15 596.164Z" fill="#FFFFFF" fill-rule="evenodd"/><rect x="103" y="341" width="437" height="63" fill="#F2F2F2"/><text fill="#BFBFBF" font-family="Calibri,Calibri_MSFontService,sans-serif" font-weight="400" font-size="24" transform="translate(272.893 380)">username</text><rect x="103" y="455" width="437" height="63" fill="#F2F2F2"/><text fill="#BFBFBF" font-family="Calibri,Calibri_MSFontService,sans-serif" font-weight="400" font-size="24" transform="translate(275.226 494)">password<tspan fill="#3AB395" font-size="24" x="-5.32004" y="-262">Connexion</tspan></text><g clip-path="url(#clip1)"><g clip-path="url(#clip2)"><g clip-path="url(#clip3)"><path d="M15 5C17.4163 5 19.375 6.95875 19.375 9.375 19.375 11.7912 17.4163 13.75 15 13.75 12.5838 13.75 10.625 11.7912 10.625 9.375 10.6274 6.95975 12.5847 5.00241 15 5M15 4.375C12.2386 4.375 10 6.61356 10 9.375 10 12.1364 12.2386 14.375 15 14.375 17.7614 14.375 20 12.1364 20 9.375 20 6.61356 17.7614 4.375 15 4.375Z" transform="matrix(1.06667 0 0 1 180 357)"/><path d="M25 25.625 24.375 25.625 24.375 20.7812C24.3601 20.1175 24.0474 19.4956 23.5234 19.0878 22.1529 18.0362 20.5837 17.2728 18.9103 16.8438 17.6433 16.4539 16.3256 16.2538 15 16.25 13.6748 16.273 12.3586 16.4727 11.0863 16.8438 9.43034 17.3288 7.86806 18.0894 6.465 19.0938 5.94631 19.502 5.63803 20.1213 5.625 20.7812L5.625 25.625 5 25.625 5 20.7812C5.0155 19.9277 5.41447 19.1265 6.08625 18.5997 7.55234 17.5472 9.18591 16.7504 10.9178 16.2428 12.245 15.8561 13.6178 15.6483 15 15.625 16.385 15.6284 17.7619 15.8368 19.0859 16.2434 20.8389 16.6951 22.4822 17.4973 23.9166 18.6016 24.587 19.1283 24.9849 19.9287 25 20.7812Z" transform="matrix(1.06667 0 0 1 180 357)"/></g></g></g><g clip-path="url(#clip4)"><g clip-path="url(#clip5)"><g clip-path="url(#clip6)"><path d="M21.5703 13.7547 21.5703 10.0097C21.5703 6.38084 18.6285 3.43906 14.9997 3.43906 11.3708 3.43906 8.42906 6.38084 8.42906 10.0097L8.42906 13.7544 6.24906 13.9106 6.24906 25.7884 14.9991 26.4134 23.7491 25.7884 23.7491 13.91ZM9.05406 10.0097C9.05406 6.726 11.716 4.06406 14.9997 4.06406 18.2834 4.06406 20.9453 6.726 20.9453 10.0097L20.9453 13.7128 20 13.6497 20 10.0019C20 7.24044 17.7614 5.00187 15 5.00187 12.2386 5.00187 10 7.24044 10 10.0019L10 13.6497 9.05469 13.7122ZM19.375 13.6059 15 13.285 10.625 13.6059 10.625 10.0019C10.625 7.58563 12.5838 5.62687 15 5.62687 17.4163 5.62687 19.375 7.58563 19.375 10.0019ZM23.125 25.2066 15 25.7872 6.875 25.2066 6.875 14.4922 8.47937 14.3775 10.3584 14.2525 15 13.9116 19.6459 14.2525 21.5181 14.3775 23.125 14.4922Z" transform="matrix(1.06667 0 0 1 180 472)"/><path d="M15 17.3487C13.7867 17.3537 12.8072 18.3413 12.8122 19.5546 12.8156 20.3979 13.3015 21.1648 14.0625 21.5281L14.0625 23.2878 15.9375 23.2878 15.9375 21.5206C16.693 21.1459 17.1755 20.3801 17.1875 19.5369 17.1863 18.3292 16.2077 17.3503 15 17.3487ZM15.5109 21.0275 15.3125 21.1053 15.3125 22.6628 14.6875 22.6628 14.6875 21.0963 14.4775 21.0234C13.6596 20.7382 13.2278 19.8438 13.5132 19.0259 13.7984 18.208 14.6927 17.7763 15.5107 18.0616 16.1386 18.2806 16.5601 18.8718 16.5625 19.5369 16.5488 20.2018 16.1325 20.7917 15.5106 21.0275Z" transform="matrix(1.06667 0 0 1 180 472)"/></g></g></g><path d="M646 212.836C646 159.907 688.907 117 741.836 117L1163.16 117C1216.09 117 1259 159.907 1259 212.836L1259 596.164C1259 649.093 1216.09 692 1163.16 692L741.836 692C688.907 692 646 649.093 646 596.164Z" fill="#FFFFFF" fill-rule="evenodd"/><rect x="734" y="286" width="437" height="63" fill="#F2F2F2"/><text fill="#BFBFBF" font-family="Calibri,Calibri_MSFontService,sans-serif" font-weight="400" font-size="24" transform="translate(903.522 325)">username</text><rect x="734" y="358" width="437" height="64" fill="#F2F2F2"/><text fill="#BFBFBF" font-family="Calibri,Calibri_MSFontService,sans-serif" font-weight="400" font-size="24" transform="translate(905.855 397)">password<tspan fill="#3AB395" font-size="24" x="-5.19672" y="-165">Inscription</tspan></text><g clip-path="url(#clip7)"><g clip-path="url(#clip8)"><g clip-path="url(#clip9)"><path d="M14.5 4.83333C16.8357 4.83333 18.7292 6.72679 18.7292 9.0625 18.7292 11.3982 16.8357 13.2917 14.5 13.2917 12.1643 13.2917 10.2708 11.3982 10.2708 9.0625 10.2732 6.72776 12.1653 4.83566 14.5 4.83333M14.5 4.22917C11.8306 4.22917 9.66667 6.39311 9.66667 9.0625 9.66667 11.7319 11.8306 13.8958 14.5 13.8958 17.1694 13.8958 19.3333 11.7319 19.3333 9.0625 19.3333 6.39311 17.1694 4.22917 14.5 4.22917Z" transform="matrix(1.10345 0 0 1 810 303)"/><path d="M24.1667 24.7708 23.5625 24.7708 23.5625 20.0885C23.5481 19.4469 23.2458 18.8457 22.7393 18.4516 21.4145 17.435 19.8976 16.6971 18.28 16.2823 17.0552 15.9054 15.7814 15.712 14.5 15.7083 13.219 15.7306 11.9467 15.9236 10.7167 16.2823 9.116 16.7511 7.60579 17.4864 6.2495 18.4573 5.7481 18.8519 5.4501 19.4506 5.4375 20.0885L5.4375 24.7708 4.83333 24.7708 4.83333 20.0885C4.84832 19.2634 5.23399 18.4889 5.88338 17.9797 7.3006 16.9623 8.87971 16.192 10.5539 15.7014 11.8368 15.3276 13.1639 15.1267 14.5 15.1042 15.8389 15.1075 17.1699 15.3089 18.4497 15.702 20.1443 16.1386 21.7328 16.914 23.1193 17.9815 23.7674 18.4907 24.152 19.2645 24.1667 20.0885Z" transform="matrix(1.10345 0 0 1 810 303)"/></g></g></g><g clip-path="url(#clip10)"><g clip-path="url(#clip11)"><g clip-path="url(#clip12)"><path d="M21.5703 13.7547 21.5703 10.0097C21.5703 6.38084 18.6285 3.43906 14.9997 3.43906 11.3708 3.43906 8.42906 6.38084 8.42906 10.0097L8.42906 13.7544 6.24906 13.9106 6.24906 25.7884 14.9991 26.4134 23.7491 25.7884 23.7491 13.91ZM9.05406 10.0097C9.05406 6.726 11.716 4.06406 14.9997 4.06406 18.2834 4.06406 20.9453 6.726 20.9453 10.0097L20.9453 13.7128 20 13.6497 20 10.0019C20 7.24044 17.7614 5.00187 15 5.00187 12.2386 5.00187 10 7.24044 10 10.0019L10 13.6497 9.05469 13.7122ZM19.375 13.6059 15 13.285 10.625 13.6059 10.625 10.0019C10.625 7.58563 12.5838 5.62687 15 5.62687 17.4163 5.62687 19.375 7.58563 19.375 10.0019ZM23.125 25.2066 15 25.7872 6.875 25.2066 6.875 14.4922 8.47937 14.3775 10.3584 14.2525 15 13.9116 19.6459 14.2525 21.5181 14.3775 23.125 14.4922Z" transform="matrix(1.06667 0 0 1 810 376)"/><path d="M15 17.3487C13.7867 17.3537 12.8072 18.3413 12.8122 19.5546 12.8156 20.3979 13.3015 21.1648 14.0625 21.5281L14.0625 23.2878 15.9375 23.2878 15.9375 21.5206C16.693 21.1459 17.1755 20.3801 17.1875 19.5369 17.1863 18.3292 16.2077 17.3503 15 17.3487ZM15.5109 21.0275 15.3125 21.1053 15.3125 22.6628 14.6875 22.6628 14.6875 21.0963 14.4775 21.0234C13.6596 20.7382 13.2278 19.8438 13.5132 19.0259 13.7984 18.208 14.6927 17.7763 15.5107 18.0616 16.1386 18.2806 16.5601 18.8718 16.5625 19.5369 16.5488 20.2018 16.1325 20.7917 15.5106 21.0275Z" transform="matrix(1.06667 0 0 1 810 376)"/></g></g></g><rect x="734" y="430" width="437" height="63" fill="#F2F2F2"/><text fill="#BFBFBF" font-family="Calibri,Calibri_MSFontService,sans-serif" font-weight="400" font-size="24" transform="translate(925.522 469)">email</text><g clip-path="url(#clip13)"><g clip-path="url(#clip14)"><g clip-path="url(#clip15)"><path d="M22.8125 8.055 22.8125 5 19.2166 5 15 1.46875 10.7834 5 7.1875 5 7.1875 8.055 3.125 11.4153 3.125 28.125 26.875 28.125 26.875 11.4153ZM22.8125 8.8675 26.0987 11.5863 22.8125 14.8706ZM15 2.28281 18.2431 5 11.7569 5ZM7.8125 5.625 22.1875 5.625 22.1875 15.4956 18.4213 19.2619C16.4434 17.5981 13.5554 17.5981 11.5775 19.2619L7.8125 15.4956ZM7.1875 8.86625 7.1875 14.8706 3.90125 11.5844ZM3.75531 12.3222 11.1206 19.6875 3.75531 27.0528C3.75409 27.054 3.75209 27.054 3.75091 27.0528 3.75034 27.0522 3.75 27.0514 3.75 27.0506L3.75 12.3244C3.75003 12.3227 3.75144 12.3213 3.75316 12.3213 3.75397 12.3213 3.75475 12.3216 3.75531 12.3222ZM4.19938 27.5C4.19766 27.5 4.19628 27.4986 4.19628 27.4968 4.19631 27.496 4.19663 27.4953 4.19719 27.4947L11.6856 20.0066C13.5172 18.1788 16.4828 18.1788 18.3144 20.0066L25.8028 27.4947C25.804 27.4959 25.804 27.4979 25.8028 27.4991 25.8022 27.4997 25.8014 27.5 25.8006 27.5ZM26.2447 27.0528 18.8794 19.6875 26.2447 12.3222C26.2459 12.321 26.2479 12.321 26.2491 12.3222 26.2497 12.3228 26.25 12.3236 26.25 12.3244L26.25 27.0506C26.25 27.0523 26.2486 27.0537 26.2468 27.0537 26.246 27.0537 26.2453 27.0534 26.2447 27.0528Z" transform="matrix(1.06667 0 0 1 810 447)"/><path d="M14.2916 15.8772C14.5261 15.9172 14.7636 15.9373 15.0016 15.9375 15.6428 15.9382 16.2749 15.7857 16.8453 15.4928 17.0046 15.4264 17.08 15.2435 17.0136 15.0842 16.9472 14.9248 16.7643 14.8495 16.605 14.9159 16.5903 14.922 16.5761 14.9292 16.5625 14.9375 14.8715 15.8004 12.8011 15.1291 11.9382 13.4381 11.0752 11.7471 11.7465 9.67669 13.4376 8.81375 13.9927 8.53044 14.6145 8.40341 15.2362 8.44625 17.0662 8.60494 18.463 10.1497 18.4375 11.9862L18.4375 12.8125C18.4375 12.9851 18.2976 13.125 18.125 13.125L17.9259 13.125C17.3457 13.1243 16.8755 12.654 16.875 12.0738L16.875 11.875C16.8787 10.8358 16.0392 9.9905 15 9.98684 13.9609 9.98322 13.1155 10.8227 13.1119 11.8618 13.1082 12.901 13.9477 13.7463 14.9868 13.75 15.592 13.7521 16.1612 13.463 16.5166 12.9731 16.8228 13.4559 17.3542 13.7489 17.9259 13.75L18.125 13.75C18.6428 13.75 19.0625 13.3303 19.0625 12.8125L19.0625 11.9862C19.0878 9.82034 17.4357 8.00281 15.2772 7.82188 13.0395 7.658 11.0927 9.33912 10.9288 11.5768 10.7761 13.662 12.231 15.5226 14.2916 15.8772ZM15 13.125C14.3097 13.125 13.75 12.5653 13.75 11.875 13.75 11.1847 14.3097 10.625 15 10.625 15.6903 10.625 16.25 11.1847 16.25 11.875 16.25 12.5653 15.6903 13.125 15 13.125Z" transform="matrix(1.06667 0 0 1 810 447)"/></g></g></g><rect x="734" y="503" width="437" height="64" fill="#F2F2F2"/><text fill="#BFBFBF" font-family="Calibri,Calibri_MSFontService,sans-serif" font-weight="400" font-size="24" transform="translate(919.889 543)">niveau</text><g clip-path="url(#clip16)"><g clip-path="url(#clip17)"><g clip-path="url(#clip18)"><path d="M11.4172 21.2944C11.417 22.0781 12.0522 22.7136 12.8359 22.7137 13.6197 22.7139 14.2551 22.0787 14.2553 21.295 14.2555 20.5113 13.6203 19.8758 12.8366 19.8756 12.8363 19.8756 12.8362 19.8756 12.8359 19.8756 12.0525 19.8758 11.4174 20.5109 11.4172 21.2944ZM13.63 21.2944C13.6302 21.7329 13.2748 22.0886 12.8363 22.0887 12.3977 22.0889 12.0421 21.7336 12.0419 21.295 12.0417 20.8564 12.3971 20.5008 12.8356 20.5006 12.8358 20.5006 12.836 20.5006 12.8363 20.5006 13.2743 20.5013 13.6293 20.8563 13.63 21.2944Z" transform="matrix(1.06667 0 0 1 810 520)"/><path d="M15.3459 23.9541C14.9382 23.6398 14.4716 23.4103 13.9738 23.2791 13.598 23.1637 13.2072 23.1047 12.8141 23.1041 12.4215 23.1099 12.0315 23.1688 11.6547 23.2791 11.1623 23.4247 10.6983 23.6529 10.2825 23.9541 10.109 24.0911 10.0058 24.2986 10.0013 24.5197L10.0013 25.9375 15.6263 25.9375 15.6263 24.5187C15.6216 24.2982 15.5188 24.0911 15.3459 23.9541ZM15.0022 25.3125 10.625 25.3125 10.625 24.5312C10.6255 24.4994 10.6392 24.4692 10.6628 24.4478 11.0169 24.1939 11.411 24.001 11.8288 23.8772 12.1501 23.7834 12.4825 23.7331 12.8172 23.7275 13.1467 23.7284 13.4742 23.7782 13.7891 23.875L13.8131 23.8819C14.2282 23.9904 14.6172 24.1811 14.9572 24.4428 14.9812 24.4611 14.997 24.4882 15.0009 24.5181Z" transform="matrix(1.06667 0 0 1 810 520)"/><path d="M17.625 21.2944C17.6248 22.0781 18.26 22.7136 19.0437 22.7137 19.8275 22.7139 20.463 22.0787 20.4631 21.295 20.4633 20.5113 19.8281 19.8758 19.0444 19.8756 19.0443 19.8756 19.0442 19.8756 19.0441 19.8756 18.2605 19.8758 17.6253 20.5108 17.625 21.2944ZM19.8381 21.2944C19.8383 21.7329 19.4829 22.0886 19.0444 22.0887 18.6058 22.0889 18.2502 21.7336 18.25 21.295 18.2498 20.8564 18.6052 20.5008 19.0437 20.5006 19.0438 20.5006 19.044 20.5006 19.0441 20.5006 19.4819 20.5017 19.8365 20.8565 19.8372 21.2944Z" transform="matrix(1.06667 0 0 1 810 520)"/><path d="M21.5966 23.9541C21.1888 23.6398 20.7224 23.4103 20.2247 23.2791 19.8489 23.1637 19.4581 23.1048 19.065 23.1041 18.6724 23.1099 18.2824 23.1688 17.9056 23.2791 17.4132 23.4246 16.9492 23.6529 16.5334 23.9541 16.3599 24.0911 16.2568 24.2986 16.2522 24.5197L16.2522 25.9375 21.8772 25.9375 21.8772 24.5187C21.8725 24.2981 21.7696 24.0911 21.5966 23.9541ZM21.2528 25.3125 16.8778 25.3125 16.8778 24.5312C16.8785 24.4994 16.8923 24.4692 16.9159 24.4478 17.2699 24.1938 17.6639 24.001 18.0816 23.8772 18.4029 23.7835 18.7353 23.7331 19.07 23.7275 19.3996 23.7284 19.7272 23.7782 20.0422 23.875L20.0662 23.8819C20.4813 23.9903 20.8702 24.1811 21.21 24.4428 21.2341 24.4611 21.2498 24.4882 21.2537 24.5181Z" transform="matrix(1.06667 0 0 1 810 520)"/><path d="M23.875 21.2944C23.8748 22.0781 24.51 22.7136 25.2938 22.7137 26.0775 22.7139 26.713 22.0787 26.7131 21.295 26.7133 20.5113 26.0781 19.8758 25.2944 19.8756 25.2943 19.8756 25.2942 19.8756 25.2941 19.8756 24.5105 19.8758 23.8753 20.5108 23.875 21.2944ZM26.0878 21.2944C26.088 21.7329 25.7326 22.0886 25.2941 22.0887 24.8555 22.0889 24.4999 21.7336 24.4997 21.295 24.4995 20.8564 24.8549 20.5008 25.2934 20.5006 25.2937 20.5006 25.2938 20.5006 25.2941 20.5006 25.7322 20.5012 26.0873 20.8562 26.0878 21.2944Z" transform="matrix(1.06667 0 0 1 810 520)"/><path d="M27.8475 23.9541C27.4397 23.6398 26.9732 23.4103 26.4753 23.2791 26.0996 23.1637 25.7089 23.1048 25.3159 23.1041 24.9233 23.1099 24.5332 23.1688 24.1562 23.2791 23.664 23.4246 23.2001 23.6529 22.7844 23.9541 22.6107 24.091 22.5074 24.2985 22.5031 24.5197L22.5031 25.9375 28.1281 25.9375 28.1281 24.5187C28.1234 24.2981 28.0205 24.0911 27.8475 23.9541ZM27.5037 25.3125 23.1287 25.3125 23.1287 24.5312C23.1293 24.4994 23.143 24.4692 23.1666 24.4478 23.5207 24.1939 23.9147 24.001 24.3325 23.8772 24.6538 23.7834 24.9862 23.7331 25.3209 23.7275 25.6504 23.7284 25.9779 23.7782 26.2928 23.875L26.3169 23.8819C26.7319 23.9904 27.121 24.1811 27.4609 24.4428 27.485 24.4611 27.5008 24.4882 27.5047 24.5181Z" transform="matrix(1.06667 0 0 1 810 520)"/><path d="M7.5 4.0625C7.5 3.71731 7.77981 3.4375 8.125 3.4375L24.0625 3.4375C24.4077 3.4375 24.6875 3.71731 24.6875 4.0625L24.6875 14.6875C24.6875 15.0327 24.4077 15.3125 24.0625 15.3125L13.4884 15.3125 13.11 15.9375 24.0625 15.9375C24.7528 15.9375 25.3125 15.3778 25.3125 14.6875L25.3125 4.0625C25.3125 3.37216 24.7528 2.8125 24.0625 2.8125L8.125 2.8125C7.43466 2.8125 6.875 3.37216 6.875 4.0625L6.875 5.32281C7.08703 5.33722 7.29672 5.37581 7.5 5.43781Z" transform="matrix(1.06667 0 0 1 810 520)"/><path d="M10.5938 14.7284C10.7139 14.7429 10.8317 14.6867 10.8959 14.5841L12.2372 12.4447C12.3837 12.2127 12.6906 12.1434 12.9226 12.29 12.9305 12.295 12.9383 12.3002 12.9459 12.3056 13.1618 12.4801 13.207 12.7913 13.0497 13.02L11.4125 15.7241C11.2458 15.9989 10.8934 16.0958 10.6097 15.9447 10.4573 15.8636 10.268 15.9213 10.1869 16.0737 10.1058 16.2262 10.1635 16.4154 10.3159 16.4966 10.8925 16.8034 11.6084 16.6064 11.9469 16.0478L13.5809 13.3491C13.837 12.9535 13.8289 12.4426 13.5606 12.0553L17.5238 8.01813C17.6428 7.89316 17.638 7.69537 17.5131 7.57631 17.3906 7.45966 17.1976 7.46156 17.0775 7.58062L13.0647 11.6681C12.8663 11.589 12.6494 11.5685 12.4397 11.6091 12.1373 11.6696 11.8728 11.851 11.7075 12.1112L10.7188 13.6891 10.1416 11.9428 10.1213 11.8947C9.65625 10.8272 8.54844 10.625 6.67 10.625 4.79156 10.625 3.685 10.8272 3.21625 11.8978 3.21625 11.8978 3.20375 11.9241 3.1975 11.9419 3.18928 11.9632 3.18272 11.9852 3.17781 12.0075L2.08687 17.9716C1.95657 18.526 2.30039 19.0811 2.85482 19.2114 2.87989 19.2173 2.90518 19.2222 2.93062 19.2262L3.02438 19.2409C3.0407 19.2436 3.05722 19.2448 3.07375 19.2447 3.24625 19.2393 3.38175 19.0952 3.37641 18.9227 3.37184 18.7756 3.26531 18.6516 3.12063 18.625L3.02688 18.61C2.91514 18.5928 2.81579 18.5294 2.75313 18.4353 2.68799 18.3367 2.66809 18.2149 2.69844 18.1006L3.78625 12.155 3.78969 12.1462C4.04437 11.5647 4.57844 11.25 6.67 11.25 8.76156 11.25 9.295 11.5647 9.54781 12.1409L10.3347 14.5159C10.3726 14.631 10.4735 14.7138 10.5938 14.7284Z" transform="matrix(1.06667 0 0 1 810 520)"/><path d="M8.75 13.5687C8.57741 13.5687 8.4375 13.7087 8.4375 13.8812L8.4375 26.5625 7.03125 26.5625 7.03125 18.7962 6.40625 18.7962 6.40625 26.5625 5 26.5625 5 13.8812C5 13.7087 4.86009 13.5687 4.6875 13.5687 4.51491 13.5687 4.375 13.7087 4.375 13.8812L4.375 27.1875 9.0625 27.1875 9.0625 13.8812C9.0625 13.7087 8.92259 13.5687 8.75 13.5687Z" transform="matrix(1.06667 0 0 1 810 520)"/><path d="M6.67 10C7.70553 10 8.545 9.16053 8.545 8.125 8.545 7.08947 7.70553 6.25 6.67 6.25 5.63447 6.25 4.795 7.08947 4.795 8.125 4.79622 9.16003 5.63497 9.99878 6.67 10ZM6.67 6.875C7.36034 6.875 7.92 7.43466 7.92 8.125 7.92 8.81534 7.36034 9.375 6.67 9.375 5.97966 9.375 5.42 8.81534 5.42 8.125 5.42 7.43466 5.97966 6.875 6.67 6.875Z" transform="matrix(1.06667 0 0 1 810 520)"/></g></g></g><rect x="734" y="577" width="437" height="63" fill="#F2F2F2"/><text fill="#BFBFBF" font-family="Calibri,Calibri_MSFontService,sans-serif" font-weight="400" font-size="24" transform="translate(906.402 616)">spécialité<tspan fill="#FFFFFF" font-size="43" x="-358.975" y="-558">Aurion</tspan><tspan fill="#FFFFFF" font-size="43" x="-232.475" y="-558">Pro</tspan></text><g clip-path="url(#clip19)"><g clip-path="url(#clip20)"><g clip-path="url(#clip21)"><path d="M827.9 608C827.9 609.105 827.005 610 825.9 610 824.795 610 823.9 609.105 823.9 608 823.9 606.895 824.795 606 825.9 606 827.005 606 827.9 606.895 827.9 608Z" fill="#595959"/><path d="M837.633 601.333C837.067 600.367 835.8 599.9 834.067 599.9 832.967 599.9 831.7 600.1 830.3 600.467 829.333 596.967 827.733 594.667 825.9 594.667 824.1 594.667 822.467 596.933 821.533 600.4 820.2 600.067 819 599.867 817.933 599.867 816.2 599.867 814.933 600.333 814.367 601.3 813.433 602.9 814.667 605.467 817.233 608.067 814.767 610.6 813.633 613.067 814.533 614.633 815.1 615.6 816.367 616.067 818.1 616.067 819.1 616.067 820.267 615.9 821.533 615.6 822.5 619.067 824.1 621.333 825.9 621.333 827.7 621.333 829.333 619.067 830.267 615.6 831.6 615.933 832.8 616.133 833.867 616.133 835.6 616.133 836.867 615.667 837.433 614.7 838.333 613.133 837.2 610.667 834.733 608.133 837.367 605.5 838.567 602.933 837.633 601.333ZM834.067 601.233C835.3 601.233 836.2 601.533 836.467 602 836.967 602.867 836.067 604.9 833.8 607.167 833 606.433 832.1 605.7 831.1 605 831 603.867 830.833 602.767 830.6 601.733 831.867 601.4 833.067 601.233 834.067 601.233ZM828.1 611.467C827.4 611.867 826.7 612.233 826 612.567 825.3 612.233 824.6 611.867 823.9 611.467 823.233 611.067 822.567 610.667 821.967 610.267 821.9 609.533 821.9 608.8 821.9 608 821.9 607.267 821.933 606.567 821.967 605.867 822.633 605.4 823.333 604.967 824.1 604.533 824.733 604.167 825.367 603.833 826 603.533 826.633 603.833 827.267 604.167 827.9 604.533 828.567 604.933 829.233 605.333 829.833 605.733 829.9 606.467 829.9 607.2 829.9 608 829.9 608.833 829.867 609.633 829.8 610.4 829.267 610.767 828.7 611.1 828.1 611.467ZM829.633 612.1C829.533 612.733 829.433 613.367 829.333 613.933 828.767 613.733 828.167 613.533 827.567 613.267 827.967 613.067 828.367 612.833 828.767 612.6 829.067 612.433 829.367 612.267 829.633 612.1ZM824.433 613.267C823.767 613.533 823.133 613.767 822.5 613.967 822.367 613.333 822.267 612.667 822.167 611.967 822.533 612.2 822.867 612.4 823.267 612.633 823.633 612.833 824.033 613.067 824.433 613.267ZM820.6 609.267C820.067 608.867 819.6 608.467 819.167 608.067 819.6 607.667 820.1 607.267 820.6 606.867 820.6 607.233 820.567 607.6 820.567 608 820.567 608.433 820.567 608.867 820.6 609.267ZM822.133 604.167C822.233 603.433 822.333 602.733 822.467 602.067 823.1 602.267 823.767 602.533 824.433 602.8 824.1 602.967 823.733 603.167 823.4 603.367 823 603.633 822.567 603.9 822.133 604.167ZM827.533 602.8C828.133 602.533 828.733 602.333 829.333 602.133 829.467 602.733 829.567 603.367 829.667 604.033 829.3 603.8 828.967 603.6 828.567 603.367 828.233 603.2 827.9 603 827.533 602.8ZM831.2 606.733C831.8 607.2 832.333 607.633 832.833 608.1 832.333 608.533 831.8 609 831.2 609.433 831.233 608.967 831.233 608.5 831.233 608.033 831.233 607.567 831.233 607.133 831.2 606.733ZM825.9 596C826.9 596 828.2 597.767 829.033 600.833 828.067 601.167 827.033 601.567 826 602.033 824.9 601.533 823.833 601.1 822.8 600.767 823.633 597.733 824.9 596 825.9 596ZM815.5 602C815.8 601.5 816.667 601.233 817.9 601.233 818.867 601.233 819.967 601.4 821.167 601.7 820.933 602.767 820.767 603.933 820.667 605.133 819.733 605.8 818.9 606.467 818.167 607.167 815.933 604.9 815 602.867 815.5 602ZM818.1 614.767C816.867 614.767 815.967 614.467 815.7 614 815.2 613.133 816.067 611.2 818.2 609 818.967 609.667 819.8 610.333 820.7 611 820.8 612.167 820.967 613.3 821.2 614.333 820.1 614.633 819.033 614.767 818.1 614.767ZM825.9 620C824.9 620 823.633 618.267 822.8 615.267 823.833 614.933 824.9 614.533 826 614.033 827.033 614.5 828.033 614.9 829 615.2 828.167 618.267 826.9 620 825.9 620ZM836.3 614C836 614.5 835.133 614.767 833.9 614.767 832.933 614.767 831.8 614.6 830.633 614.3 830.833 613.3 831 612.267 831.1 611.133 832.1 610.433 833 609.733 833.8 609 835.933 611.2 836.8 613.133 836.3 614Z" fill="#595959"/></g></g></g></g></svg>