<svg width="4469" height="3813" xmlns="http://www.w3.org/2000/svg" xmlns:xlink="http://www.w3.org/1999/xlink" overflow="hidden"><defs><clipPath id="clip0"><rect x="475" y="143" width="4469" height="3813"/></clipPath><clipPath id="clip1"><rect x="475" y="144" width="4467" height="3810"/></clipPath><clipPath id="clip2"><rect x="1892" y="325" width="2982" height="3274"/></clipPath><clipPath id="clip3"><rect x="475" y="144" width="4467" height="3810"/></clipPath><clipPath id="clip4"><rect x="475" y="144" width="4467" height="3810"/></clipPath><clipPath id="clip5"><rect x="475" y="144" width="4467" height="3810"/></clipPath><clipPath id="clip6"><rect x="475" y="144" width="4467" height="3810"/></clipPath><clipPath id="clip7"><rect x="475" y="144" width="4467" height="3810"/></clipPath><clipPath id="clip8"><rect x="475" y="144" width="4467" height="3810"/></clipPath><clipPath id="clip9"><rect x="475" y="144" width="4467" height="3810"/></clipPath><clipPath id="clip10"><rect x="475" y="144" width="4467" height="3810"/></clipPath><clipPath id="clip11"><rect x="475" y="144" width="4467" height="3810"/></clipPath><clipPath id="clip12"><rect x="475" y="144" width="4467" height="3810"/></clipPath><clipPath id="clip13"><rect x="475" y="144" width="4467" height="3810"/></clipPath><clipPath id="clip14"><rect x="475" y="144" width="4467" height="3810"/></clipPath><clipPath id="clip15"><rect x="475" y="144" width="4467" height="3810"/></clipPath><clipPath id="clip16"><rect x="475" y="144" width="4467" height="3810"/></clipPath><clipPath id="clip17"><rect x="475" y="144" width="4467" height="3810"/></clipPath><clipPath id="clip18"><rect x="475" y="144" width="4467" height="3810"/></clipPath><clipPath id="clip19"><rect x="475" y="144" width="4467" height="3810"/></clipPath><clipPath id="clip20"><rect x="475" y="144" width="4467" height="3810"/></clipPath><clipPath id="clip21"><rect x="475" y="144" width="4467" height="3810"/></clipPath><clipPath id="clip22"><rect x="475" y="144" width="4467" height="3810"/></clipPath><clipPath id="clip23"><rect x="475" y="144" width="4467" height="3810"/></clipPath><clipPath id="clip24"><rect x="475" y="144" width="4467" height="3810"/></clipPath><clipPath id="clip25"><rect x="475" y="144" width="4467" height="3810"/></clipPath><clipPath id="clip26"><rect x="475" y="144" width="4467" height="3810"/></clipPath><clipPath id="clip27"><rect x="475" y="144" width="4467" height="3810"/></clipPath><clipPath id="clip28"><rect x="475" y="144" width="4467" height="3810"/></clipPath><clipPath id="clip29"><rect x="475" y="144" width="4467" height="3810"/></clipPath><clipPath id="clip30"><rect x="475" y="144" width="4467" height="3810"/></clipPath><clipPath id="clip31"><rect x="475" y="144" width="4467" height="3810"/></clipPath><clipPath id="clip32"><rect x="475" y="144" width="4467" height="3810"/></clipPath><clipPath id="clip33"><rect x="475" y="144" width="4467" height="3810"/></clipPath><clipPath id="clip34"><rect x="475" y="144" width="4467" height="3810"/></clipPath><clipPath id="clip35"><rect x="475" y="144" width="4467" height="3810"/></clipPath><clipPath id="clip36"><rect x="475" y="144" width="4467" height="3810"/></clipPath><clipPath id="clip37"><rect x="475" y="144" width="4467" height="3810"/></clipPath><clipPath id="clip38"><rect x="475" y="144" width="4467" height="3810"/></clipPath><clipPath id="clip39"><rect x="475" y="144" width="4467" height="3810"/></clipPath><clipPath id="clip40"><rect x="475" y="144" width="4467" height="3810"/></clipPath><clipPath id="clip41"><rect x="475" y="144" width="4467" height="3810"/></clipPath><clipPath id="clip42"><rect x="475" y="144" width="4467" height="3810"/></clipPath><clipPath id="clip43"><rect x="475" y="144" width="4467" height="3810"/></clipPath></defs><g clip-path="url(#clip0)" transform="translate(-475 -143)"><rect x="476" y="144" width="4466" height="3810" fill="#FFFFFF"/><g clip-path="url(#clip1)"><path d="M2388.58 325.5 2388.58 3595.5M2885.59 325.5 2885.59 3595.5M3381.61 325.5 3381.61 3595.5M3878.63 325.5 3878.63 3595.5M4374.64 325.5 4374.64 3595.5M4871.5 325.5 4871.5 3595.5" stroke="#44546A" stroke-width="3.4375" stroke-linejoin="round" stroke-miterlimit="10" stroke-dasharray="13.75 10.3125" stroke-opacity="0.6" fill="none"/></g><g clip-path="url(#clip2)"><path d="M4375.14 3559.12 1942.06 3559.12 1942.06 3511.11 4375.14 3511.11ZM2190.07 3438.11 1942.06 3438.11 1942.06 3390.11 2190.07 3390.11ZM2091.07 3317.11 1942.06 3317.11 1942.06 3269.11 2091.07 3269.11ZM2538.08 3196.1 2289.08 3196.1 2289.08 3148.1 2538.08 3148.1ZM2289.08 3075.1 2091.07 3075.1 2091.07 3027.1 2289.08 3027.1ZM2488.08 2954.1 2091.07 2954.1 2091.07 2905.1 2488.08 2905.1ZM4176.14 2833.09 3382.11 2833.09 3382.11 2784.09 4176.14 2784.09ZM3431.11 2712.09 2984.1 2712.09 2984.1 2663.09 3431.11 2663.09ZM4126.14 2590.08 3431.11 2590.08 3431.11 2542.08 4126.14 2542.08ZM3580.12 2469.08 3481.11 2469.08 3481.11 2421.08 3580.12 2421.08ZM2736.09 2348.08 2687.09 2348.08 2687.09 2300.08 2736.09 2300.08ZM3183.1 2227.07 3084.1 2227.07 3084.1 2179.07 3183.1 2179.07ZM3233.11 2106.07 3084.1 2106.07 3084.1 2058.07 3233.11 2058.07ZM2786.09 1985.07 2687.09 1985.07 2687.09 1936.06 2786.09 1936.06ZM4375.14 1864.06 1942.06 1864.06 1942.06 1815.06 4375.14 1815.06ZM4375.14 1743.06 1942.06 1743.06 1942.06 1694.06 4375.14 1694.06ZM4325.14 1621.05 2587.08 1621.05 2587.08 1573.05 4325.14 1573.05ZM3779.12 1500.05 3282.11 1500.05 3282.11 1452.05 3779.12 1452.05ZM3878.13 1379.05 3084.1 1379.05 3084.1 1331.04 3878.13 1331.04ZM4325.14 1258.04 2885.09 1258.04 2885.09 1210.04 4325.14 1210.04ZM3183.1 1137.04 3084.1 1137.04 3084.1 1089.04 3183.1 1089.04ZM4375.14 1016.03 1942.06 1016.03 1942.06 967.032 4375.14 967.032ZM3431.11 895.029 1942.06 895.029 1942.06 846.028 3431.11 846.028ZM4325.14 774.025 3878.13 774.025 3878.13 725.024 4325.14 725.024ZM3630.12 652.021 3382.11 652.021 3382.11 604.02 3630.12 604.02ZM3630.12 531.017 3382.11 531.017 3382.11 483.016 3630.12 483.016ZM3630.12 410.013 3382.11 410.013 3382.11 362.012 3630.12 362.012Z" fill="#3AB395"/></g><g clip-path="url(#clip3)"><path d="M0 0 0.000360892 3270" stroke="#E0E5EB" stroke-width="3.4375" stroke-linejoin="round" stroke-miterlimit="10" fill="none" fill-rule="evenodd" transform="matrix(1 0 0 -1 1892.5 3595.5)"/></g><g clip-path="url(#clip4)"><path d="M1874.5 3595.5 1892.5 3595.5M1874.5 3474.61 1892.5 3474.61M1874.5 3353.61 1892.5 3353.61M1874.5 3232.61 1892.5 3232.61M1874.5 3111.6 1892.5 3111.6M1874.5 2990.6 1892.5 2990.6M1874.5 2869.59 1892.5 2869.59M1874.5 2747.59 1892.5 2747.59M1874.5 2626.59 1892.5 2626.59M1874.5 2505.58 1892.5 2505.58M1874.5 2384.58 1892.5 2384.58M1874.5 2263.57 1892.5 2263.57M1874.5 2142.57 1892.5 2142.57M1874.5 2021.57 1892.5 2021.57M1874.5 1900.56 1892.5 1900.56M1874.5 1778.56 1892.5 1778.56M1874.5 1657.55 1892.5 1657.55M1874.5 1536.55 1892.5 1536.55M1874.5 1415.55 1892.5 1415.55M1874.5 1294.54 1892.5 1294.54M1874.5 1173.54 1892.5 1173.54M1874.5 1052.53 1892.5 1052.53M1874.5 931.531 1892.5 931.531M1874.5 809.527 1892.5 809.527M1874.5 688.523 1892.5 688.523M1874.5 567.519 1892.5 567.519M1874.5 446.515 1892.5 446.515M1874.5 325.5 1892.5 325.5" stroke="#E0E5EB" stroke-width="3.4375" stroke-linejoin="round" stroke-miterlimit="10" fill="none"/></g><g clip-path="url(#clip5)"><text fill="#44546A" font-family="Calibri,Calibri_MSFontService,sans-serif" font-weight="400" font-size="41" transform="matrix(1 0 0 1 1881.89 3661)">0</text></g><g clip-path="url(#clip6)"><text fill="#44546A" font-family="Calibri,Calibri_MSFontService,sans-serif" font-weight="400" font-size="41" transform="matrix(1 0 0 1 2367.91 3661)">10</text></g><g clip-path="url(#clip7)"><text fill="#44546A" font-family="Calibri,Calibri_MSFontService,sans-serif" font-weight="400" font-size="41" transform="matrix(1 0 0 1 2864.37 3661)">20</text></g><g clip-path="url(#clip8)"><text fill="#44546A" font-family="Calibri,Calibri_MSFontService,sans-serif" font-weight="400" font-size="41" transform="matrix(1 0 0 1 3360.84 3661)">30</text></g><g clip-path="url(#clip9)"><text fill="#44546A" font-family="Calibri,Calibri_MSFontService,sans-serif" font-weight="400" font-size="41" transform="matrix(1 0 0 1 3857.31 3661)">40</text></g><g clip-path="url(#clip10)"><text fill="#44546A" font-family="Calibri,Calibri_MSFontService,sans-serif" font-weight="400" font-size="41" transform="matrix(1 0 0 1 4353.77 3661)">50</text></g><g clip-path="url(#clip11)"><text fill="#44546A" font-family="Calibri,Calibri_MSFontService,sans-serif" font-weight="400" font-size="41" transform="matrix(1 0 0 1 4850.24 3661)">60</text></g><g clip-path="url(#clip12)"><text fill="#44546A" font-family="Calibri,Calibri_MSFontService,sans-serif" font-weight="400" font-size="55" transform="matrix(1 0 0 1 1521.69 3551)">Interface WEB</text></g><g clip-path="url(#clip13)"><text fill="#44546A" font-family="Calibri,Calibri_MSFontService,sans-serif" font-weight="400" font-size="55" transform="matrix(1 0 0 1 1341.68 3430)">Création du calendrier</text></g><g clip-path="url(#clip14)"><text fill="#44546A" font-family="Calibri,Calibri_MSFontService,sans-serif" font-weight="400" font-size="55" transform="matrix(1 0 0 1 1343.95 3308)">Webscraping planning</text></g><g clip-path="url(#clip15)"><text fill="#44546A" font-family="Calibri,Calibri_MSFontService,sans-serif" font-weight="400" font-size="55" transform="matrix(1 0 0 1 1215.78 3187)">Envoi par mail du calendrier</text></g><g clip-path="url(#clip16)"><text fill="#44546A" font-family="Calibri,Calibri_MSFontService,sans-serif" font-weight="400" font-size="55" transform="matrix(1 0 0 1 1329.17 3066)">Base de données sqlite</text></g><g clip-path="url(#clip17)"><text fill="#44546A" font-family="Calibri,Calibri_MSFontService,sans-serif" font-weight="400" font-size="55" transform="matrix(1 0 0 1 1420.91 2945)">Webscraping note</text></g><g clip-path="url(#clip18)"><text fill="#44546A" font-family="Calibri,Calibri_MSFontService,sans-serif" font-weight="400" font-size="55" transform="matrix(1 0 0 1 1162.36 2824)">Reconnaissance vocale (Jarvis)</text></g><g clip-path="url(#clip19)"><text fill="#44546A" font-family="Calibri,Calibri_MSFontService,sans-serif" font-weight="400" font-size="55" transform="matrix(1 0 0 1 1263.03 2703)">Affichage tableau de bord</text></g><g clip-path="url(#clip20)"><text fill="#44546A" font-family="Calibri,Calibri_MSFontService,sans-serif" font-weight="400" font-size="55" transform="matrix(1 0 0 1 892.834 2582)">Création des graphiques à partir de la BDD</text></g><g clip-path="url(#clip21)"><text fill="#44546A" font-family="Calibri,Calibri_MSFontService,sans-serif" font-weight="400" font-size="55" transform="matrix(1 0 0 1 1167.93 2461)">Ajouter des données sur l'Isen</text></g><g clip-path="url(#clip22)"><text fill="#44546A" font-family="Calibri,Calibri_MSFontService,sans-serif" font-weight="400" font-size="55" transform="matrix(1 0 0 1 1305.66 2339)">Explorer la piste NodeJS</text></g><g clip-path="url(#clip23)"><text fill="#44546A" font-family="Calibri,Calibri_MSFontService,sans-serif" font-weight="400" font-size="55" transform="matrix(1 0 0 1 987.114 2218)">Connexion à la BDD à partir de python</text></g><g clip-path="url(#clip24)"><text fill="#44546A" font-family="Calibri,Calibri_MSFontService,sans-serif" font-weight="400" font-size="55" transform="matrix(1 0 0 1 921.114 2097)">Connexion à la BDD à partir de l'interface</text></g><g clip-path="url(#clip25)"><text fill="#44546A" font-family="Calibri,Calibri_MSFontService,sans-serif" font-weight="400" font-size="55" transform="matrix(1 0 0 1 1265.64 1976)">Récupérer les coefficients</text></g><g clip-path="url(#clip26)"><text fill="#44546A" font-family="Calibri,Calibri_MSFontService,sans-serif" font-weight="400" font-size="55" transform="matrix(1 0 0 1 1285.83 1855)">Compléter le wiki Github</text></g><g clip-path="url(#clip27)"><text fill="#44546A" font-family="Calibri,Calibri_MSFontService,sans-serif" font-weight="400" font-size="55" transform="matrix(1 0 0 1 991.56 1734)">Ajouter des graphiques sur le Readme</text></g><g clip-path="url(#clip28)"><text fill="#44546A" font-family="Calibri,Calibri_MSFontService,sans-serif" font-weight="400" font-size="55" transform="matrix(1 0 0 1 866.618 1613)">Ajouter le calendrier .csv automatiquement</text></g><g clip-path="url(#clip29)"><text fill="#44546A" font-family="Calibri,Calibri_MSFontService,sans-serif" font-weight="400" font-size="55" transform="matrix(1 0 0 1 1068.17 1492)">Faire le responsive du site internet</text></g><g clip-path="url(#clip30)"><text fill="#44546A" font-family="Calibri,Calibri_MSFontService,sans-serif" font-weight="400" font-size="55" transform="matrix(1 0 0 1 1661.97 1370)">Chatbot</text></g><g clip-path="url(#clip31)"><text fill="#44546A" font-family="Calibri,Calibri_MSFontService,sans-serif" font-weight="400" font-size="55" transform="matrix(1 0 0 1 1244.58 1249)">Passer sur un serveur linux</text></g><g clip-path="url(#clip32)"><text fill="#44546A" font-family="Calibri,Calibri_MSFontService,sans-serif" font-weight="400" font-size="55" transform="matrix(1 0 0 1 713.922 1128)">Passer la BDD de sqqlite en  mysql  et la compléter</text></g><g clip-path="url(#clip33)"><text fill="#44546A" font-family="Calibri,Calibri_MSFontService,sans-serif" font-weight="400" font-size="55" transform="matrix(1 0 0 1 1451.48 1007)">Résumé sur word</text></g><g clip-path="url(#clip34)"><text fill="#44546A" font-family="Calibri,Calibri_MSFontService,sans-serif" font-weight="400" font-size="55" transform="matrix(1 0 0 1 1127.43 886)">Designer les différents mockups</text></g><g clip-path="url(#clip35)"><text fill="#44546A" font-family="Calibri,Calibri_MSFontService,sans-serif" font-weight="400" font-size="55" transform="matrix(1 0 0 1 1238.88 765)">Réalisation du powerpoint</text></g><g clip-path="url(#clip36)"><text fill="#44546A" font-family="Calibri,Calibri_MSFontService,sans-serif" font-weight="400" font-size="55" transform="matrix(1 0 0 1 1210.25 644)">Script qui envoie le planning</text></g><g clip-path="url(#clip37)"><text fill="#44546A" font-family="Calibri,Calibri_MSFontService,sans-serif" font-weight="400" font-size="55" transform="matrix(1 0 0 1 636.075 523)">Algorithme qui envoie le planning toutes les semaines</text></g><g clip-path="url(#clip38)"><text fill="#44546A" font-family="Calibri,Calibri_MSFontService,sans-serif" font-weight="400" font-size="55" transform="matrix(1 0 0 1 833.548 401)">Script qui fourni la BDD avec les informations</text></g><g clip-path="url(#clip39)"><text fill="#44546A" font-family="Calibri,Calibri_MSFontService,sans-serif" font-weight="700" font-size="73" transform="matrix(1 0 0 1 2969.76 3817)">Nombre de jours</text></g><g clip-path="url(#clip40)"><text fill="#44546A" font-family="Calibri,Calibri_MSFontService,sans-serif" font-weight="700" font-size="73" transform="matrix(6.12323e-17 -1 1 6.12323e-17 602.823 2062)">Tâches</text></g><g clip-path="url(#clip41)"><text fill="#44546A" font-family="Calibri,Calibri_MSFontService,sans-serif" font-weight="700" font-size="73" transform="matrix(1 0 0 1 2392.45 249)">Diagramme de Gantt</text></g><g clip-path="url(#clip42)"><rect x="4645" y="3662" width="30" height="31" fill="#3AB395"/></g><g clip-path="url(#clip43)"><text fill="#44546A" font-family="Calibri,Calibri_MSFontService,sans-serif" font-weight="400" font-size="55" transform="matrix(1 0 0 1 4688.29 3693)">Durée</text></g><rect x="476.5" y="144.5" width="4466" height="3810" stroke="#E0E5EB" stroke-width="3.4375" stroke-linejoin="round" stroke-miterlimit="10" fill="none"/></g></svg>