<?xml version="1.0" standalone="no"?>
<!DOCTYPE svg PUBLIC "-//W3C//DTD SVG 20010904//EN"
 "http://www.w3.org/TR/2001/REC-SVG-20010904/DTD/svg10.dtd">
<svg version="1.0" xmlns="http://www.w3.org/2000/svg"
 width="830.000000pt" height="145.000000pt" viewBox="0 0 830.000000 145.000000"
 preserveAspectRatio="xMidYMid meet">

<g transform="translate(0.000000,145.000000) scale(0.100000,-0.100000)"
fill="#000000" stroke="none">
<path d="M735 1337 c-66 -22 -98 -43 -146 -94 -182 -194 -65 -506 201 -538
113 -14 184 -83 185 -180 0 -93 -79 -174 -173 -175 -43 0 -106 33 -134 70 -12
17 -30 30 -40 30 -30 0 -137 -82 -138 -106 0 -32 72 -107 137 -142 188 -100
422 -24 511 166 24 50 27 69 27 157 0 121 -18 168 -96 250 -61 65 -132 101
-223 114 -36 5 -78 17 -94 27 -86 50 -81 183 9 230 45 23 112 14 148 -20 26
-25 27 -25 53 -8 59 38 108 78 113 91 8 21 -51 78 -111 107 -63 31 -170 40
-229 21z"/>
<path d="M138 1319 c-17 -9 -18 -47 -18 -564 0 -633 -9 -575 94 -575 91 0 86
-37 86 577 0 520 -1 534 -20 553 -15 15 -33 20 -72 20 -29 0 -61 -5 -70 -11z"/>
<path d="M1354 1316 c-18 -14 -19 -32 -19 -566 0 -479 2 -552 15 -560 9 -6
151 -10 336 -10 371 0 354 -4 354 93 0 89 6 87 -264 87 -167 0 -235 3 -244 12
-17 17 -17 279 0 296 9 9 69 12 210 12 185 0 199 1 218 20 15 15 20 33 20 71
0 92 8 89 -224 89 -251 0 -236 -9 -236 148 0 87 3 114 16 126 13 14 50 16 249
16 268 0 255 -5 255 94 0 88 9 86 -355 86 -253 0 -315 -3 -331 -14z"/>
<path d="M2240 1310 c-19 -19 -20 -33 -20 -553 0 -614 -5 -577 86 -577 101 0
94 -28 94 359 0 270 3 341 13 350 19 15 24 9 263 -334 114 -165 225 -317 245
-337 33 -34 42 -38 86 -38 27 0 54 5 61 12 9 9 12 148 12 565 0 629 9 573 -89
573 -38 0 -56 -5 -71 -20 -19 -19 -20 -33 -20 -360 0 -279 -2 -340 -14 -340
-7 0 -125 158 -261 351 -162 229 -256 354 -272 360 -41 15 -91 11 -113 -11z"/>
<path d="M3565 730 c0 -327 1 -461 2 -297 2 163 2 431 0 595 -1 163 -2 29 -2
-298z"/>
<path d="M4052 1198 c-17 -40 -58 -140 -92 -221 -34 -82 -59 -155 -56 -163 6
-15 43 -19 63 -6 6 4 22 33 36 65 l26 57 84 0 c94 0 95 -1 122 -73 19 -50 48
-68 85 -51 17 8 12 26 -73 234 l-93 225 -36 3 c-36 3 -36 3 -66 -70z m97 -124
c11 -31 21 -60 21 -65 0 -5 -25 -9 -55 -9 -30 0 -55 4 -55 10 0 18 49 120 58
120 5 0 19 -25 31 -56z"/>
<path d="M5704 1256 c-13 -33 0 -51 36 -51 32 0 35 2 35 30 0 27 -4 30 -33 33
-22 2 -34 -2 -38 -12z"/>
<path d="M6235 1258 c-2 -7 -6 -33 -7 -58 -3 -38 -6 -45 -25 -48 -19 -3 -23
-10 -23 -38 0 -29 3 -34 24 -34 24 0 24 -1 28 -114 4 -132 13 -151 83 -162 65
-9 87 1 83 39 -3 30 -6 32 -45 35 l-43 3 0 99 0 99 43 3 c39 3 42 5 45 35 3
31 2 32 -40 35 l-43 3 -5 55 c-5 54 -6 55 -38 58 -20 2 -34 -2 -37 -10z"/>
<path d="M6470 1235 c0 -33 2 -35 35 -35 33 0 35 2 35 35 0 33 -2 35 -35 35
-33 0 -35 -2 -35 -35z"/>
<path d="M4410 1132 c-59 -59 -27 -161 55 -176 37 -7 59 -34 49 -60 -8 -22
-39 -29 -65 -16 -17 9 -27 9 -45 -1 -31 -16 -30 -33 2 -58 62 -49 166 -11 180
65 13 68 -22 120 -93 140 -61 17 -55 70 7 58 18 -4 31 1 45 16 17 19 17 22 3
36 -9 9 -36 19 -61 21 -41 5 -49 2 -77 -25z"/>
<path d="M4724 1150 c-54 -21 -72 -105 -33 -153 11 -15 37 -31 58 -37 52 -14
67 -33 53 -65 -13 -28 -28 -31 -67 -13 -22 10 -29 9 -48 -11 l-22 -22 28 -25
c21 -18 40 -24 74 -24 38 0 50 5 79 34 27 27 34 42 34 73 0 59 -31 101 -86
115 -26 7 -49 19 -51 26 -9 22 17 42 46 36 19 -4 32 0 46 16 20 22 20 22 -4
41 -24 20 -71 24 -107 9z"/>
<path d="M5065 1146 c-65 -29 -95 -85 -95 -172 0 -108 46 -166 138 -171 107
-7 156 48 156 179 1 62 -3 82 -20 104 -47 64 -119 88 -179 60z m100 -81 c21
-21 25 -33 25 -88 0 -79 -20 -110 -70 -110 -51 0 -70 31 -70 111 0 54 4 70 22
89 28 30 63 29 93 -2z"/>
<path d="M5445 1146 c-62 -28 -95 -85 -95 -164 0 -68 16 -114 50 -147 58 -55
184 -41 220 24 9 17 6 23 -15 37 -25 16 -27 16 -50 -6 -33 -31 -82 -31 -107
-1 -13 18 -18 40 -18 90 0 58 3 71 23 89 29 27 64 28 92 2 l22 -20 27 21 c26
21 27 22 9 41 -42 46 -101 59 -158 34z"/>
<path d="M5914 1147 c-13 -34 0 -52 43 -58 48 -6 73 -23 73 -50 0 -16 -8 -19
-40 -19 -114 0 -168 -110 -91 -184 24 -23 41 -29 94 -33 36 -3 77 -3 91 1 l26
6 0 128 c0 136 -7 162 -51 194 -35 26 -136 37 -145 15z m121 -232 c0 -38 -2
-40 -33 -43 -40 -4 -62 12 -62 44 0 28 25 45 65 41 28 -2 30 -5 30 -42z"/>
<path d="M6735 1146 c-62 -28 -95 -85 -95 -164 0 -68 16 -114 50 -147 24 -23
41 -29 87 -32 108 -7 157 49 158 179 0 62 -4 82 -21 105 -49 66 -115 87 -179
59z m102 -78 c20 -18 23 -31 23 -89 0 -82 -19 -112 -70 -112 -51 0 -70 31 -70
111 0 54 4 70 22 89 27 29 65 29 95 1z"/>
<path d="M7110 1141 c-66 -35 -75 -57 -78 -201 l-4 -129 26 -7 c14 -3 30 -3
35 1 7 4 11 48 11 111 0 73 5 114 15 133 24 48 72 55 110 16 24 -23 25 -30 25
-139 0 -114 0 -116 24 -122 14 -3 30 -3 35 1 7 4 11 54 11 129 0 111 -2 126
-23 157 -43 64 -121 86 -187 50z"/>
<path d="M5705 1138 c-3 -8 -4 -83 -3 -167 3 -134 5 -155 21 -165 12 -8 22 -8
35 0 15 10 17 30 17 175 l0 164 -33 3 c-20 2 -34 -2 -37 -10z"/>
<path d="M6470 981 c0 -147 2 -170 16 -175 9 -4 25 -4 35 -1 18 6 19 19 19
176 l0 169 -35 0 -35 0 0 -169z"/>
<path d="M6201 653 c-34 -41 -36 -60 -9 -77 14 -9 25 -3 58 29 l40 39 -22 23
c-12 13 -25 23 -29 23 -4 0 -21 -17 -38 -37z"/>
<path d="M4115 638 c-2 -7 -6 -35 -7 -63 l-3 -49 -50 3 c-99 5 -155 -62 -155
-184 0 -142 78 -196 243 -169 l37 7 -2 231 -3 231 -28 3 c-16 2 -29 -2 -32
-10z m-21 -200 c11 -15 16 -45 16 -94 0 -98 -3 -104 -55 -104 -62 0 -80 24
-80 110 0 53 4 73 19 89 26 29 80 28 100 -1z"/>
<path d="M5147 644 c-4 -4 -7 -110 -7 -236 l0 -228 35 0 35 0 -2 233 -3 232
-25 3 c-14 2 -29 0 -33 -4z"/>
<path d="M6844 636 c-3 -8 -4 -25 -2 -38 2 -18 10 -24 36 -26 33 -3 33 -3 30
35 -3 33 -7 38 -31 41 -17 2 -29 -2 -33 -12z"/>
<path d="M5911 536 c-8 -10 -24 -12 -51 -9 -49 7 -94 -11 -116 -45 -24 -36
-21 -97 5 -133 35 -47 15 -94 -44 -101 -26 -3 -30 -8 -33 -35 l-3 -33 114 0
c138 0 164 -13 169 -83 3 -37 6 -42 29 -45 36 -4 52 19 44 66 -14 83 -69 132
-148 132 -19 0 -36 3 -39 6 -14 13 7 44 38 54 49 17 74 53 74 110 0 30 6 52
15 60 20 17 19 33 -3 53 -23 21 -36 21 -51 3z m-41 -91 c15 -18 6 -61 -16 -69
-24 -9 -54 12 -54 37 0 43 44 63 70 32z"/>
<path d="M4364 511 c-61 -37 -74 -65 -74 -160 0 -90 9 -114 55 -153 47 -40
140 -34 187 12 34 35 35 43 3 60 -22 12 -28 11 -48 -8 -33 -31 -80 -29 -107 5
-11 14 -17 29 -13 33 7 6 41 16 172 50 l43 11 -5 40 c-3 22 -13 51 -22 65 -39
61 -130 82 -191 45z m107 -61 c35 -19 21 -37 -41 -53 -76 -19 -87 -11 -49 37
22 28 56 34 90 16z"/>
<path d="M4691 504 c-26 -22 -31 -33 -31 -71 0 -36 6 -50 29 -74 16 -16 40
-29 53 -29 30 0 48 -17 48 -46 0 -35 -24 -49 -59 -34 -33 13 -71 0 -71 -25 0
-23 50 -55 87 -55 94 0 150 89 108 170 -17 32 -44 50 -90 60 -24 4 -30 11 -30
30 0 22 4 25 36 23 26 -2 42 4 55 18 18 20 18 21 -5 40 -34 28 -92 25 -130 -7z"/>
<path d="M5393 514 c-18 -9 -43 -33 -55 -53 -21 -32 -23 -49 -23 -156 l0 -120
35 0 35 0 5 123 c5 135 13 152 70 152 57 0 65 -17 70 -152 l5 -123 35 0 35 0
3 108 c2 89 -1 115 -17 152 -34 77 -121 107 -198 69z"/>
<path d="M6152 510 c-58 -36 -73 -73 -70 -172 3 -76 6 -90 28 -113 63 -68 153
-73 218 -13 29 28 28 41 -3 58 -22 12 -28 11 -48 -8 -29 -27 -78 -29 -100 -4
-31 34 -21 47 54 66 147 38 139 34 139 69 0 102 -129 171 -218 117z m122 -69
c21 -23 18 -25 -56 -44 -74 -19 -85 -11 -47 37 25 32 77 36 103 7z"/>
<path d="M6532 510 c-61 -37 -72 -70 -72 -207 l0 -123 35 0 35 0 0 114 c0 99
3 117 21 140 15 19 30 26 54 26 24 0 39 -7 54 -26 18 -23 21 -41 21 -140 l0
-114 35 0 35 0 0 123 c0 104 -3 127 -20 155 -42 68 -132 92 -198 52z"/>
<path d="M6844 517 c-2 -7 -3 -85 -2 -172 l3 -160 33 -3 32 -3 0 175 0 176
-30 0 c-17 0 -33 -6 -36 -13z"/>
<path d="M7095 511 c-61 -38 -70 -55 -73 -156 l-4 -93 37 -41 c57 -63 149 -68
207 -11 34 35 35 43 3 60 -22 12 -28 11 -48 -8 -33 -31 -80 -29 -107 5 -11 14
-17 29 -13 33 7 6 41 16 172 50 l43 11 -5 40 c-3 22 -13 51 -22 65 -39 60
-131 82 -190 45z m106 -61 c35 -19 21 -37 -41 -53 -76 -19 -87 -11 -49 37 22
28 56 34 90 16z"/>
<path d="M7407 524 c-4 -4 -7 -62 -7 -128 0 -144 13 -175 86 -207 72 -32 144
-7 183 62 19 34 21 51 19 156 l-3 118 -30 0 -30 0 -5 -116 c-5 -121 -13 -143
-55 -159 -25 -9 -71 6 -81 28 -5 9 -11 69 -14 132 -5 114 -5 115 -30 118 -14
2 -29 0 -33 -4z"/>
<path d="M7863 514 c-56 -28 -74 -82 -71 -215 l3 -114 35 0 35 0 5 121 c5 131
13 151 58 156 22 2 28 9 30 36 3 30 2 32 -30 32 -18 0 -47 -8 -65 -16z"/>
<path d="M8039 501 c-23 -23 -29 -38 -29 -71 0 -33 6 -48 29 -71 17 -17 40
-29 55 -29 16 0 32 -9 42 -26 16 -24 16 -26 -4 -47 -19 -19 -24 -19 -47 -7
-19 10 -30 11 -50 2 -57 -26 -10 -77 71 -77 44 0 58 4 80 26 56 56 38 155 -34
186 -63 26 -67 30 -67 49 0 16 7 19 36 17 26 -2 42 4 55 18 18 20 18 21 -5 40
-37 30 -96 25 -132 -10z"/>
</g>
</svg>
