<svg width="4460" height="3007" xmlns="http://www.w3.org/2000/svg" xmlns:xlink="http://www.w3.org/1999/xlink" overflow="hidden"><defs><clipPath id="clip0"><rect x="4959" y="92" width="4460" height="3007"/></clipPath><clipPath id="clip1"><rect x="4959" y="92" width="4458" height="3005"/></clipPath><clipPath id="clip2"><rect x="4959" y="92" width="4458" height="3005"/></clipPath><clipPath id="clip3"><rect x="4959" y="92" width="4458" height="3005"/></clipPath><clipPath id="clip4"><rect x="4959" y="92" width="4458" height="3005"/></clipPath><clipPath id="clip5"><rect x="4959" y="92" width="4458" height="3005"/></clipPath><clipPath id="clip6"><rect x="4959" y="92" width="4458" height="3005"/></clipPath><clipPath id="clip7"><rect x="4959" y="92" width="4458" height="3005"/></clipPath><clipPath id="clip8"><rect x="4959" y="92" width="4458" height="3005"/></clipPath><clipPath id="clip9"><rect x="4959" y="92" width="4458" height="3005"/></clipPath><clipPath id="clip10"><rect x="4959" y="92" width="4458" height="3005"/></clipPath><clipPath id="clip11"><rect x="4959" y="92" width="4458" height="3005"/></clipPath><clipPath id="clip12"><rect x="4959" y="92" width="4458" height="3005"/></clipPath><clipPath id="clip13"><rect x="4959" y="92" width="4458" height="3005"/></clipPath></defs><g clip-path="url(#clip0)" transform="translate(-4959 -92)"><rect x="4960" y="93.0002" width="4457" height="3004" fill="#FFFFFF"/><g clip-path="url(#clip1)"><path d="M7188.55 363.501C7886.85 363.501 8452.94 929.587 8452.94 1627.89 8452.94 1734.81 8439.38 1841.3 8412.58 1944.81L8106.57 1865.58C8237.84 1358.57 7933.25 841.144 7426.24 709.871 7348.61 689.771 7268.74 679.599 7188.55 679.599Z" stroke="#FFFFFF" stroke-width="6.875" stroke-linejoin="round" stroke-miterlimit="10" fill="#E8AD72" fill-rule="evenodd"/></g><g clip-path="url(#clip2)"><path d="M8412.58 1944.81C8237.54 2620.82 7547.64 3026.95 6871.63 2851.91 6768.12 2825.11 6668.43 2785.29 6574.94 2733.4L6728.34 2457.02C7186.26 2711.19 7763.52 2546.01 8017.68 2088.1 8056.6 2017.98 8086.47 1943.21 8106.57 1865.58Z" stroke="#FFFFFF" stroke-width="6.875" stroke-linejoin="round" stroke-miterlimit="10" fill="#37AF92" fill-rule="evenodd"/></g><g clip-path="url(#clip3)"><path d="M6574.94 2733.4C6272.02 2565.27 6051.36 2280.2 5964.52 1944.81L6270.53 1865.58C6335.66 2117.13 6501.15 2330.93 6728.34 2457.03Z" stroke="#FFFFFF" stroke-width="6.875" stroke-linejoin="round" stroke-miterlimit="10" fill="#B087D9" fill-rule="evenodd"/></g><g clip-path="url(#clip4)"><path d="M5964.52 1944.81C5789.49 1268.8 6195.62 578.894 6871.63 403.862 6975.14 377.062 7081.63 363.5 7188.55 363.5L7188.55 679.598C6664.82 679.598 6240.26 1104.16 6240.26 1627.89 6240.26 1708.08 6250.43 1787.95 6270.53 1865.58Z" stroke="#FFFFFF" stroke-width="6.875" stroke-linejoin="round" stroke-miterlimit="10" fill="#B4E6DA" fill-rule="evenodd"/></g><g clip-path="url(#clip5)"><text fill="#595959" font-family="Calibri,Calibri_MSFontService,sans-serif" font-weight="400" font-size="147" transform="matrix(1 0 0 1 6523.94 267)">Répartition des tâches </text></g><g clip-path="url(#clip6)"><rect x="6480.5" y="2983.5" width="46" height="45" stroke="#FFFFFF" stroke-width="6.875" stroke-linejoin="round" stroke-miterlimit="10" fill="#E8AD72"/></g><g clip-path="url(#clip7)"><text font-family="Calibri,Calibri_MSFontService,sans-serif" font-weight="400" font-size="83" transform="matrix(1 0 0 1 6547.09 3030)">Hugo</text></g><g clip-path="url(#clip8)"><rect x="6800.5" y="2983.5" width="46" height="45" stroke="#FFFFFF" stroke-width="6.875" stroke-linejoin="round" stroke-miterlimit="10" fill="#37AF92"/></g><g clip-path="url(#clip9)"><text font-family="Calibri,Calibri_MSFontService,sans-serif" font-weight="400" font-size="83" transform="matrix(1 0 0 1 6867.23 3030)">Guillaume</text></g><g clip-path="url(#clip10)"><rect x="7285.5" y="2983.5" width="46" height="45" stroke="#FFFFFF" stroke-width="6.875" stroke-linejoin="round" stroke-miterlimit="10" fill="#B087D9"/></g><g clip-path="url(#clip11)"><text font-family="Calibri,Calibri_MSFontService,sans-serif" font-weight="400" font-size="83" transform="matrix(1 0 0 1 7352.25 3030)">Amine</text></g><g clip-path="url(#clip12)"><rect x="7646.5" y="2983.5" width="45" height="45" stroke="#FFFFFF" stroke-width="6.875" stroke-linejoin="round" stroke-miterlimit="10" fill="#B4E6DA"/></g><g clip-path="url(#clip13)"><text font-family="Calibri,Calibri_MSFontService,sans-serif" font-weight="400" font-size="83" transform="matrix(1 0 0 1 7712.27 3030)">Brieuc</text></g><rect x="4960.5" y="93.5" width="4457" height="3004" stroke="#D9D9D9" stroke-width="3.4375" stroke-linejoin="round" stroke-miterlimit="10" fill="none"/></g></svg>