<svg width="1280" height="720" xmlns="http://www.w3.org/2000/svg" xmlns:xlink="http://www.w3.org/1999/xlink" overflow="hidden"><defs><clipPath id="clip0"><rect x="0" y="0" width="1280" height="720"/></clipPath><clipPath id="clip1"><rect x="538" y="0" width="204" height="204"/></clipPath><clipPath id="clip2"><rect x="538" y="0" width="204" height="204"/></clipPath><clipPath id="clip3"><rect x="538" y="0" width="204" height="204"/></clipPath></defs><g clip-path="url(#clip0)"><rect x="0" y="0" width="1280" height="720" fill="#FFFFFF"/><g clip-path="url(#clip1)"><g clip-path="url(#clip2)"><g clip-path="url(#clip3)"><path d="M699.5 38.25C699.5 47.6388 672.861 55.25 640 55.25 607.139 55.25 580.5 47.6388 580.5 38.25 580.5 28.8612 607.139 21.25 640 21.25 672.861 21.25 699.5 28.8612 699.5 38.25Z" fill="#A6A6A6"/><path d="M682.5 80.75C679.95 80.75 678.25 79.05 678.25 76.5 678.25 73.95 679.95 72.25 682.5 72.25 685.05 72.25 686.75 73.95 686.75 76.5 686.75 79.05 685.05 80.75 682.5 80.75ZM640 63.75C607.275 63.75 580.5 56.1 580.5 46.75L580.5 80.75C580.5 90.1 607.275 97.75 640 97.75 672.725 97.75 699.5 90.1 699.5 80.75L699.5 46.75C699.5 56.1 672.725 63.75 640 63.75Z" fill="#A6A6A6"/><path d="M682.5 123.25C679.95 123.25 678.25 121.55 678.25 119 678.25 116.45 679.95 114.75 682.5 114.75 685.05 114.75 686.75 116.45 686.75 119 686.75 121.55 685.05 123.25 682.5 123.25ZM640 106.25C607.275 106.25 580.5 98.6 580.5 89.25L580.5 123.25C580.5 132.6 607.275 140.25 640 140.25 672.725 140.25 699.5 132.6 699.5 123.25L699.5 89.25C699.5 98.6 672.725 106.25 640 106.25Z" fill="#A6A6A6"/><path d="M682.5 165.75C679.95 165.75 678.25 164.05 678.25 161.5 678.25 158.95 679.95 157.25 682.5 157.25 685.05 157.25 686.75 158.95 686.75 161.5 686.75 164.05 685.05 165.75 682.5 165.75ZM640 148.75C607.275 148.75 580.5 141.1 580.5 131.75L580.5 165.75C580.5 175.1 607.275 182.75 640 182.75 672.725 182.75 699.5 175.1 699.5 165.75L699.5 131.75C699.5 141.1 672.725 148.75 640 148.75Z" fill="#A6A6A6"/></g></g></g><rect x="564.5" y="206.5" width="152" height="132" stroke="#000000" stroke-miterlimit="8" fill="#FFFFFF"/><text font-family="Calibri,Calibri_MSFontService,sans-serif" font-weight="400" font-size="15" transform="translate(609.009 224)">Utilisateur<tspan font-family="Symbol,Symbol_MSFontService,sans-serif" font-size="15" x="-35" y="30"></tspan><tspan font-size="15" x="1" y="30">Nom utilisateur</tspan></text><path d="M610.009 255.492 640.676 255.492 671.343 255.492 702.009 255.492 702.009 257.492 671.343 257.492 640.676 257.492 610.009 257.492Z" fill-rule="evenodd"/><text font-family="Symbol,Symbol_MSFontService,sans-serif" font-weight="400" font-size="15" transform="translate(574.009 272)"><tspan font-family="Calibri,Calibri_MSFontService,sans-serif" font-size="15" x="36" y="0">Mot de passe</tspan><tspan font-size="15" x="0" y="19"></tspan><tspan font-family="Calibri,Calibri_MSFontService,sans-serif" font-size="15" x="36" y="19">Adresse mail</tspan></text><path d="M360 271.5C360 240.848 400.294 216 450 216 499.706 216 540 240.848 540 271.5 540 302.152 499.706 327 450 327 400.294 327 360 302.152 360 271.5Z" fill="#3AB395" fill-rule="evenodd"/><text fill="#FFFFFF" font-family="Calibri,Calibri_MSFontService,sans-serif" font-weight="400" font-size="11" transform="translate(426.818 240)">Appartenir<tspan font-size="11" x="13.2533" y="23">Date</tspan></text><path d="M440.238 262.927 460.238 262.927 460.238 264.927 440.238 264.927Z" fill="#FFFFFF" fill-rule="evenodd"/><text fill="#FFFFFF" font-family="Calibri,Calibri_MSFontService,sans-serif" font-weight="400" font-size="11" transform="translate(416.572 287)">Nom utilisateur</text><path d="M416.238 287.927 417.238 287.927 417.238 288.927 416.238 288.927ZM418.238 287.927 419.238 287.927 419.238 288.927 418.238 288.927ZM420.238 287.927 421.238 287.927 421.238 288.927 420.238 288.927ZM422.238 287.927 423.238 287.927 423.238 288.927 422.238 288.927ZM424.238 287.927 425.238 287.927 425.238 288.927 424.238 288.927ZM426.238 287.927 427.238 287.927 427.238 288.927 426.238 288.927ZM428.238 287.927 429.238 287.927 429.238 288.927 428.238 288.927ZM430.238 287.927 431.238 287.927 431.238 288.927 430.238 288.927ZM432.238 287.927 433.238 287.927 433.238 288.927 432.238 288.927ZM434.238 287.927 435.238 287.927 435.238 288.927 434.238 288.927ZM436.238 287.927 437.238 287.927 437.238 288.927 436.238 288.927ZM438.238 287.927 439.238 287.927 439.238 288.927 438.238 288.927ZM440.238 287.927 441.238 287.927 441.238 288.927 440.238 288.927ZM442.238 287.927 443.238 287.927 443.238 288.927 442.238 288.927ZM444.238 287.927 445.238 287.927 445.238 288.927 444.238 288.927ZM446.238 287.927 447.238 287.927 447.238 288.927 446.238 288.927ZM448.238 287.927 449.238 287.927 449.238 288.927 448.238 288.927ZM450.238 287.927 451.238 287.927 451.238 288.927 450.238 288.927ZM452.238 287.927 453.238 287.927 453.238 288.927 452.238 288.927ZM454.238 287.927 455.238 287.927 455.238 288.927 454.238 288.927ZM456.238 287.927 457.238 287.927 457.238 288.927 456.238 288.927ZM458.238 287.927 459.238 287.927 459.238 288.927 458.238 288.927ZM460.238 287.927 461.238 287.927 461.238 288.927 460.238 288.927ZM462.238 287.927 463.238 287.927 463.238 288.927 462.238 288.927ZM464.238 287.927 465.238 287.927 465.238 288.927 464.238 288.927ZM466.238 287.927 467.238 287.927 467.238 288.927 466.238 288.927ZM468.238 287.927 469.238 287.927 469.238 288.927 468.238 288.927ZM470.238 287.927 471.238 287.927 471.238 288.927 470.238 288.927ZM472.238 287.927 473.238 287.927 473.238 288.927 472.238 288.927ZM474.238 287.927 475.238 287.927 475.238 288.927 474.238 288.927ZM476.238 287.927 477.238 287.927 477.238 288.927 476.238 288.927ZM478.238 287.927 479.238 287.927 479.238 288.927 478.238 288.927ZM480.238 287.927 481.238 287.927 481.238 288.927 480.238 288.927ZM482.238 287.927 483.238 287.927 483.238 288.927 482.238 288.927Z" fill="#FFFFFF" fill-rule="evenodd"/><text fill="#FFFFFF" font-family="Calibri,Calibri_MSFontService,sans-serif" font-weight="400" font-size="11" transform="translate(417.072 310)">Niveau d’étude</text><path d="M417.238 310.927 418.238 310.927 418.238 311.927 417.238 311.927ZM419.238 310.927 420.238 310.927 420.238 311.927 419.238 311.927ZM421.238 310.927 422.238 310.927 422.238 311.927 421.238 311.927ZM423.238 310.927 424.238 310.927 424.238 311.927 423.238 311.927ZM425.238 310.927 426.238 310.927 426.238 311.927 425.238 311.927ZM427.238 310.927 428.238 310.927 428.238 311.927 427.238 311.927ZM429.238 310.927 430.238 310.927 430.238 311.927 429.238 311.927ZM431.238 310.927 432.238 310.927 432.238 311.927 431.238 311.927ZM433.238 310.927 434.238 310.927 434.238 311.927 433.238 311.927ZM435.238 310.927 436.238 310.927 436.238 311.927 435.238 311.927ZM437.238 310.927 438.238 310.927 438.238 311.927 437.238 311.927ZM439.238 310.927 440.238 310.927 440.238 311.927 439.238 311.927ZM441.238 310.927 442.238 310.927 442.238 311.927 441.238 311.927ZM443.238 310.927 444.238 310.927 444.238 311.927 443.238 311.927ZM445.238 310.927 446.238 310.927 446.238 311.927 445.238 311.927ZM447.238 310.927 448.238 310.927 448.238 311.927 447.238 311.927ZM449.238 310.927 450.238 310.927 450.238 311.927 449.238 311.927ZM451.238 310.927 452.238 310.927 452.238 311.927 451.238 311.927ZM453.238 310.927 454.238 310.927 454.238 311.927 453.238 311.927ZM455.238 310.927 456.238 310.927 456.238 311.927 455.238 311.927ZM457.238 310.927 458.238 310.927 458.238 311.927 457.238 311.927ZM459.238 310.927 460.238 310.927 460.238 311.927 459.238 311.927ZM461.238 310.927 462.238 310.927 462.238 311.927 461.238 311.927ZM463.238 310.927 464.238 310.927 464.238 311.927 463.238 311.927ZM465.238 310.927 466.238 310.927 466.238 311.927 465.238 311.927ZM467.238 310.927 468.238 310.927 468.238 311.927 467.238 311.927ZM469.238 310.927 470.238 310.927 470.238 311.927 469.238 311.927ZM471.238 310.927 472.238 310.927 472.238 311.927 471.238 311.927ZM473.238 310.927 474.238 310.927 474.238 311.927 473.238 311.927ZM475.238 310.927 476.238 310.927 476.238 311.927 475.238 311.927ZM477.238 310.927 478.238 310.927 478.238 311.927 477.238 311.927ZM479.238 310.927 480.238 310.927 480.238 311.927 479.238 311.927ZM481.238 310.927 482.238 310.927 482.238 311.927 481.238 311.927Z" fill="#FFFFFF" fill-rule="evenodd"/><rect x="167.5" y="206.5" width="151" height="132" stroke="#000000" stroke-miterlimit="8" fill="#FFFFFF"/><text font-family="Calibri,Calibri_MSFontService,sans-serif" font-weight="400" font-size="15" transform="translate(197.298 224)">Niveau d’étude<tspan font-family="Symbol,Symbol_MSFontService,sans-serif" font-size="15" x="-20.4133" y="30"></tspan><tspan font-size="15" x="15.5867" y="30">Niveau d’étude</tspan></text><path d="M212.884 255.492 243.218 255.492 273.551 255.492 303.884 255.492 303.884 257.492 273.551 257.492 243.218 257.492 212.884 257.492Z" fill-rule="evenodd"/><text font-family="Symbol,Symbol_MSFontService,sans-serif" font-weight="400" font-size="15" transform="translate(176.884 272)"><tspan font-family="Calibri,Calibri_MSFontService,sans-serif" font-size="15" x="36" y="0">Spécialités</tspan><tspan font-size="15" x="0" y="19"></tspan><tspan font-family="Calibri,Calibri_MSFontService,sans-serif" font-size="15" x="36" y="19">Nom utilisateur</tspan></text><path d="M212.884 293.492 213.884 293.492 213.884 294.492 212.884 294.492ZM214.884 293.492 215.884 293.492 215.884 294.492 214.884 294.492ZM216.884 293.492 217.884 293.492 217.884 294.492 216.884 294.492ZM218.884 293.492 219.884 293.492 219.884 294.492 218.884 294.492ZM220.884 293.492 221.884 293.492 221.884 294.492 220.884 294.492ZM222.884 293.492 223.884 293.492 223.884 294.492 222.884 294.492ZM224.884 293.492 225.884 293.492 225.884 294.492 224.884 294.492ZM226.884 293.492 227.884 293.492 227.884 294.492 226.884 294.492ZM228.884 293.492 229.884 293.492 229.884 294.492 228.884 294.492ZM230.884 293.492 231.884 293.492 231.884 294.492 230.884 294.492ZM232.884 293.492 233.884 293.492 233.884 294.492 232.884 294.492ZM234.884 293.492 235.884 293.492 235.884 294.492 234.884 294.492ZM236.884 293.492 237.884 293.492 237.884 294.492 236.884 294.492ZM238.884 293.492 239.884 293.492 239.884 294.492 238.884 294.492ZM240.884 293.492 241.884 293.492 241.884 294.492 240.884 294.492ZM242.884 293.492 243.884 293.492 243.884 294.492 242.884 294.492ZM244.884 293.492 245.884 293.492 245.884 294.492 244.884 294.492ZM246.884 293.492 247.884 293.492 247.884 294.492 246.884 294.492ZM248.884 293.492 249.884 293.492 249.884 294.492 248.884 294.492ZM250.884 293.492 251.884 293.492 251.884 294.492 250.884 294.492ZM252.884 293.492 253.884 293.492 253.884 294.492 252.884 294.492ZM254.884 293.492 255.884 293.492 255.884 294.492 254.884 294.492ZM256.884 293.492 257.884 293.492 257.884 294.492 256.884 294.492ZM258.884 293.492 259.884 293.492 259.884 294.492 258.884 294.492ZM260.884 293.492 261.884 293.492 261.884 294.492 260.884 294.492ZM262.884 293.492 263.884 293.492 263.884 294.492 262.884 294.492ZM264.884 293.492 265.884 293.492 265.884 294.492 264.884 294.492ZM266.884 293.492 267.884 293.492 267.884 294.492 266.884 294.492ZM268.884 293.492 269.884 293.492 269.884 294.492 268.884 294.492ZM270.884 293.492 271.884 293.492 271.884 294.492 270.884 294.492ZM272.884 293.492 273.884 293.492 273.884 294.492 272.884 294.492ZM274.884 293.492 275.884 293.492 275.884 294.492 274.884 294.492ZM276.884 293.492 277.884 293.492 277.884 294.492 276.884 294.492ZM278.884 293.492 279.884 293.492 279.884 294.492 278.884 294.492ZM280.884 293.492 281.884 293.492 281.884 294.492 280.884 294.492ZM282.884 293.492 283.884 293.492 283.884 294.492 282.884 294.492ZM284.884 293.492 285.884 293.492 285.884 294.492 284.884 294.492ZM286.884 293.492 287.884 293.492 287.884 294.492 286.884 294.492ZM288.884 293.492 289.884 293.492 289.884 294.492 288.884 294.492ZM290.884 293.492 291.884 293.492 291.884 294.492 290.884 294.492ZM292.884 293.492 293.884 293.492 293.884 294.492 292.884 294.492ZM294.884 293.492 295.884 293.492 295.884 294.492 294.884 294.492ZM296.884 293.492 297.884 293.492 297.884 294.492 296.884 294.492ZM298.884 293.492 299.884 293.492 299.884 294.492 298.884 294.492ZM300.884 293.492 301.884 293.492 301.884 294.492 300.884 294.492ZM302.884 293.492 303.884 293.492 303.884 294.492 302.884 294.492Z" fill-rule="evenodd"/><path d="M126 447.5C126 405.802 178.383 372 243 372 307.617 372 360 405.802 360 447.5 360 489.197 307.617 523 243 523 178.383 523 126 489.197 126 447.5Z" fill="#3AB395" fill-rule="evenodd"/><text fill="#FFFFFF" font-family="Calibri,Calibri_MSFontService,sans-serif" font-weight="400" font-size="11" transform="translate(212.955 414)">Correspondre<tspan font-size="11" x="-3.33333" y="25">Niveau d’</tspan><tspan font-size="11" x="37.6667" y="25">etude</tspan></text><path d="M209.875 440.383 210.875 440.383 210.875 441.383 209.875 441.383ZM211.875 440.383 212.875 440.383 212.875 441.383 211.875 441.383ZM213.875 440.383 214.875 440.383 214.875 441.383 213.875 441.383ZM215.875 440.383 216.875 440.383 216.875 441.383 215.875 441.383ZM217.875 440.383 218.875 440.383 218.875 441.383 217.875 441.383ZM219.875 440.383 220.875 440.383 220.875 441.383 219.875 441.383ZM221.875 440.383 222.875 440.383 222.875 441.383 221.875 441.383ZM223.875 440.383 224.875 440.383 224.875 441.383 223.875 441.383ZM225.875 440.383 226.875 440.383 226.875 441.383 225.875 441.383ZM227.875 440.383 228.875 440.383 228.875 441.383 227.875 441.383ZM229.875 440.383 230.875 440.383 230.875 441.383 229.875 441.383ZM231.875 440.383 232.875 440.383 232.875 441.383 231.875 441.383ZM233.875 440.383 234.875 440.383 234.875 441.383 233.875 441.383ZM235.875 440.383 236.875 440.383 236.875 441.383 235.875 441.383ZM237.875 440.383 238.875 440.383 238.875 441.383 237.875 441.383ZM239.875 440.383 240.875 440.383 240.875 441.383 239.875 441.383ZM241.875 440.383 242.875 440.383 242.875 441.383 241.875 441.383ZM243.875 440.383 244.875 440.383 244.875 441.383 243.875 441.383ZM245.875 440.383 246.875 440.383 246.875 441.383 245.875 441.383ZM247.875 440.383 248.875 440.383 248.875 441.383 247.875 441.383ZM249.875 440.383 250.875 440.383 250.875 441.383 249.875 441.383ZM251.875 440.383 252.875 440.383 252.875 441.383 251.875 441.383ZM253.875 440.383 254.875 440.383 254.875 441.383 253.875 441.383ZM255.875 440.383 256.875 440.383 256.875 441.383 255.875 441.383ZM257.875 440.383 258.875 440.383 258.875 441.383 257.875 441.383ZM259.875 440.383 260.875 440.383 260.875 441.383 259.875 441.383ZM261.875 440.383 262.875 440.383 262.875 441.383 261.875 441.383ZM263.875 440.383 264.875 440.383 264.875 441.383 263.875 441.383ZM265.875 440.383 266.875 440.383 266.875 441.383 265.875 441.383ZM267.875 440.383 268.875 440.383 268.875 441.383 267.875 441.383ZM269.875 440.383 270.875 440.383 270.875 441.383 269.875 441.383ZM271.875 440.383 272.875 440.383 272.875 441.383 271.875 441.383ZM273.875 440.383 274.875 440.383 274.875 441.383 273.875 441.383Z" fill="#FFFFFF" fill-rule="evenodd"/><text fill="#FFFFFF" font-family="Calibri,Calibri_MSFontService,sans-serif" font-weight="400" font-size="11" transform="translate(199.542 463)">Coefficient_matière</text><path d="M199.875 464.383 200.875 464.383 200.875 465.383 199.875 465.383ZM201.875 464.383 202.875 464.383 202.875 465.383 201.875 465.383ZM203.875 464.383 204.875 464.383 204.875 465.383 203.875 465.383ZM205.875 464.383 206.875 464.383 206.875 465.383 205.875 465.383ZM207.875 464.383 208.875 464.383 208.875 465.383 207.875 465.383ZM209.875 464.383 210.875 464.383 210.875 465.383 209.875 465.383ZM211.875 464.383 212.875 464.383 212.875 465.383 211.875 465.383ZM213.875 464.383 214.875 464.383 214.875 465.383 213.875 465.383ZM215.875 464.383 216.875 464.383 216.875 465.383 215.875 465.383ZM217.875 464.383 218.875 464.383 218.875 465.383 217.875 465.383ZM219.875 464.383 220.875 464.383 220.875 465.383 219.875 465.383ZM221.875 464.383 222.875 464.383 222.875 465.383 221.875 465.383ZM223.875 464.383 224.875 464.383 224.875 465.383 223.875 465.383ZM225.875 464.383 226.875 464.383 226.875 465.383 225.875 465.383ZM227.875 464.383 228.875 464.383 228.875 465.383 227.875 465.383ZM229.875 464.383 230.875 464.383 230.875 465.383 229.875 465.383ZM231.875 464.383 232.875 464.383 232.875 465.383 231.875 465.383ZM233.875 464.383 234.875 464.383 234.875 465.383 233.875 465.383ZM235.875 464.383 236.875 464.383 236.875 465.383 235.875 465.383ZM237.875 464.383 238.875 464.383 238.875 465.383 237.875 465.383ZM239.875 464.383 240.875 464.383 240.875 465.383 239.875 465.383ZM241.875 464.383 242.875 464.383 242.875 465.383 241.875 465.383ZM243.875 464.383 244.875 464.383 244.875 465.383 243.875 465.383ZM245.875 464.383 246.875 464.383 246.875 465.383 245.875 465.383ZM247.875 464.383 248.875 464.383 248.875 465.383 247.875 465.383ZM249.875 464.383 250.875 464.383 250.875 465.383 249.875 465.383ZM251.875 464.383 252.875 464.383 252.875 465.383 251.875 465.383ZM253.875 464.383 254.875 464.383 254.875 465.383 253.875 465.383ZM255.875 464.383 256.875 464.383 256.875 465.383 255.875 465.383ZM257.875 464.383 258.875 464.383 258.875 465.383 257.875 465.383ZM259.875 464.383 260.875 464.383 260.875 465.383 259.875 465.383ZM261.875 464.383 262.875 464.383 262.875 465.383 261.875 465.383ZM263.875 464.383 264.875 464.383 264.875 465.383 263.875 465.383ZM265.875 464.383 266.875 464.383 266.875 465.383 265.875 465.383ZM267.875 464.383 268.875 464.383 268.875 465.383 267.875 465.383ZM269.875 464.383 270.875 464.383 270.875 465.383 269.875 465.383ZM271.875 464.383 272.875 464.383 272.875 465.383 271.875 465.383ZM273.875 464.383 274.875 464.383 274.875 465.383 273.875 465.383ZM275.875 464.383 276.875 464.383 276.875 465.383 275.875 465.383ZM277.875 464.383 278.875 464.383 278.875 465.383 277.875 465.383ZM279.875 464.383 280.875 464.383 280.875 465.383 279.875 465.383ZM281.875 464.383 282.875 464.383 282.875 465.383 281.875 465.383ZM283.875 464.383 284.875 464.383 284.875 465.383 283.875 465.383Z" fill="#FFFFFF" fill-rule="evenodd"/><text fill="#FFFFFF" font-family="Calibri,Calibri_MSFontService,sans-serif" font-weight="400" font-size="11" transform="translate(206.875 487)">Coefficient_type</text><path d="M206.875 488.383 207.875 488.383 207.875 489.383 206.875 489.383ZM208.875 488.383 209.875 488.383 209.875 489.383 208.875 489.383ZM210.875 488.383 211.875 488.383 211.875 489.383 210.875 489.383ZM212.875 488.383 213.875 488.383 213.875 489.383 212.875 489.383ZM214.875 488.383 215.875 488.383 215.875 489.383 214.875 489.383ZM216.875 488.383 217.875 488.383 217.875 489.383 216.875 489.383ZM218.875 488.383 219.875 488.383 219.875 489.383 218.875 489.383ZM220.875 488.383 221.875 488.383 221.875 489.383 220.875 489.383ZM222.875 488.383 223.875 488.383 223.875 489.383 222.875 489.383ZM224.875 488.383 225.875 488.383 225.875 489.383 224.875 489.383ZM226.875 488.383 227.875 488.383 227.875 489.383 226.875 489.383ZM228.875 488.383 229.875 488.383 229.875 489.383 228.875 489.383ZM230.875 488.383 231.875 488.383 231.875 489.383 230.875 489.383ZM232.875 488.383 233.875 488.383 233.875 489.383 232.875 489.383ZM234.875 488.383 235.875 488.383 235.875 489.383 234.875 489.383ZM236.875 488.383 237.875 488.383 237.875 489.383 236.875 489.383ZM238.875 488.383 239.875 488.383 239.875 489.383 238.875 489.383ZM240.875 488.383 241.875 488.383 241.875 489.383 240.875 489.383ZM242.875 488.383 243.875 488.383 243.875 489.383 242.875 489.383ZM244.875 488.383 245.875 488.383 245.875 489.383 244.875 489.383ZM246.875 488.383 247.875 488.383 247.875 489.383 246.875 489.383ZM248.875 488.383 249.875 488.383 249.875 489.383 248.875 489.383ZM250.875 488.383 251.875 488.383 251.875 489.383 250.875 489.383ZM252.875 488.383 253.875 488.383 253.875 489.383 252.875 489.383ZM254.875 488.383 255.875 488.383 255.875 489.383 254.875 489.383ZM256.875 488.383 257.875 488.383 257.875 489.383 256.875 489.383ZM258.875 488.383 259.875 488.383 259.875 489.383 258.875 489.383ZM260.875 488.383 261.875 488.383 261.875 489.383 260.875 489.383ZM262.875 488.383 263.875 488.383 263.875 489.383 262.875 489.383ZM264.875 488.383 265.875 488.383 265.875 489.383 264.875 489.383ZM266.875 488.383 267.875 488.383 267.875 489.383 266.875 489.383ZM268.875 488.383 269.875 488.383 269.875 489.383 268.875 489.383ZM270.875 488.383 271.875 488.383 271.875 489.383 270.875 489.383ZM272.875 488.383 273.875 488.383 273.875 489.383 272.875 489.383ZM274.875 488.383 275.875 488.383 275.875 489.383 274.875 489.383ZM276.875 488.383 277.875 488.383 277.875 489.383 276.875 489.383Z" fill="#FFFFFF" fill-rule="evenodd"/><rect x="53.5001" y="568.5" width="147" height="90" stroke="#000000" stroke-miterlimit="8" fill="#FFFFFF"/><text font-family="Calibri,Calibri_MSFontService,sans-serif" font-weight="400" font-size="15" transform="translate(65.9688 586)">Coefficients matière<tspan font-size="15" x="36.3333" y="30">Matière</tspan><tspan font-size="15" x="0.833336" y="59">Coefficient_matière</tspan></text><path d="M67.2222 647.351 96.7222 647.351 126.222 647.351 155.722 647.351 185.222 647.351 185.222 648.351 155.722 648.351 126.222 648.351 96.7222 648.351 67.2222 648.351Z" fill-rule="evenodd"/><rect x="286.5" y="568.5" width="147" height="90" stroke="#000000" stroke-miterlimit="8" fill="#FFFFFF"/><text font-family="Calibri,Calibri_MSFontService,sans-serif" font-weight="400" font-size="15" transform="translate(309.697 586)">Coefficients type<tspan font-size="15" x="35.58" y="30">Type</tspan><tspan font-size="15" x="0.833344" y="59">Coefficient_type</tspan></text><path d="M310.864 647.351 335.364 647.351 359.864 647.351 384.364 647.351 408.864 647.351 408.864 648.351 384.364 648.351 359.864 648.351 335.364 648.351 310.864 648.351Z" fill-rule="evenodd"/><rect x="980.5" y="205.5" width="151" height="133" stroke="#000000" stroke-miterlimit="8" fill="#FFFFFF"/><text font-family="Calibri,Calibri_MSFontService,sans-serif" font-weight="400" font-size="15" transform="translate(1037.93 224)">Notes<tspan font-family="Arial,Arial_MSFontService,sans-serif" font-size="15" x="-48.4133" y="29">•</tspan><tspan font-size="15" x="-30.4133" y="29">Intitulé note</tspan></text><path d="M1007.51 254.186 1032.18 254.186 1056.85 254.186 1081.51 254.186 1081.51 256.186 1056.85 256.186 1032.18 256.186 1007.51 256.186Z" fill-rule="evenodd"/><text font-family="Arial,Arial_MSFontService,sans-serif" font-weight="400" font-size="15" transform="translate(989.512 271)">•<tspan font-family="Calibri,Calibri_MSFontService,sans-serif" font-size="15" x="18" y="0">Note</tspan><tspan font-size="15" x="0" y="17">•</tspan><tspan font-family="Calibri,Calibri_MSFontService,sans-serif" font-size="15" x="18" y="17">Matière </tspan></text><path d="M1007.51 290.186 1008.51 290.186 1008.51 291.186 1007.51 291.186ZM1009.51 290.186 1010.51 290.186 1010.51 291.186 1009.51 291.186ZM1011.51 290.186 1012.51 290.186 1012.51 291.186 1011.51 291.186ZM1013.51 290.186 1014.51 290.186 1014.51 291.186 1013.51 291.186ZM1015.51 290.186 1016.51 290.186 1016.51 291.186 1015.51 291.186ZM1017.51 290.186 1018.51 290.186 1018.51 291.186 1017.51 291.186ZM1019.51 290.186 1020.51 290.186 1020.51 291.186 1019.51 291.186ZM1021.51 290.186 1022.51 290.186 1022.51 291.186 1021.51 291.186ZM1023.51 290.186 1024.51 290.186 1024.51 291.186 1023.51 291.186ZM1025.51 290.186 1026.51 290.186 1026.51 291.186 1025.51 291.186ZM1027.51 290.186 1028.51 290.186 1028.51 291.186 1027.51 291.186ZM1029.51 290.186 1030.51 290.186 1030.51 291.186 1029.51 291.186ZM1031.51 290.186 1032.51 290.186 1032.51 291.186 1031.51 291.186ZM1033.51 290.186 1034.51 290.186 1034.51 291.186 1033.51 291.186ZM1035.51 290.186 1036.51 290.186 1036.51 291.186 1035.51 291.186ZM1037.51 290.186 1038.51 290.186 1038.51 291.186 1037.51 291.186ZM1039.51 290.186 1040.51 290.186 1040.51 291.186 1039.51 291.186ZM1041.51 290.186 1042.51 290.186 1042.51 291.186 1041.51 291.186ZM1043.51 290.186 1044.51 290.186 1044.51 291.186 1043.51 291.186ZM1045.51 290.186 1046.51 290.186 1046.51 291.186 1045.51 291.186ZM1047.51 290.186 1048.51 290.186 1048.51 291.186 1047.51 291.186ZM1049.51 290.186 1050.51 290.186 1050.51 291.186 1049.51 291.186ZM1051.51 290.186 1052.51 290.186 1052.51 291.186 1051.51 291.186ZM1053.51 290.186 1054.51 290.186 1054.51 291.186 1053.51 291.186Z" fill-rule="evenodd"/><text font-family="Arial,Arial_MSFontService,sans-serif" font-weight="400" font-size="15" transform="translate(989.512 306)">•<tspan font-family="Calibri,Calibri_MSFontService,sans-serif" font-size="15" x="18" y="0">Type</tspan></text><path d="M1007.51 308.186 1008.51 308.186 1008.51 309.186 1007.51 309.186ZM1009.51 308.186 1010.51 308.186 1010.51 309.186 1009.51 309.186ZM1011.51 308.186 1012.51 308.186 1012.51 309.186 1011.51 309.186ZM1013.51 308.186 1014.51 308.186 1014.51 309.186 1013.51 309.186ZM1015.51 308.186 1016.51 308.186 1016.51 309.186 1015.51 309.186ZM1017.51 308.186 1018.51 308.186 1018.51 309.186 1017.51 309.186ZM1019.51 308.186 1020.51 308.186 1020.51 309.186 1019.51 309.186ZM1021.51 308.186 1022.51 308.186 1022.51 309.186 1021.51 309.186ZM1023.51 308.186 1024.51 308.186 1024.51 309.186 1023.51 309.186ZM1025.51 308.186 1026.51 308.186 1026.51 309.186 1025.51 309.186ZM1027.51 308.186 1028.51 308.186 1028.51 309.186 1027.51 309.186ZM1029.51 308.186 1030.51 308.186 1030.51 309.186 1029.51 309.186ZM1031.51 308.186 1032.51 308.186 1032.51 309.186 1031.51 309.186ZM1033.51 308.186 1034.51 308.186 1034.51 309.186 1033.51 309.186ZM1035.51 308.186 1036.51 308.186 1036.51 309.186 1035.51 309.186Z" fill-rule="evenodd"/><text font-family="Arial,Arial_MSFontService,sans-serif" font-weight="400" font-size="15" transform="translate(989.512 324)">•<tspan font-family="Calibri,Calibri_MSFontService,sans-serif" font-size="15" x="18" y="0">Nom utilisateur</tspan></text><path d="M1007.51 326.186 1008.51 326.186 1008.51 327.186 1007.51 327.186ZM1009.51 326.186 1010.51 326.186 1010.51 327.186 1009.51 327.186ZM1011.51 326.186 1012.51 326.186 1012.51 327.186 1011.51 327.186ZM1013.51 326.186 1014.51 326.186 1014.51 327.186 1013.51 327.186ZM1015.51 326.186 1016.51 326.186 1016.51 327.186 1015.51 327.186ZM1017.51 326.186 1018.51 326.186 1018.51 327.186 1017.51 327.186ZM1019.51 326.186 1020.51 326.186 1020.51 327.186 1019.51 327.186ZM1021.51 326.186 1022.51 326.186 1022.51 327.186 1021.51 327.186ZM1023.51 326.186 1024.51 326.186 1024.51 327.186 1023.51 327.186ZM1025.51 326.186 1026.51 326.186 1026.51 327.186 1025.51 327.186ZM1027.51 326.186 1028.51 326.186 1028.51 327.186 1027.51 327.186ZM1029.51 326.186 1030.51 326.186 1030.51 327.186 1029.51 327.186ZM1031.51 326.186 1032.51 326.186 1032.51 327.186 1031.51 327.186ZM1033.51 326.186 1034.51 326.186 1034.51 327.186 1033.51 327.186ZM1035.51 326.186 1036.51 326.186 1036.51 327.186 1035.51 327.186ZM1037.51 326.186 1038.51 326.186 1038.51 327.186 1037.51 327.186ZM1039.51 326.186 1040.51 326.186 1040.51 327.186 1039.51 327.186ZM1041.51 326.186 1042.51 326.186 1042.51 327.186 1041.51 327.186ZM1043.51 326.186 1044.51 326.186 1044.51 327.186 1043.51 327.186ZM1045.51 326.186 1046.51 326.186 1046.51 327.186 1045.51 327.186ZM1047.51 326.186 1048.51 326.186 1048.51 327.186 1047.51 327.186ZM1049.51 326.186 1050.51 326.186 1050.51 327.186 1049.51 327.186ZM1051.51 326.186 1052.51 326.186 1052.51 327.186 1051.51 327.186ZM1053.51 326.186 1054.51 326.186 1054.51 327.186 1053.51 327.186ZM1055.51 326.186 1056.51 326.186 1056.51 327.186 1055.51 327.186ZM1057.51 326.186 1058.51 326.186 1058.51 327.186 1057.51 327.186ZM1059.51 326.186 1060.51 326.186 1060.51 327.186 1059.51 327.186ZM1061.51 326.186 1062.51 326.186 1062.51 327.186 1061.51 327.186ZM1063.51 326.186 1064.51 326.186 1064.51 327.186 1063.51 327.186ZM1065.51 326.186 1066.51 326.186 1066.51 327.186 1065.51 327.186ZM1067.51 326.186 1068.51 326.186 1068.51 327.186 1067.51 327.186ZM1069.51 326.186 1070.51 326.186 1070.51 327.186 1069.51 327.186ZM1071.51 326.186 1072.51 326.186 1072.51 327.186 1071.51 327.186ZM1073.51 326.186 1074.51 326.186 1074.51 327.186 1073.51 327.186ZM1075.51 326.186 1076.51 326.186 1076.51 327.186 1075.51 327.186ZM1077.51 326.186 1078.51 326.186 1078.51 327.186 1077.51 327.186ZM1079.51 326.186 1080.51 326.186 1080.51 327.186 1079.51 327.186ZM1081.51 326.186 1082.51 326.186 1082.51 327.186 1081.51 327.186ZM1083.51 326.186 1084.51 326.186 1084.51 327.186 1083.51 327.186ZM1085.51 326.186 1086.51 326.186 1086.51 327.186 1085.51 327.186ZM1087.51 326.186 1088.51 326.186 1088.51 327.186 1087.51 327.186ZM1089.51 326.186 1090.51 326.186 1090.51 327.186 1089.51 327.186ZM1091.51 326.186 1092.51 326.186 1092.51 327.186 1091.51 327.186ZM1093.51 326.186 1094.51 326.186 1094.51 327.186 1093.51 327.186ZM1095.51 326.186 1096.51 326.186 1096.51 327.186 1095.51 327.186ZM1097.51 326.186 1098.51 326.186 1098.51 327.186 1097.51 327.186Z" fill-rule="evenodd"/><path d="M758 272C758 239.967 798.294 214 848 214 897.706 214 938 239.967 938 272 938 304.033 897.706 330 848 330 798.294 330 758 304.033 758 272Z" fill="#3AB395" fill-rule="evenodd"/><text fill="#FFFFFF" font-family="Calibri,Calibri_MSFontService,sans-serif" font-weight="400" font-size="11" transform="translate(831.081 238)">Obtenir<tspan font-size="11" x="6.41998" y="25">Date</tspan></text><path d="M837.668 263.487 857.668 263.487 857.668 265.487 837.668 265.487Z" fill="#FFFFFF" fill-rule="evenodd"/><text fill="#FFFFFF" font-family="Calibri,Calibri_MSFontService,sans-serif" font-weight="400" font-size="11" transform="translate(814.001 287)">Nom utilisateur</text><path d="M813.668 288.487 814.668 288.487 814.668 289.487 813.668 289.487ZM815.668 288.487 816.668 288.487 816.668 289.487 815.668 289.487ZM817.668 288.487 818.668 288.487 818.668 289.487 817.668 289.487ZM819.668 288.487 820.668 288.487 820.668 289.487 819.668 289.487ZM821.668 288.487 822.668 288.487 822.668 289.487 821.668 289.487ZM823.668 288.487 824.668 288.487 824.668 289.487 823.668 289.487ZM825.668 288.487 826.668 288.487 826.668 289.487 825.668 289.487ZM827.668 288.487 828.668 288.487 828.668 289.487 827.668 289.487ZM829.668 288.487 830.668 288.487 830.668 289.487 829.668 289.487ZM831.668 288.487 832.668 288.487 832.668 289.487 831.668 289.487ZM833.668 288.487 834.668 288.487 834.668 289.487 833.668 289.487ZM835.668 288.487 836.668 288.487 836.668 289.487 835.668 289.487ZM837.668 288.487 838.668 288.487 838.668 289.487 837.668 289.487ZM839.668 288.487 840.668 288.487 840.668 289.487 839.668 289.487ZM841.668 288.487 842.668 288.487 842.668 289.487 841.668 289.487ZM843.668 288.487 844.668 288.487 844.668 289.487 843.668 289.487ZM845.668 288.487 846.668 288.487 846.668 289.487 845.668 289.487ZM847.668 288.487 848.668 288.487 848.668 289.487 847.668 289.487ZM849.668 288.487 850.668 288.487 850.668 289.487 849.668 289.487ZM851.668 288.487 852.668 288.487 852.668 289.487 851.668 289.487ZM853.668 288.487 854.668 288.487 854.668 289.487 853.668 289.487ZM855.668 288.487 856.668 288.487 856.668 289.487 855.668 289.487ZM857.668 288.487 858.668 288.487 858.668 289.487 857.668 289.487ZM859.668 288.487 860.668 288.487 860.668 289.487 859.668 289.487ZM861.668 288.487 862.668 288.487 862.668 289.487 861.668 289.487ZM863.668 288.487 864.668 288.487 864.668 289.487 863.668 289.487ZM865.668 288.487 866.668 288.487 866.668 289.487 865.668 289.487ZM867.668 288.487 868.668 288.487 868.668 289.487 867.668 289.487ZM869.668 288.487 870.668 288.487 870.668 289.487 869.668 289.487ZM871.668 288.487 872.668 288.487 872.668 289.487 871.668 289.487ZM873.668 288.487 874.668 288.487 874.668 289.487 873.668 289.487ZM875.668 288.487 876.668 288.487 876.668 289.487 875.668 289.487ZM877.668 288.487 878.668 288.487 878.668 289.487 877.668 289.487ZM879.668 288.487 880.668 288.487 880.668 289.487 879.668 289.487Z" fill="#FFFFFF" fill-rule="evenodd"/><text fill="#FFFFFF" font-family="Calibri,Calibri_MSFontService,sans-serif" font-weight="400" font-size="11" transform="translate(820.835 311)">Intitulé note</text><path d="M820.668 312.487 821.668 312.487 821.668 313.487 820.668 313.487ZM822.668 312.487 823.668 312.487 823.668 313.487 822.668 313.487ZM824.668 312.487 825.668 312.487 825.668 313.487 824.668 313.487ZM826.668 312.487 827.668 312.487 827.668 313.487 826.668 313.487ZM828.668 312.487 829.668 312.487 829.668 313.487 828.668 313.487ZM830.668 312.487 831.668 312.487 831.668 313.487 830.668 313.487ZM832.668 312.487 833.668 312.487 833.668 313.487 832.668 313.487ZM834.668 312.487 835.668 312.487 835.668 313.487 834.668 313.487ZM836.668 312.487 837.668 312.487 837.668 313.487 836.668 313.487ZM838.668 312.487 839.668 312.487 839.668 313.487 838.668 313.487ZM840.668 312.487 841.668 312.487 841.668 313.487 840.668 313.487ZM842.668 312.487 843.668 312.487 843.668 313.487 842.668 313.487ZM844.668 312.487 845.668 312.487 845.668 313.487 844.668 313.487ZM846.668 312.487 847.668 312.487 847.668 313.487 846.668 313.487ZM848.668 312.487 849.668 312.487 849.668 313.487 848.668 313.487ZM850.668 312.487 851.668 312.487 851.668 313.487 850.668 313.487ZM852.668 312.487 853.668 312.487 853.668 313.487 852.668 313.487ZM854.668 312.487 855.668 312.487 855.668 313.487 854.668 313.487ZM856.668 312.487 857.668 312.487 857.668 313.487 856.668 313.487ZM858.668 312.487 859.668 312.487 859.668 313.487 858.668 313.487ZM860.668 312.487 861.668 312.487 861.668 313.487 860.668 313.487ZM862.668 312.487 863.668 312.487 863.668 313.487 862.668 313.487ZM864.668 312.487 865.668 312.487 865.668 313.487 864.668 313.487ZM866.668 312.487 867.668 312.487 867.668 313.487 866.668 313.487ZM868.668 312.487 869.668 312.487 869.668 313.487 868.668 313.487ZM870.668 312.487 871.668 312.487 871.668 313.487 870.668 313.487ZM872.668 312.487 873.668 312.487 873.668 313.487 872.668 313.487Z" fill="#FFFFFF" fill-rule="evenodd"/><path d="M0 0 116.823 44.8573" stroke="#000000" stroke-width="2" stroke-miterlimit="8" fill="none" fill-rule="evenodd" transform="matrix(-1 0 0 1 242.823 523)"/><path d="M243 523 359.823 567.857" stroke="#000000" stroke-width="2" stroke-miterlimit="8" fill="none" fill-rule="evenodd"/><path d="M243 338 243 372.27" stroke="#000000" stroke-width="2" stroke-miterlimit="8" fill="none" fill-rule="evenodd"/><path d="M0 0 41.7806 0.306037" stroke="#000000" stroke-width="2" stroke-miterlimit="8" fill="none" fill-rule="evenodd" transform="matrix(-1 0 0 1 359.781 272)"/><path d="M564.012 272.306 540 272" stroke="#000000" stroke-width="2" stroke-miterlimit="8" fill="none" fill-rule="evenodd"/><path d="M0 0 42.0942 0.306142" stroke="#000000" stroke-width="2" stroke-miterlimit="8" fill="none" fill-rule="evenodd" transform="matrix(1 0 0 -1 716 272.306)"/><path d="M938 272 980.094 272" stroke="#000000" stroke-width="2" stroke-miterlimit="8" fill="none" fill-rule="evenodd"/><path d="M723 479C723 450.281 775.159 427 839.5 427 903.841 427 956 450.281 956 479 956 507.719 903.841 531 839.5 531 775.159 531 723 507.719 723 479Z" fill="#3AB395" fill-rule="evenodd"/><text fill="#FFFFFF" font-family="Calibri,Calibri_MSFontService,sans-serif" font-weight="400" font-size="15" transform="translate(798.398 469)">Correspondre<tspan font-size="15" x="5.91333" y="30">Coefficients</tspan></text><path d="M804.398 501.322 805.398 501.322 805.398 502.322 804.398 502.322ZM806.398 501.322 807.398 501.322 807.398 502.322 806.398 502.322ZM808.398 501.322 809.398 501.322 809.398 502.322 808.398 502.322ZM810.398 501.322 811.398 501.322 811.398 502.322 810.398 502.322ZM812.398 501.322 813.398 501.322 813.398 502.322 812.398 502.322ZM814.398 501.322 815.398 501.322 815.398 502.322 814.398 502.322ZM816.398 501.322 817.398 501.322 817.398 502.322 816.398 502.322ZM818.398 501.322 819.398 501.322 819.398 502.322 818.398 502.322ZM820.398 501.322 821.398 501.322 821.398 502.322 820.398 502.322ZM822.398 501.322 823.398 501.322 823.398 502.322 822.398 502.322ZM824.398 501.322 825.398 501.322 825.398 502.322 824.398 502.322ZM826.398 501.322 827.398 501.322 827.398 502.322 826.398 502.322ZM828.398 501.322 829.398 501.322 829.398 502.322 828.398 502.322ZM830.398 501.322 831.398 501.322 831.398 502.322 830.398 502.322ZM832.398 501.322 833.398 501.322 833.398 502.322 832.398 502.322ZM834.398 501.322 835.398 501.322 835.398 502.322 834.398 502.322ZM836.398 501.322 837.398 501.322 837.398 502.322 836.398 502.322ZM838.398 501.322 839.398 501.322 839.398 502.322 838.398 502.322ZM840.398 501.322 841.398 501.322 841.398 502.322 840.398 502.322ZM842.398 501.322 843.398 501.322 843.398 502.322 842.398 502.322ZM844.398 501.322 845.398 501.322 845.398 502.322 844.398 502.322ZM846.398 501.322 847.398 501.322 847.398 502.322 846.398 502.322ZM848.398 501.322 849.398 501.322 849.398 502.322 848.398 502.322ZM850.398 501.322 851.398 501.322 851.398 502.322 850.398 502.322ZM852.398 501.322 853.398 501.322 853.398 502.322 852.398 502.322ZM854.398 501.322 855.398 501.322 855.398 502.322 854.398 502.322ZM856.398 501.322 857.398 501.322 857.398 502.322 856.398 502.322ZM858.398 501.322 859.398 501.322 859.398 502.322 858.398 502.322ZM860.398 501.322 861.398 501.322 861.398 502.322 860.398 502.322ZM862.398 501.322 863.398 501.322 863.398 502.322 862.398 502.322ZM864.398 501.322 865.398 501.322 865.398 502.322 864.398 502.322ZM866.398 501.322 867.398 501.322 867.398 502.322 866.398 502.322ZM868.398 501.322 869.398 501.322 869.398 502.322 868.398 502.322ZM870.398 501.322 871.398 501.322 871.398 502.322 870.398 502.322ZM872.398 501.322 873.398 501.322 873.398 502.322 872.398 502.322Z" fill="#FFFFFF" fill-rule="evenodd"/><path d="M126 657.711 126 681.712 839.346 681.712 839.346 531" stroke="#000000" stroke-width="2" stroke-miterlimit="8" fill="none" fill-rule="evenodd"/><path d="M0 0 406.212 0 406.212 81.6446" stroke="#000000" stroke-width="2" stroke-miterlimit="8" fill="none" fill-rule="evenodd" transform="matrix(1 0 0 -1 433 612.645)"/></g></svg>