<svg width="4454" height="3820" xmlns="http://www.w3.org/2000/svg" xmlns:xlink="http://www.w3.org/1999/xlink" overflow="hidden"><defs><clipPath id="clip0"><rect x="-1" y="1250" width="4454" height="3820"/></clipPath><clipPath id="clip1"><rect x="0" y="1250" width="4451" height="3817"/></clipPath><clipPath id="clip2"><rect x="1131" y="1431" width="3252" height="3281"/></clipPath><clipPath id="clip3"><rect x="0" y="1250" width="4451" height="3817"/></clipPath><clipPath id="clip4"><rect x="0" y="1250" width="4451" height="3817"/></clipPath><clipPath id="clip5"><rect x="0" y="1250" width="4451" height="3817"/></clipPath><clipPath id="clip6"><rect x="0" y="1250" width="4451" height="3817"/></clipPath><clipPath id="clip7"><rect x="0" y="1250" width="4451" height="3817"/></clipPath><clipPath id="clip8"><rect x="0" y="1250" width="4451" height="3817"/></clipPath><clipPath id="clip9"><rect x="0" y="1250" width="4451" height="3817"/></clipPath><clipPath id="clip10"><rect x="0" y="1250" width="4451" height="3817"/></clipPath><clipPath id="clip11"><rect x="0" y="1250" width="4451" height="3817"/></clipPath><clipPath id="clip12"><rect x="0" y="1250" width="4451" height="3817"/></clipPath><clipPath id="clip13"><rect x="0" y="1250" width="4451" height="3817"/></clipPath><clipPath id="clip14"><rect x="0" y="1250" width="4451" height="3817"/></clipPath><clipPath id="clip15"><rect x="0" y="1250" width="4451" height="3817"/></clipPath><clipPath id="clip16"><rect x="0" y="1250" width="4451" height="3817"/></clipPath><clipPath id="clip17"><rect x="0" y="1250" width="4451" height="3817"/></clipPath><clipPath id="clip18"><rect x="0" y="1250" width="4451" height="3817"/></clipPath><clipPath id="clip19"><rect x="0" y="1250" width="4451" height="3817"/></clipPath><clipPath id="clip20"><rect x="0" y="1250" width="4451" height="3817"/></clipPath><clipPath id="clip21"><rect x="0" y="1250" width="4451" height="3817"/></clipPath><clipPath id="clip22"><rect x="0" y="1250" width="4451" height="3817"/></clipPath><clipPath id="clip23"><rect x="0" y="1250" width="4451" height="3817"/></clipPath><clipPath id="clip24"><rect x="0" y="1250" width="4451" height="3817"/></clipPath><clipPath id="clip25"><rect x="0" y="1250" width="4451" height="3817"/></clipPath><clipPath id="clip26"><rect x="0" y="1250" width="4451" height="3817"/></clipPath><clipPath id="clip27"><rect x="0" y="1250" width="4451" height="3817"/></clipPath><clipPath id="clip28"><rect x="0" y="1250" width="4451" height="3817"/></clipPath><clipPath id="clip29"><rect x="0" y="1250" width="4451" height="3817"/></clipPath><clipPath id="clip30"><rect x="0" y="1250" width="4451" height="3817"/></clipPath><clipPath id="clip31"><rect x="0" y="1250" width="4451" height="3817"/></clipPath><clipPath id="clip32"><rect x="0" y="1250" width="4451" height="3817"/></clipPath><clipPath id="clip33"><rect x="0" y="1250" width="4451" height="3817"/></clipPath></defs><g clip-path="url(#clip0)" transform="translate(1 -1250)"><rect x="0" y="1251" width="4451" height="3817" fill="#FFFFFF"/><g clip-path="url(#clip1)"><path d="M1673.56 1431.5 1673.56 4709.5M2214.57 1431.5 2214.57 4709.5M2755.59 1431.5 2755.59 4709.5M3296.61 1431.5 3296.61 4709.5M3838.63 1431.5 3838.63 4709.5M4379.5 1431.5 4379.5 4709.5" stroke="#44546A" stroke-width="3.4375" stroke-linejoin="round" stroke-miterlimit="10" stroke-dasharray="13.75 10.3125" stroke-opacity="0.6" fill="none"/></g><g clip-path="url(#clip2)"><path d="M3838.13 4651.15 1186.04 4651.15 1186.04 4574.15 3838.13 4574.15ZM1457.05 4459.15 1186.04 4459.15 1186.04 4381.14 1457.05 4381.14ZM1348.04 4266.14 1186.04 4266.14 1186.04 4189.14 1348.04 4189.14ZM1835.06 4073.13 1565.05 4073.13 1565.05 3996.13 1835.06 3996.13ZM2647.09 3880.13 1348.04 3880.13 1348.04 3803.12 2647.09 3803.12ZM1781.06 3687.12 1348.04 3687.12 1348.04 3610.12 1781.06 3610.12ZM3622.12 3495.11 2756.09 3495.11 2756.09 3418.11 3622.12 3418.11ZM2810.09 3302.11 2323.08 3302.11 2323.08 3225.11 2810.09 3225.11ZM3568.12 3109.1 2810.09 3109.1 2810.09 3032.1 3568.12 3032.1ZM3622.12 2916.1 2864.09 2916.1 2864.09 2839.09 3622.12 2839.09ZM2323.08 2724.09 1998.07 2724.09 1998.07 2646.09 2323.08 2646.09ZM2756.09 2531.08 2431.08 2531.08 2431.08 2454.08 2756.09 2454.08ZM2756.09 2338.08 2431.08 2338.08 2431.08 2261.07 2756.09 2261.07ZM2323.08 2145.07 1998.07 2145.07 1998.07 2068.07 2323.08 2068.07ZM3838.13 1952.06 1186.04 1952.06 1186.04 1875.06 3838.13 1875.06ZM3838.13 1760.06 1186.04 1760.06 1186.04 1683.06 3838.13 1683.06ZM2431.08 1567.05 1890.06 1567.05 1890.06 1490.05 2431.08 1490.05Z" fill="#3AB395"/></g><g clip-path="url(#clip3)"><path d="M0 0 0.000360892 3278" stroke="#E0E5EB" stroke-width="3.4375" stroke-linejoin="round" stroke-miterlimit="10" fill="none" fill-rule="evenodd" transform="matrix(1 0 0 -1 1131.5 4709.5)"/></g><g clip-path="url(#clip4)"><path d="M1114.5 4709.5 1131.5 4709.5M1114.5 4516.65 1131.5 4516.65M1114.5 4323.64 1131.5 4323.64M1114.5 4130.64 1131.5 4130.64M1114.5 3938.63 1131.5 3938.63M1114.5 3745.62 1131.5 3745.62M1114.5 3552.62 1131.5 3552.62M1114.5 3359.61 1131.5 3359.61M1114.5 3166.6 1131.5 3166.6M1114.5 2974.6 1131.5 2974.6M1114.5 2781.59 1131.5 2781.59M1114.5 2588.58 1131.5 2588.58M1114.5 2395.58 1131.5 2395.58M1114.5 2203.57 1131.5 2203.57M1114.5 2010.57 1131.5 2010.57M1114.5 1817.56 1131.5 1817.56M1114.5 1624.55 1131.5 1624.55M1114.5 1431.5 1131.5 1431.5" stroke="#E0E5EB" stroke-width="3.4375" stroke-linejoin="round" stroke-miterlimit="10" fill="none"/></g><g clip-path="url(#clip5)"><text fill="#44546A" font-family="Calibri,Calibri_MSFontService,sans-serif" font-weight="400" font-size="41" transform="matrix(1 0 0 1 1121.33 4774)">0</text></g><g clip-path="url(#clip6)"><text fill="#44546A" font-family="Calibri,Calibri_MSFontService,sans-serif" font-weight="400" font-size="41" transform="matrix(1 0 0 1 1652.21 4774)">10</text></g><g clip-path="url(#clip7)"><text fill="#44546A" font-family="Calibri,Calibri_MSFontService,sans-serif" font-weight="400" font-size="41" transform="matrix(1 0 0 1 2193.54 4774)">20</text></g><g clip-path="url(#clip8)"><text fill="#44546A" font-family="Calibri,Calibri_MSFontService,sans-serif" font-weight="400" font-size="41" transform="matrix(1 0 0 1 2734.86 4774)">30</text></g><g clip-path="url(#clip9)"><text fill="#44546A" font-family="Calibri,Calibri_MSFontService,sans-serif" font-weight="400" font-size="41" transform="matrix(1 0 0 1 3276.19 4774)">40</text></g><g clip-path="url(#clip10)"><text fill="#44546A" font-family="Calibri,Calibri_MSFontService,sans-serif" font-weight="400" font-size="41" transform="matrix(1 0 0 1 3817.51 4774)">50</text></g><g clip-path="url(#clip11)"><text fill="#44546A" font-family="Calibri,Calibri_MSFontService,sans-serif" font-weight="400" font-size="41" transform="matrix(1 0 0 1 4358.84 4774)">60</text></g><g clip-path="url(#clip12)"><text fill="#44546A" font-family="Calibri,Calibri_MSFontService,sans-serif" font-weight="400" font-size="55" transform="matrix(1 0 0 1 761.134 4628)">Interface WEB</text></g><g clip-path="url(#clip13)"><text fill="#44546A" font-family="Calibri,Calibri_MSFontService,sans-serif" font-weight="400" font-size="55" transform="matrix(1 0 0 1 581.123 4436)">Création du calendrier</text></g><g clip-path="url(#clip14)"><text fill="#44546A" font-family="Calibri,Calibri_MSFontService,sans-serif" font-weight="400" font-size="55" transform="matrix(1 0 0 1 583.391 4243)">Webscraping planning</text></g><g clip-path="url(#clip15)"><text fill="#44546A" font-family="Calibri,Calibri_MSFontService,sans-serif" font-weight="400" font-size="55" transform="matrix(1 0 0 1 763.655 4050)">Envoi par mail</text></g><g clip-path="url(#clip16)"><text fill="#44546A" font-family="Calibri,Calibri_MSFontService,sans-serif" font-weight="400" font-size="55" transform="matrix(1 0 0 1 702.513 3857)">Base de données</text></g><g clip-path="url(#clip17)"><text fill="#44546A" font-family="Calibri,Calibri_MSFontService,sans-serif" font-weight="400" font-size="55" transform="matrix(1 0 0 1 660.346 3664)">Webscraping note</text></g><g clip-path="url(#clip18)"><text fill="#44546A" font-family="Calibri,Calibri_MSFontService,sans-serif" font-weight="400" font-size="55" transform="matrix(1 0 0 1 401.799 3472)">Reconnaissance vocale (Jarvis)</text></g><g clip-path="url(#clip19)"><text fill="#44546A" font-family="Calibri,Calibri_MSFontService,sans-serif" font-weight="400" font-size="55" transform="matrix(1 0 0 1 502.473 3279)">Affichage tableau de bord</text></g><g clip-path="url(#clip20)"><text fill="#44546A" font-family="Calibri,Calibri_MSFontService,sans-serif" font-weight="400" font-size="55" transform="matrix(1 0 0 1 538.36 3086)">Création des graphiques</text></g><g clip-path="url(#clip21)"><text fill="#44546A" font-family="Calibri,Calibri_MSFontService,sans-serif" font-weight="400" font-size="55" transform="matrix(1 0 0 1 407.367 2893)">Ajouter des données sur l'Isen</text></g><g clip-path="url(#clip22)"><text fill="#44546A" font-family="Calibri,Calibri_MSFontService,sans-serif" font-weight="400" font-size="55" transform="matrix(1 0 0 1 545.097 2700)">Explorer la piste NodeJS</text></g><g clip-path="url(#clip23)"><text fill="#44546A" font-family="Calibri,Calibri_MSFontService,sans-serif" font-weight="400" font-size="55" transform="matrix(1 0 0 1 226.554 2508)">Connexion à la BDD à partir de python</text></g><g clip-path="url(#clip24)"><text fill="#44546A" font-family="Calibri,Calibri_MSFontService,sans-serif" font-weight="400" font-size="55" transform="matrix(1 0 0 1 160.554 2315)">Connexion à la BDD à partir de l'interface</text></g><g clip-path="url(#clip25)"><text fill="#44546A" font-family="Calibri,Calibri_MSFontService,sans-serif" font-weight="400" font-size="55" transform="matrix(1 0 0 1 505.085 2122)">Récupérer les coefficients</text></g><g clip-path="url(#clip26)"><text fill="#44546A" font-family="Calibri,Calibri_MSFontService,sans-serif" font-weight="400" font-size="55" transform="matrix(1 0 0 1 525.275 1929)">Compléter le wiki Github</text></g><g clip-path="url(#clip27)"><text fill="#44546A" font-family="Calibri,Calibri_MSFontService,sans-serif" font-weight="400" font-size="55" transform="matrix(1 0 0 1 231 1737)">Ajouter des graphiques sur le Readme</text></g><g clip-path="url(#clip28)"><text fill="#44546A" font-family="Calibri,Calibri_MSFontService,sans-serif" font-weight="400" font-size="55" transform="matrix(1 0 0 1 526.306 1544)">Ajouter le calendrier .csv</text></g><g clip-path="url(#clip29)"><text fill="#44546A" font-family="Calibri,Calibri_MSFontService,sans-serif" font-weight="700" font-size="73" transform="matrix(1 0 0 1 2485.43 4929)">Nombre de jours</text></g><g clip-path="url(#clip30)"><text fill="#44546A" font-family="Calibri,Calibri_MSFontService,sans-serif" font-weight="700" font-size="73" transform="matrix(6.12323e-17 -1 1 6.12323e-17 127.302 3172)">Tâches</text></g><g clip-path="url(#clip31)"><text fill="#44546A" font-family="Calibri,Calibri_MSFontService,sans-serif" font-weight="700" font-size="73" transform="matrix(1 0 0 1 1908.99 1355)">Diagramme de Gantt</text></g><g clip-path="url(#clip32)"><rect x="4154" y="4775" width="30.0005" height="31" fill="#3AB395"/></g><g clip-path="url(#clip33)"><text fill="#44546A" font-family="Calibri,Calibri_MSFontService,sans-serif" font-weight="400" font-size="55" transform="matrix(1 0 0 1 4197.68 4806)">Durée</text></g><rect x="0.499836" y="1251.5" width="4451" height="3817" stroke="#E0E5EB" stroke-width="3.4375" stroke-linejoin="round" stroke-miterlimit="10" fill="none"/></g></svg>