<svg width="4428" height="3009" xmlns="http://www.w3.org/2000/svg" xmlns:xlink="http://www.w3.org/1999/xlink" overflow="hidden"><defs><clipPath id="clip0"><rect x="3858" y="465" width="4428" height="3009"/></clipPath><clipPath id="clip1"><rect x="3858" y="465" width="4426" height="3006"/></clipPath><clipPath id="clip2"><rect x="3858" y="465" width="4426" height="3006"/></clipPath><clipPath id="clip3"><rect x="3858" y="465" width="4426" height="3006"/></clipPath><clipPath id="clip4"><rect x="3858" y="465" width="4426" height="3006"/></clipPath><clipPath id="clip5"><rect x="3858" y="465" width="4426" height="3006"/></clipPath><clipPath id="clip6"><rect x="3858" y="465" width="4426" height="3006"/></clipPath><clipPath id="clip7"><rect x="3858" y="465" width="4426" height="3006"/></clipPath><clipPath id="clip8"><rect x="3858" y="465" width="4426" height="3006"/></clipPath><clipPath id="clip9"><rect x="3858" y="465" width="4426" height="3006"/></clipPath><clipPath id="clip10"><rect x="3858" y="465" width="4426" height="3006"/></clipPath><clipPath id="clip11"><rect x="3858" y="465" width="4426" height="3006"/></clipPath><clipPath id="clip12"><rect x="3858" y="465" width="4426" height="3006"/></clipPath><clipPath id="clip13"><rect x="3858" y="465" width="4426" height="3006"/></clipPath></defs><g clip-path="url(#clip0)" transform="translate(-3858 -465)"><rect x="3859" y="466" width="4425" height="3006" fill="#FFFFFF"/><g clip-path="url(#clip1)"><path d="M6071.47 736.441C6770.2 736.441 7336.62 1302.87 7336.62 2001.59 7336.62 2030.4 7335.64 2059.19 7333.67 2087.93L7018.12 2066.35C7053.89 1543.52 6659.05 1090.7 6136.23 1054.94 6114.67 1053.47 6093.08 1052.73 6071.47 1052.73Z" stroke="#FFFFFF" stroke-width="6.875" stroke-linejoin="round" stroke-miterlimit="10" fill="#E8AD72" fill-rule="evenodd"/></g><g clip-path="url(#clip2)"><path d="M7333.67 2087.93C7285.99 2785.03 6682.23 3311.48 5985.13 3263.8 5956.4 3261.83 5927.74 3258.88 5899.2 3254.96L5942.27 2941.62C6461.43 3012.98 6940.14 2649.96 7011.5 2130.8 7014.44 2109.4 7016.65 2087.9 7018.12 2066.35Z" stroke="#FFFFFF" stroke-width="6.875" stroke-linejoin="round" stroke-miterlimit="10" fill="#37AF92" fill-rule="evenodd"/></g><g clip-path="url(#clip3)"><path d="M5899.2 3254.96C5305.27 3173.33 4850.18 2686.05 4809.27 2087.93L5124.82 2066.35C5155.5 2514.93 5496.82 2880.39 5942.27 2941.62Z" stroke="#FFFFFF" stroke-width="6.875" stroke-linejoin="round" stroke-miterlimit="10" fill="#B087D9" fill-rule="evenodd"/></g><g clip-path="url(#clip4)"><path d="M4809.27 2087.93C4761.59 1390.83 5288.04 787.072 5985.13 739.389 6013.87 737.424 6042.67 736.44 6071.47 736.44L6071.47 1052.73C5547.43 1052.73 5122.61 1477.55 5122.61 2001.59 5122.61 2023.2 5123.34 2044.79 5124.82 2066.35Z" stroke="#FFFFFF" stroke-width="6.875" stroke-linejoin="round" stroke-miterlimit="10" fill="#B4E6DA" fill-rule="evenodd"/></g><g clip-path="url(#clip5)"><text fill="#595959" font-family="Calibri,Calibri_MSFontService,sans-serif" font-weight="400" font-size="147" transform="matrix(1 0 0 1 5406.86 640)">Répartition des tâches </text></g><g clip-path="url(#clip6)"><rect x="5363.5" y="3358.5" width="46" height="45" stroke="#FFFFFF" stroke-width="6.875" stroke-linejoin="round" stroke-miterlimit="10" fill="#E8AD72"/></g><g clip-path="url(#clip7)"><text font-family="Calibri,Calibri_MSFontService,sans-serif" font-weight="400" font-size="83" transform="matrix(1 0 0 1 5430.01 3405)">Hugo</text></g><g clip-path="url(#clip8)"><rect x="5683.5" y="3358.5" width="46" height="45" stroke="#FFFFFF" stroke-width="6.875" stroke-linejoin="round" stroke-miterlimit="10" fill="#37AF92"/></g><g clip-path="url(#clip9)"><text font-family="Calibri,Calibri_MSFontService,sans-serif" font-weight="400" font-size="83" transform="matrix(1 0 0 1 5750.15 3405)">Guillaume</text></g><g clip-path="url(#clip10)"><rect x="6168.5" y="3358.5" width="46" height="45" stroke="#FFFFFF" stroke-width="6.875" stroke-linejoin="round" stroke-miterlimit="10" fill="#B087D9"/></g><g clip-path="url(#clip11)"><text font-family="Calibri,Calibri_MSFontService,sans-serif" font-weight="400" font-size="83" transform="matrix(1 0 0 1 6235.18 3405)">Amine</text></g><g clip-path="url(#clip12)"><rect x="6528.5" y="3358.5" width="46" height="45" stroke="#FFFFFF" stroke-width="6.875" stroke-linejoin="round" stroke-miterlimit="10" fill="#B4E6DA"/></g><g clip-path="url(#clip13)"><text font-family="Calibri,Calibri_MSFontService,sans-serif" font-weight="400" font-size="83" transform="matrix(1 0 0 1 6595.19 3405)">Brieuc</text></g><rect x="3859.5" y="466.5" width="4425" height="3006" stroke="#D9D9D9" stroke-width="3.4375" stroke-linejoin="round" stroke-miterlimit="10" fill="none"/></g></svg>